{
.appVersion = "3087";
.storedFileType = com.schriftgestaltung.glyphs;
.formatVersion = 3;
DisplayStrings = (
"รฐ"
);
axes = (
{
name = Weight;
tag = wght;
},
{
name = Contrast;
tag = cont;
},
{
name = Monospaced;
tag = mono;
},
{
name = Italic;
tag = ital;
}
);
date = "2016-11-08 10:02:54 +0000";
familyName = Mell;
featurePrefixes = (
{
automatic = 1;
code = "languagesystem DFLT dflt;
languagesystem cyrl dflt;
languagesystem latn dflt;
languagesystem latn CAT;
languagesystem latn ROM;
languagesystem latn MOL;
languagesystem latn TRK;
";
name = Languagesystems;
}
);
features = (
{
automatic = 1;
code = "feature locl;
feature frac;
";
tag = aalt;
},
{
automatic = 1;
code = "script latn;
language CAT;
sub  l' periodcentered' l by ldot;
sub  L' periodcentered' L by Ldot;
language ROM;
sub Scedilla by Scommaaccent;
sub scedilla by scommaaccent;
sub Tcedilla by Tcommaaccent;
sub tcedilla by tcommaaccent;
language MOL;
sub Scedilla by Scommaaccent;
sub scedilla by scommaaccent;
sub Tcedilla by Tcommaaccent;
sub tcedilla by tcommaaccent;
language KAZ;
sub i by idotaccent;
language TAT;
sub i by idotaccent;
language TRK;
sub i by idotaccent;
language CRT;
sub i by idotaccent;
language AZE;
sub i by idotaccent;
";
tag = locl;
},
{
automatic = 1;
code = "lookup FRAC {
	sub slash by fraction;
} FRAC;
lookup UP {
	sub [zero one two three four five six seven eight nine] by [zero.numr one.numr two.numr three.numr four.numr five.numr six.numr seven.numr eight.numr nine.numr];
} UP;
lookup DOWN {
	sub fraction [zero.numr one.numr two.numr three.numr four.numr five.numr six.numr seven.numr eight.numr nine.numr]' by [zero.dnom one.dnom two.dnom three.dnom four.dnom five.dnom six.dnom seven.dnom eight.dnom nine.dnom];

glyphs = (
{
glyphname = B;
lastChange = "2024-10-04 06:55:24 +0000";
layers = (
{
background = {
shapes = (
{
closed = 1;
nodes = (
(300,356,o),
(243,353,o),
(323,362,c),
(377,379,o),
(413,421,o),
(413,508,cs),
(413,638,o),
(359,703,o),
(221,701,cs),
(151,700,l),
(151,700,o),
(148,356,o),
(148,356,cs)
);
},
{
closed = 1;
nodes = (
(202,619,ls),
(290,619,o),
(326,586,o),
(326,513,cs),
(326,439,o),
(311,396,o),
(226,396,cs),
(131,396,l),
(131,619,l)
);
}
);
};
layerId = "7EBE3D46-E53E-419E-A3EC-596DA2EA1E0D";
name = Regular;
shapes = (
{
closed = 1;
nodes = (
(70,0,l),
(100,-5,o),
(185,-19,o),
(283,-18,cs),
(429,-16,o),
(520,52,o),
(520,178,cs),
(520,240,o),
(479,302,o),
(400,330,c),
(479,358,o),
(520,420,o),
(520,482,cs),
(520,608,o),
(429,676,o),
(283,678,cs),
(185,679,o),
(100,665,o),
(70,660,c)
);
},
{
closed = 1;
nodes = (
(225,281,l),
(259,282,ls),
(359,282,o),
(376,244,o),
(376,205,cs),
(376,166,o),
(345,140,o),
(275,137,cs),
(258,137,o),
(242,137,o),
(225,137,c)
);
},
{
closed = 1;
nodes = (
(225,523,l),
(242,523,o),
(258,523,o),
(275,523,cs),
(345,520,o),
(376,494,o),
(376,455,cs),
(376,416,o),
(359,378,o),
(259,378,cs),
(225,379,l)
);
}
);
width = 560;
},
{
background = {
shapes = (
{
closed = 1;
nodes = (
(302,356,o),
(245,353,o),
(325,362,c),
(379,379,o),
(415,421,o),
(415,508,cs),
(415,638,o),
(361,703,o),
(223,701,cs),
(153,700,l),
(153,700,o),
(150,356,o),
(150,356,cs)
);
},
{
closed = 1;
nodes = (
(204,619,ls),
(292,619,o),
(328,586,o),
(328,513,cs),
(328,439,o),
(313,396,o),
(228,396,cs),
(133,396,l),
(133,619,l)
);
}
);
};
layerId = m002;
name = Regular;
shapes = (
{
closed = 1;
nodes = (
(70,0,l),
(132,-6,o),
(186,-17,o),
(284,-16,cs),
(400,-14,o),
(522,27,o),
(522,163,cs),
(522,240,o),
(464,288,o),
(375,310,c),
(464,332,o),
(522,380,o),
(522,457,cs),
(522,593,o),
(400,634,o),
(284,636,cs),
(187,637,o),
(167,629,o),
(70,621,c)
);
},
{
closed = 1;
nodes = (
(97,295,l),
(251,295,ls),
(351,295,o),
(492,264,o),
(492,163,cs),
(492,48,o),
(365,24,o),
(285,21,cs),
(210,19,o),
(146,26,o),
(97,32,c)
);
},
{
closed = 1;
nodes = (
(97,588,l),
(146,594,o),
(210,601,o),
(285,599,cs),
(365,596,o),
(492,572,o),
(492,457,cs),
(492,356,o),
(351,325,o),
(251,325,cs),
(97,325,l)
);
}
);
width = 582;
},
{
background = {
shapes = (
{
closed = 1;
nodes = (
(300,356,o),
(243,353,o),
(323,362,c),
(377,379,o),
(413,421,o),
(413,508,cs),
(413,638,o),
(359,703,o),
(221,701,cs),
(151,700,l),
(151,700,o),
(148,356,o),
(148,356,cs)
);
},
{
closed = 1;
nodes = (
(202,619,ls),
(290,619,o),
(326,586,o),
(326,513,cs),
(326,439,o),
(311,396,o),
(226,396,cs),
(131,396,l),
(131,619,l)
);
}
);
};
layerId = m003;
name = Regular;
shapes = (
{
closed = 1;
nodes = (
(90,0,l),
(120,-5,o),
(185,-19,o),
(283,-18,cs),
(429,-16,o),
(520,52,o),
(520,178,cs),
(520,252,o),
(477,305,o),
(416,330,c),
(477,355,o),
(520,408,o),
(520,482,cs),
(520,608,o),
(429,676,o),
(283,678,cs),
(185,679,o),
(120,665,o),
(90,660,c)
);
},
{
closed = 1;
nodes = (
(146,302,l),
(354,302,ls),
(419,302,o),
(466,269,o),
(466,220,cs),
(466,181,o),
(435,140,o),
(375,137,cs),
(314,136,o),
(211,141,o),
(146,147,c)
);
},
{
closed = 1;
nodes = (
(146,513,l),
(211,519,o),
(314,524,o),
(375,523,cs),
(435,520,o),
(466,479,o),
(466,440,cs),
(466,391,o),
(419,358,o),
(354,358,cs),
(146,358,l)
);
}
);
width = 560;
},
{
background = {
shapes = (
{
closed = 1;
nodes = (
(302,356,o),
(245,353,o),
(325,362,c),
(379,379,o),
(415,421,o),
(415,508,cs),
(415,638,o),
(361,703,o),
(223,701,cs),
(153,700,l),
(153,700,o),
(150,356,o),
(150,356,cs)
);
},
{
closed = 1;
nodes = (
(204,619,ls),
(292,619,o),
(328,586,o),
(328,513,cs),
(328,439,o),
(313,396,o),
(228,396,cs),
(133,396,l),
(133,619,l)
);
}
);
};
layerId = m004;
name = Regular;
shapes = (
{
closed = 1;
nodes = (
(70,0,l),
(132,-6,o),
(186,-17,o),
(284,-16,cs),
(400,-14,o),
(522,27,o),
(522,163,cs),
(522,240,o),
(464,288,o),
(375,310,c),
(464,332,o),
(522,380,o),
(522,457,cs),
(522,593,o),
(400,634,o),
(284,636,cs),
(187,637,o),
(167,629,o),
(70,621,c)
);
},
{
closed = 1;
nodes = (
(97,295,l),
(251,295,ls),
(351,295,o),
(492,264,o),
(492,163,cs),
(492,48,o),
(365,24,o),
(285,21,cs),
(210,19,o),
(146,26,o),
(97,32,c)
);
},
{
closed = 1;
nodes = (
(97,588,l),
(146,594,o),
(210,601,o),
(285,599,cs),
(365,596,o),
(492,572,o),
(492,457,cs),
(492,356,o),
(351,325,o),
(251,325,cs),
(97,325,l)
);
}
);
width = 582;
},
{
background = {
shapes = (
{
closed = 1;
nodes = (
(300,356,o),
(243,353,o),
(323,362,c),
(377,379,o),
(413,421,o),
(413,508,cs),
(413,638,o),
(359,703,o),
(221,701,cs),
(151,700,l),
(151,700,o),
(148,356,o),
(148,356,cs)
);
},
{
closed = 1;
nodes = (
(202,619,ls),
(290,619,o),
(326,586,o),
(326,513,cs),
(326,439,o),
(311,396,o),
(226,396,cs),
(131,396,l),
(131,619,l)
);
}
);
};
layerId = m005;
name = Regular;
shapes = (
{
closed = 1;
nodes = (
(40,0,l),
(70,-5,o),
(125,-19,o),
(223,-18,cs),
(369,-16,o),
(460,52,o),
(460,178,cs),
(460,240,o),
(419,302,o),
(340,330,c),
(419,358,o),
(460,420,o),
(460,482,cs),
(460,608,o),
(369,676,o),
(223,678,cs),
(125,679,o),
(70,665,o),
(40,660,c)
);
},
{
closed = 1;
nodes = (
(195,282,l),
(219,282,ls),
(299,282,o),
(316,244,o),
(316,205,cs),
(316,166,o),
(295,137,o),
(225,137,cs),
(215,137,o),
(205,137,o),
(195,137,c)
);
},
{
closed = 1;
nodes = (
(196,517,l),
(213,517,o),
(229,520,o),
(246,520,cs),
(267,520,o),
(316,494,o),
(316,455,cs),
(316,416,o),
(299,378,o),
(199,378,cs),
(195,378,l)
);
}
);
width = 500;
},
{
background = {
shapes = (
{
closed = 1;
nodes = (
(302,356,o),
(245,353,o),
(325,362,c),
(379,379,o),
(415,421,o),
(415,508,cs),
(415,638,o),
(361,703,o),
(223,701,cs),
(153,700,l),
(153,700,o),
(150,356,o),
(150,356,cs)
);
},
{
closed = 1;
nodes = (
(204,619,ls),
(292,619,o),
(328,586,o),
(328,513,cs),
(328,439,o),
(313,396,o),
(228,396,cs),
(133,396,l),
(133,619,l)
);
}
);
};
layerId = m006;
name = Regular;
shapes = (
{
closed = 1;
nodes = (
(69,0,l),
(167,-9,o),
(144,-17,o),
(243,-16,cs),
(359,-14,o),
(471,27,o),
(471,163,cs),
(471,240,o),
(417,288,o),
(332,310,c),
(417,332,o),
(471,380,o),
(471,457,cs),
(471,593,o),
(359,634,o),
(243,636,cs),
(141,637,o),
(165,629,o),
(69,621,c)
);
},
{
closed = 1;
nodes = (
(96,295,l),
(210,295,ls),
(310,295,o),
(441,264,o),
(441,163,cs),
(441,48,o),
(324,24,o),
(244,21,cs),
(171,19,o),
(136,25,o),
(96,32,c)
);
},
{
closed = 1;
nodes = (
(96,588,l),
(136,595,o),
(171,601,o),
(244,599,cs),
(324,596,o),
(441,572,o),
(441,457,cs),
(441,356,o),
(310,325,o),
(210,325,cs),
(96,325,l)
);
}
);
width = 500;
},
{
background = {
shapes = (
{
closed = 1;
nodes = (
(302,356,o),
(245,353,o),
(325,362,c),
(379,379,o),
(415,421,o),
(415,508,cs),
(415,638,o),
(361,703,o),
(223,701,cs),
(153,700,l),
(153,700,o),
(150,356,o),
(150,356,cs)
);
},
{
closed = 1;
nodes = (
(204,619,ls),
(292,619,o),
(328,586,o),
(328,513,cs),
(328,439,o),
(313,396,o),
(228,396,cs),
(133,396,l),
(133,619,l)
);
}
);
};
layerId = m007;
name = Regular;
shapes = (
{
closed = 1;
nodes = (
(70,0,l),
(132,-6,o),
(186,-17,o),
(284,-16,cs),
(400,-14,o),
(522,27,o),
(522,163,cs),
(522,240,o),
(464,288,o),
(375,310,c),
(464,332,o),
(522,380,o),
(522,457,cs),
(522,593,o),
(400,634,o),
(284,636,cs),
(187,637,o),
(167,629,o),
(70,621,c)
);
},
{
closed = 1;
nodes = (
(97,295,l),
(251,295,ls),
(351,295,o),
(492,264,o),
(492,163,cs),
(492,48,o),
(365,24,o),
(285,21,cs),
(210,19,o),
(146,26,o),
(97,32,c)
);
},
{
closed = 1;
nodes = (
(97,588,l),
(146,594,o),
(210,601,o),
(285,599,cs),
(365,596,o),
(492,572,o),
(492,457,cs),
(492,356,o),
(351,325,o),
(251,325,cs),
(97,325,l)
);
}
);
width = 582;
}
);
unicode = 66;
changeCount = 3;
},
{
glyphname = C;
kernLeft = O;
kernRight = O;
lastChange = "2024-10-04 06:55:24 +0000";
layers = (
{
layerId = "7EBE3D46-E53E-419E-A3EC-596DA2EA1E0D";
name = Regular;
shapes = (
{
closed = 1;
nodes = (
(41,101,o),
(169,-11,o),
(326,-11,cs),
(388,-11,o),
(432,-1,o),
(506,39,c),
(501,95,o),
(486,151,o),
(471,196,c),
(418,163,o),
(375,149,o),
(336,149,cs),
(228,149,o),
(168,219,o),
(164,328,c),
(168,437,o),
(228,507,o),
(336,507,cs),
(375,507,o),
(418,493,o),
(471,460,c),
(486,505,o),
(501,561,o),
(506,617,c),
(432,657,o),
(388,667,o),
(326,667,cs),
(169,667,o),
(39,555,o),
(40,326,cs)
);
}
);
width = 567;
},
{
layerId = m002;
name = Regular;
shapes = (
{
closed = 1;
nodes = (
(50,86,o),
(158,-5,o),
(316,-5,cs),
(382,-5,o),
(433,18,o),
(471,38,c),
(472,46,o),
(470,63,o),
(466,73,c),
(413,41,o),
(375,27,o),
(306,27,cs),
(214,27,o),
(77,81,o),
(77,313,cs),
(77,545,o),
(214,599,o),
(306,599,cs),
(375,599,o),
(413,585,o),
(466,553,c),
(470,563,o),
(472,580,o),
(471,588,c),
(433,608,o),
(382,631,o),
(316,631,cs),
(158,631,o),
(50,540,o),
(50,312,cs)
);
}
);
width = 521;
},
{
layerId = m003;
name = Regular;
shapes = (
{
closed = 1;
nodes = (
(41,101,o),
(169,-11,o),
(326,-11,cs),
(388,-11,o),
(432,-1,o),
(506,39,c),
(501,95,o),
(486,151,o),
(471,196,c),
(428,171,o),
(372,149,o),
(291,149,cs),
(184,149,o),
(99,182,o),
(94,328,c),
(99,474,o),
(184,507,o),
(291,507,cs),
(372,507,o),
(428,485,o),
(471,460,c),
(486,505,o),
(501,561,o),
(506,617,c),
(432,657,o),
(388,667,o),
(326,667,cs),
(169,667,o),
(41,555,o),
(40,326,c)
);
}
);
width = 567;
},
{
layerId = m004;
name = Regular;
shapes = (
{
closed = 1;
nodes = (
(50,86,o),
(158,-5,o),
(316,-5,cs),
(382,-5,o),
(433,18,o),
(471,38,c),
(472,46,o),
(470,63,o),
(466,73,c),
(413,41,o),
(375,27,o),
(306,27,cs),
(214,27,o),
(77,81,o),
(77,313,cs),
(77,545,o),
(214,599,o),
(306,599,cs),
(375,599,o),
(413,585,o),
(466,553,c),
(470,563,o),
(472,580,o),
(471,588,c),
(433,608,o),
(382,631,o),
(316,631,cs),
(158,631,o),
(50,540,o),
(50,312,cs)
);
}
);
width = 521;
},
{
layerId = m005;
name = Regular;
shapes = (
{
closed = 1;
nodes = (
(21,101,o),
(139,-11,o),
(296,-11,cs),
(358,-11,o),
(402,-1,o),
(476,39,c),
(471,95,o),
(456,151,o),
(441,196,c),
(388,163,o),
(345,149,o),
(306,149,cs),
(198,149,o),
(148,219,o),
(144,328,c),
(148,437,o),
(198,507,o),
(306,507,cs),
(345,507,o),
(388,493,o),
(441,460,c),
(456,505,o),
(471,561,o),
(476,617,c),
(402,657,o),
(358,667,o),
(296,667,cs),
(139,667,o),
(21,555,o),
(20,326,c)
);
}
);
width = 500;
},
{
layerId = m006;
name = Regular;
shapes = (
{
closed = 1;
nodes = (
(50,86,o),
(148,-5,o),
(306,-5,cs),
(372,-5,o),
(423,18,o),
(461,38,c),
(462,46,o),
(460,63,o),
(456,73,c),
(403,41,o),
(365,27,o),
(296,27,cs),
(204,27,o),
(77,81,o),
(77,313,cs),
(77,545,o),
(204,599,o),
(296,599,cs),
(365,599,o),
(403,585,o),
(456,553,c),
(460,563,o),
(462,580,o),
(461,588,c),
(423,608,o),
(372,631,o),
(306,631,cs),
(148,631,o),
(50,540,o),
(50,312,cs)
);
}
);
width = 500;
},
{
layerId = m007;
name = Regular;
shapes = (
{
closed = 1;
nodes = (
(50,86,o),
(158,-5,o),
(316,-5,cs),
(382,-5,o),
(433,18,o),
(471,38,c),
(472,46,o),
(470,63,o),
(466,73,c),
(413,41,o),
(375,27,o),
(306,27,cs),
(214,27,o),
(77,81,o),
(77,313,cs),
(77,545,o),
(214,599,o),
(306,599,cs),
(375,599,o),
(413,585,o),
(466,553,c),
(470,563,o),
(472,580,o),
(471,588,c),
(433,608,o),
(382,631,o),
(316,631,cs),
(158,631,o),
(50,540,o),
(50,312,cs)
);
}
);
width = 521;
}
);
unicode = 67;
changeCount = 3;
},
{
glyphname = D;
kernRight = O;
lastChange = "2024-10-04 06:55:24 +0000";
layers = (
{
layerId = "7EBE3D46-E53E-419E-A3EC-596DA2EA1E0D";
name = Regular;
shapes = (
{
closed = 1;
nodes = (
(458,214,o),
(400,146,o),
(268,146,cs),
(256,146,o),
(241,147,o),
(225,148,c),
(225,523,l),
(241,524,o),
(256,525,o),
(268,525,cs),
(394,525,o),
(458,463,o),
(458,338,cs)
);
},
{
closed = 1;
nodes = (
(124,0,o),
(212,-10,o),
(281,-9,cs),
(479,-5,o),
(574,147,o),
(571,336,cs),
(571,561,o),
(451,677,o),
(281,680,cs),
(212,681,o),
(124,671,o),
(70,661,c),
(70,10,l)
);
}
);
width = 631;
},
{
layerId = m002;
name = Regular;
shapes = (
{
closed = 1;
nodes = (
(504,79,o),
(352,19,o),
(218,19,cs),
(175,19,o),
(133,20,o),
(97,28,c),
(97,600,l),
(133,608,o),
(175,609,o),
(218,609,cs),
(352,609,o),
(504,549,o),
(508,314,c)
);
},
{
closed = 1;
nodes = (
(118,-8,o),
(160,-9,o),
(231,-8,cs),
(401,-5,o),
(541,90,o),
(540.912,314,cs),
(541,538,o),
(401,633,o),
(231,636,cs),
(160,637,o),
(118,636,o),
(70,626,c),
(70,2,l)
);
}
);
width = 581;
},
{
layerId = m003;
name = Regular;
shapes = (
{
closed = 1;
nodes = (
(518,188,o),
(394,146,o),
(268,146,cs),
(233,146,o),
(183,151,o),
(140,158,c),
(140,513,l),
(183,520,o),
(233,525,o),
(268,525,cs),
(413,525,o),
(517,473,o),
(518,333,cs)
);
},
{
closed = 1;
nodes = (
(128,1,o),
(160,-10,o),
(231,-9,cs),
(405,-7,o),
(581,69,o),
(581,333,cs),
(581,602,o),
(405,678,o),
(231,680,cs),
(160,681,o),
(128,670,o),
(80,660,c),
(80,11,l)
);
}
);
width = 631;
},
{
layerId = m004;
name = Regular;
shapes = (
{
closed = 1;
nodes = (
(484,79,o),
(332,19,o),
(198,19,cs),
(155,19,o),
(113,20,o),
(77,28,c),
(77,600,l),
(113,608,o),
(155,609,o),
(198,609,cs),
(332,609,o),
(484,549,o),
(488,314,c)
);
},
{
closed = 1;
nodes = (
(98,-8,o),
(140,-9,o),
(211,-8,cs),
(381,-5,o),
(521,90,o),
(521,314,cs),
(521,538,o),
(381,633,o),
(211,636,cs),
(140,637,o),
(98,636,o),
(50,626,c),
(50,2,l)
);
}
);
width = 581;
},
{
layerId = m005;
name = Regular;
shapes = (
{
closed = 1;
nodes = (
(376,199,o),
(282,147,o),
(216,147,cs),
(202,147,o),
(199,147,o),
(185,147.001,c),
(185,523.999,l),
(199,524,o),
(202,525,o),
(216,525,cs),
(304,528,o),
(376,460,o),
(376,334,cs)
);
},
{
closed = 1;
nodes = (
(81,0,o),
(130,-9,o),
(199,-8,cs),
(369,-5,o),
(489,111,o),
(489,334,cs),
(489,560,o),
(369,676,o),
(199,679,cs),
(130,680,o),
(81,671,o),
(30,661,c),
(30,10,l)
);
}
);
width = 500;
},
{
layerId = m006;
name = Regular;
shapes = (
{
closed = 1;
nodes = (
(414,79,o),
(312,19,o),
(188,19,cs),
(145,19,o),
(113,22,o),
(97,28,c),
(97,600,l),
(133,608,o),
(155,609,o),
(198,609,cs),
(302,609,o),
(414,549,o),
(418,314,c)
);
},
{
closed = 1;
nodes = (
(106,-8,o),
(148,-8,o),
(201,-8,cs),
(341,-8,o),
(451,90,o),
(451,314,cs),
(451,538,o),
(341,631,o),
(201,636,cs),
(150,638,o),
(98,632,o),
(70,626,c),
(70,2,l)
);
}
);
width = 500;
},
{
layerId = m007;
name = Regular;
shapes = (
{
closed = 1;
nodes = (
(504,79,o),
(352,19,o),
(218,19,cs),
(175,19,o),
(133,20,o),
(97,28,c),
(97,600,l),
(133,608,o),
(175,609,o),
(218,609,cs),
(352,609,o),
(504,549,o),
(508,314,c)
);
},
{
closed = 1;
nodes = (
(118,-8,o),
(160,-9,o),
(231,-8,cs),
(401,-5,o),
(541,90,o),
(540.912,314,cs),
(541,538,o),
(401,633,o),
(231,636,cs),
(160,637,o),
(118,636,o),
(70,626,c),
(70,2,l)
);
}
);
width = 581;
}
);
unicode = 68;
changeCount = 3;
},
{
glyphname = G;
kernLeft = O;
kernRight = O;
lastChange = "2024-10-04 06:55:24 +0000";
layers = (
{
layerId = "7EBE3D46-E53E-419E-A3EC-596DA2EA1E0D";
name = Regular;
shapes = (
{
closed = 1;
nodes = (
(44,168,o),
(116,-9,o),
(312,-5,cs),
(446,-2,o),
(492,57,o),
(545,128,c),
(545,395,l),
(361,394,l),
(363,280,l),
(434,280,l),
(434,194,l),
(410,173,o),
(385,161,o),
(309,160,cs),
(230,162,o),
(165,230,o),
(165,341,c),
(171,446,o),
(230,513,o),
(336,513,cs),
(375,513,o),
(418,499,o),
(471,466,c),
(486,511,o),
(501,567,o),
(506,623,c),
(432,663,o),
(388,673,o),
(326,673,cs),
(170,673,o),
(43,563,o),
(40,333,c)
);
}
);
width = 611;
},
{
layerId = m002;
name = Regular;
shapes = (
{
closed = 1;
nodes = (
(50,124,o),
(130,-11,o),
(294,-15,cs),
(407,-15,o),
(462,26,o),
(538,99,c),
(538,323,l),
(354,322,l),
(355,289,l),
(511,289,l),
(510,109,l),
(434,42,o),
(376,23,o),
(296,23,cs),
(135,23,o),
(77,167,o),
(77,323,cs),
(77,555,o),
(214,609,o),
(306,609,cs),
(375,609,o),
(413,595,o),
(466,563,c),
(470,573,o),
(472,590,o),
(471,598,c),
(433,618,o),
(382,641,o),
(316,641,cs),
(158,641,o),
(50,549,o),
(50,322,cs)
);
}
);
width = 599;
},
{
layerId = m003;
name = Regular;
shapes = (
{
closed = 1;
nodes = (
(44,153,o),
(123,-5,o),
(312,-5,cs),
(446,-2,o),
(492,57,o),
(545,128,c),
(545,395,l),
(361,394,l),
(363,280,l),
(504,280,l),
(504,194,l),
(480,173,o),
(388,161,o),
(307,160,cs),
(180,161,o),
(95,200,o),
(94,341,c),
(101,481,o),
(186,513,o),
(291,513,cs),
(372,513,o),
(428,491,o),
(471,466,c),
(486,511,o),
(501,567,o),
(506,623,c),
(432,663,o),
(388,673,o),
(326,673,cs),
(137,673,o),
(38,519,o),
(40.016,337.26,cs)
);
}
);
width = 611;
},
{
layerId = m004;
name = Regular;
shapes = (
{
closed = 1;
nodes = (
(50,124,o),
(130,-11,o),
(294,-15,cs),
(407,-15,o),
(462,26,o),
(538,99,c),
(538,323,l),
(354,322,l),
(355,289,l),
(511,289,l),
(510,109,l),
(434,42,o),
(376,23,o),
(296,23,cs),
(135,23,o),
(77,167,o),
(77,323,cs),
(77,555,o),
(214,609,o),
(306,609,cs),
(375,609,o),
(413,595,o),
(466,563,c),
(470,573,o),
(472,590,o),
(471,598,c),
(433,618,o),
(382,641,o),
(316,641,cs),
(158,641,o),
(50,549,o),
(50,322,cs)
);
}
);
width = 599;
},
{
layerId = m005;
name = Regular;
shapes = (
{
closed = 1;
nodes = (
(33,135,o),
(113,-5,o),
(272,-5,c),
(374,-7,o),
(431,35,o),
(485,88,c),
(485,385,l),
(301,384,l),
(303,270,l),
(374,270,l),
(374,184,l),
(349,162,o),
(313,152,o),
(272,152,cs),
(182,152,o),
(155,228,o),
(154,341,cs),
(153,446,o),
(190,513,o),
(276,513,cs),
(325,513,o),
(368,499,o),
(421,466,c),
(436,511,o),
(451,567,o),
(456,623,c),
(382,663,o),
(338,673,o),
(276,673,cs),
(130,673,o),
(33,563,o),
(30,332,c)
);
}
);
width = 500;
},
{
layerId = m006;
name = Regular;
shapes = (
{
closed = 1;
nodes = (
(10,124,o),
(100,-11,o),
(234,-15,cs),
(327,-18,o),
(392,26,o),
(448,99,c),
(448,323,l),
(264,322,l),
(265,289,l),
(421,289,l),
(420,109,l),
(364,42,o),
(296,19,o),
(236,19,cs),
(105,19,o),
(37,167,o),
(37,323,cs),
(37,555,o),
(154,609,o),
(246,609,cs),
(315,609,o),
(353,595,o),
(406,563,c),
(410,573,o),
(412,590,o),
(411,598,c),
(373,618,o),
(322,641,o),
(256,641,cs),
(98,641,o),
(10,549,o),
(10,322,cs)
);
}
);
width = 500;
},
{
layerId = m007;
name = Regular;
shapes = (
{
closed = 1;
nodes = (
(50,124,o),
(130,-11,o),
(294,-15,cs),
(407,-15,o),
(462,26,o),
(538,99,c),
(538,323,l),
(354,322,l),
(355,289,l),
(511,289,l),
(510,109,l),
(434,42,o),
(376,23,o),
(296,23,cs),
(135,23,o),
(77,167,o),
(77,323,cs),
(77,555,o),
(214,609,o),
(306,609,cs),
(375,609,o),
(413,595,o),
(466,563,c),
(470,573,o),
(472,590,o),
(471,598,c),
(433,618,o),
(382,641,o),
(316,641,cs),
(158,641,o),
(50,549,o),
(50,322,cs)
);
}
);
width = 599;
}
);
unicode = 71;
changeCount = 3;
},
{
glyphname = J;
kernLeft = A;
lastChange = "2024-10-04 06:55:24 +0000";
layers = (
{
layerId = "7EBE3D46-E53E-419E-A3EC-596DA2EA1E0D";
name = Regular;
shapes = (
{
closed = 1;
nodes = (
(246,661,l),
(246,501,l),
(323,501,l),
(323,340,ls),
(323,216,o),
(283,151,o),
(201,151,cs),
(162,151,o),
(119,155,o),
(76,188,c),
(58,137,o),
(49,69,o),
(50,29,c),
(124,-2,o),
(149,-9,o),
(211,-9,cs),
(368,-9,o),
(476,108,o),
(478,340,cs),
(478,661,l)
);
}
);
width = 548;
},
{
layerId = m002;
name = Regular;
shapes = (
{
closed = 1;
nodes = (
(196,630,l),
(196,600,l),
(441,600,l),
(441,350,ls),
(441,131,o),
(382,29,o),
(230,29,cs),
(191,29,o),
(110,43,o),
(67,76,c),
(59,60,o),
(54,54,o),
(50,37,c),
(124,-3,o),
(169,-6,o),
(231,-6,cs),
(428,-6,o),
(467,126,o),
(468,355,c),
(468,630,l)
);
}
);
width = 526;
},
{
layerId = m003;
name = Regular;
shapes = (
{
closed = 1;
nodes = (
(246,661,l),
(246,501,l),
(423,501,l),
(423,340,ls),
(423,147,o),
(283,152,o),
(201,152,cs),
(162,152,o),
(119,165,o),
(76,189,c),
(58,138,o),
(49,70,o),
(50,30,c),
(114,-1,o),
(149,-8,o),
(211,-8,cs),
(368,-8,o),
(477,90,o),
(478,340,cs),
(478,661,l)
);
}
);
width = 548;
},
{
layerId = m004;
name = Regular;
shapes = (
{
closed = 1;
nodes = (
(206,630,l),
(206,600,l),
(441,600,l),
(441,350,ls),
(441,131,o),
(382,29,o),
(230,29,cs),
(191,29,o),
(110,43,o),
(67,76,c),
(59,60,o),
(54,54,o),
(50,37,c),
(124,-3,o),
(169,-6,o),
(231,-6,cs),
(428,-6,o),
(467,126,o),
(468,355,c),
(468,630,l)
);
}
);
width = 526;
},
{
layerId = m005;
name = Regular;
shapes = (
{
closed = 1;
nodes = (
(143,661,l),
(143,501,l),
(323,501,l),
(323,330,ls),
(323,214,o),
(283,149,o),
(201,149,cs),
(162,149,o),
(119,153,o),
(76,186,c),
(58,135,o),
(49,67,o),
(50,27,c),
(124,-4,o),
(149,-11,o),
(211,-11,cs),
(368,-11,o),
(476,106,o),
(478,330,cs),
(478,661,l)
);
}
);
width = 500;
},
{
layerId = m006;
name = Regular;
shapes = (
{
closed = 1;
nodes = (
(136,630,l),
(136,600,l),
(441,600,l),
(441,350,ls),
(441,131,o),
(382,29,o),
(230,29,cs),
(191,29,o),
(110,43,o),
(67,76,c),
(59,60,o),
(54,54,o),
(50,37,c),
(124,-3,o),
(169,-6,o),
(231,-6,cs),
(428,-6,o),
(467,126,o),
(468,355,c),
(468,630,l)
);
}
);
width = 500;
},
{
layerId = m007;
name = Regular;
shapes = (
{
closed = 1;
nodes = (
(196,630,l),
(196,600,l),
(441,600,l),
(441,350,ls),
(441,131,o),
(382,29,o),
(230,29,cs),
(191,29,o),
(110,43,o),
(67,76,c),
(59,60,o),
(54,54,o),
(50,37,c),
(124,-3,o),
(169,-6,o),
(231,-6,cs),
(428,-6,o),
(467,126,o),
(468,355,c),
(468,630,l)
);
}
);
width = 526;
}
);
unicode = 74;
changeCount = 3;
},
{
glyphname = K;
lastChange = "2024-10-04 06:55:24 +0000";
layers = (
{
layerId = "7EBE3D46-E53E-419E-A3EC-596DA2EA1E0D";
name = Regular;
shapes = (
{
alignment = -1;
ref = _I;
},
{
closed = 1;
nodes = (
(432,418,o),
(461,547,o),
(548,653,c),
(503,665,o),
(417,663,o),
(366,661,c),
(286,553,o),
(197,454,o),
(166,357,cs),
(148,300,l),
(267,195,o),
(286,81,o),
(355,-6,c),
(390,-5,o),
(504,-4,o),
(538,8,c),
(459,101,o),
(412,268,o),
(264,336,c)
);
}
);
width = 558;
},
{
layerId = m002;
name = Regular;
shapes = (
{
alignment = -1;
ref = _I;
},
{
closed = 1;
nodes = (
(198,422,o),
(320,536,o),
(437,632,c),
(430,633,o),
(407,634,o),
(396,632,c),
(296,554,o),
(177,433,o),
(115,347,cs),
(97,322,l),
(196,237,o),
(326,102,o),
(415,-5,c),
(423,-6,o),
(442,-5,o),
(448,-4,c),
(329,149,o),
(246,226,o),
(128,334,c)
);
}
);
width = 469;
},
{
layerId = m003;
name = Regular;
shapes = (
{
alignment = -1;
pos = (-30,0);
ref = _I;
},
{
closed = 1;
nodes = (
(312,449,o),
(420,566,o),
(537,662,c),
(512,672,o),
(457,672,o),
(416,669,c),
(336,601,o),
(169,428,o),
(126,337,cs),
(118,320,l),
(247,243,o),
(296,89,o),
(375,-8,c),
(430,-12,o),
(495,-4,o),
(548,8,c),
(409,141,o),
(372,286,o),
(224,386,c)
);
}
);
width = 558;
},
{
layerId = m004;
name = Regular;
shapes = (
{
ref = _I;
},
{
closed = 1;
nodes = (
(194,424,o),
(320,536,o),
(437,632,c),
(430,633,o),
(407,634,o),
(396,632,c),
(296,554,o),
(178,432,o),
(116,345,cs),
(98,320,l),
(197,245,o),
(326,112,o),
(415,-5,c),
(423,-6,o),
(442,-5,o),
(448,-4,c),
(329,159,o),
(242,238,o),
(124,336,c)
);
}
);
width = 469;
},
{
layerId = m005;
name = Regular;
shapes = (
{
alignment = -1;
pos = (-6,1);
ref = _I;
},
{
closed = 1;
nodes = (
(382,428,o),
(411,548,o),
(498,654,c),
(453,666,o),
(367,664,o),
(316,662,c),
(236,554,o),
(197,444,o),
(166,347,cs),
(148,290,l),
(267,185,o),
(246,79,o),
(315,-8,c),
(350,-7,o),
(454,-6,o),
(488,6,c),
(409,99,o),
(392,248,o),
(254,336,c)
);
}
);
width = 500;
},
{
layerId = m006;
name = Regular;
shapes = (
{
ref = _I;
},
{
closed = 1;
nodes = (
(194,424,o),
(320,536,o),
(437,632,c),
(430,633,o),
(407,634,o),
(396,632,c),
(296,554,o),
(178,442,o),
(116,355,cs),
(98,330,l),
(197,255,o),
(326,112,o),
(415,-5,c),
(423,-6,o),
(442,-5,o),
(448,-4,c),
(329,159,o),
(242,238,o),
(124,336,c)
);
}
);
width = 469;
},
{
layerId = m007;
name = Regular;
shapes = (
{
alignment = -1;
ref = _I;
},
{
closed = 1;
nodes = (
(198,422,o),
(320,536,o),
(437,632,c),
(430,633,o),
(407,634,o),
(396,632,c),
(296,554,o),
(177,433,o),
(115,347,cs),
(97,322,l),
(196,237,o),
(326,102,o),
(415,-5,c),
(423,-6,o),
(442,-5,o),
(448,-4,c),
(329,149,o),
(246,226,o),
(128,334,c)
);
}
);
width = 469;
}
);
unicode = 75;
changeCount = 3;
},
{
glyphname = M;
lastChange = "2024-10-04 06:55:24 +0000";
layers = (
{
layerId = "7EBE3D46-E53E-419E-A3EC-596DA2EA1E0D";
name = Regular;
shapes = (
{
closed = 1;
nodes = (
(420,35,o),
(451,75,o),
(459,97,cs),
(562,376,l),
(569,-4,l),
(589,-3,o),
(695,-2,o),
(722,2,c),
(659,596,ls),
(655,637,o),
(627,673,o),
(591,673,cs),
(556,673,o),
(525,659,o),
(507,602,cs),
(375,181,l),
(243,602,ls),
(225,659,o),
(194,673,o),
(159,673,cs),
(123,673,o),
(95,637,o),
(91,596,cs),
(28,2,l),
(55,-1,o),
(151,-4,o),
(181,-4,c),
(191,376,l),
(291,96,ls),
(298,76,o),
(323,37,o),
(370,36,cs)
);
}
);
width = 750;
},
{
layerId = m002;
name = Regular;
shapes = (
{
closed = 1;
nodes = (
(380,114,o),
(388,133,o),
(392,142,cs),
(590,591,l),
(629,1,l),
(638,1,o),
(651,2,o),
(661,4,c),
(618,620,ls),
(617,632,o),
(607,639,o),
(599,639,cs),
(588,639,o),
(579,630,o),
(574,619,cs),
(366,154,l),
(157,619,ls),
(152,630,o),
(143,639,o),
(132,639,cs),
(124,639,o),
(114,632,o),
(113,620,cs),
(70,4,l),
(80,2,o),
(93,1,o),
(102,1,c),
(141,591,l),
(339,142,ls),
(343,133,o),
(352,114,o),
(366,114,cs)
);
}
);
width = 731;
},
{
layerId = m003;
name = Regular;
shapes = (
{
closed = 1;
nodes = (
(409,112,o),
(434,163,o),
(443,190,cs),
(564,536,l),
(569,-4,l),
(609,-8,o),
(695,-6,o),
(722,2,c),
(669,596,ls),
(665,637,o),
(647,673,o),
(601,673,cs),
(556,673,o),
(535,640,o),
(517,592,cs),
(386,232,l),
(233,602,ls),
(217,640,o),
(192,673,o),
(157,673,cs),
(121,673,o),
(96,657,o),
(91,606,cs),
(28,2,l),
(36,0,o),
(70,-6,o),
(81,-4,c),
(127,536,l),
(267,190,ls),
(276,167,o),
(307,112,o),
(355,112,cs)
);
}
);
width = 750;
},
{
layerId = m004;
name = Regular;
shapes = (
{
closed = 1;
nodes = (
(380,114,o),
(388,133,o),
(392,142,cs),
(590,591,l),
(629,1,l),
(638,1,o),
(651,2,o),
(661,4,c),
(618,620,ls),
(617,632,o),
(607,639,o),
(599,639,cs),
(588,639,o),
(579,630,o),
(574,619,cs),
(366,154,l),
(157,619,ls),
(152,630,o),
(143,639,o),
(132,639,cs),
(124,639,o),
(114,632,o),
(113,620,cs),
(70,4,l),
(80,2,o),
(93,1,o),
(102,1,c),
(141,591,l),
(339,142,ls),
(343,133,o),
(352,114,o),
(366,114,cs)
);
}
);
width = 731;
},
{
layerId = m005;
name = Regular;
shapes = (
{
closed = 1;
nodes = (
(278,92,o),
(300,114,o),
(308,140,cs),
(352,286,l),
(339,-4,l),
(359,-3,o),
(465,-2,o),
(492,2,c),
(459,600,ls),
(457,641,o),
(442,673,o),
(406,673,cs),
(371,673,o),
(349,649,o),
(339,612,cs),
(255,311,l),
(165,612,ls),
(156,641,o),
(137,673,o),
(102,673,cs),
(66,673,o),
(54,647,o),
(51,606,cs),
(8,2,l),
(34,-3,o),
(130,-6,o),
(161,-4,c),
(156,286,l),
(202,140,ls),
(210,115,o),
(232,92,o),
(255,92,cs)
);
}
);
width = 500;
},
{
layerId = m006;
name = Regular;
shapes = (
{
closed = 1;
nodes = (
(266,181,o),
(274,190,o),
(278,199,cs),
(430,591,l),
(439,1,l),
(448,1,o),
(461,2,o),
(471,4,c),
(458,620,ls),
(458,632,o),
(444,639,o),
(436,639,cs),
(425,639,o),
(418,630,o),
(414,619,cs),
(256,224,l),
(87,619,ls),
(82,630,o),
(76,639,o),
(65,639,cs),
(57,639,o),
(43,632,o),
(43,620,cs),
(30,4,l),
(40,2,o),
(53,1,o),
(62,1,c),
(71,591,l),
(233,199,ls),
(237,190,o),
(243,181,o),
(256,181,cs)
);
}
);
width = 500;
},
{
layerId = m007;
name = Regular;
shapes = (
{
closed = 1;
nodes = (
(380,114,o),
(388,133,o),
(392,142,cs),
(590,591,l),
(629,1,l),
(638,1,o),
(651,2,o),
(661,4,c),
(618,620,ls),
(617,632,o),
(607,639,o),
(599,639,cs),
(588,639,o),
(579,630,o),
(574,619,cs),
(366,154,l),
(157,619,ls),
(152,630,o),
(143,639,o),
(132,639,cs),
(124,639,o),
(114,632,o),
(113,620,cs),
(70,4,l),
(80,2,o),
(93,1,o),
(102,1,c),
(141,591,l),
(339,142,ls),
(343,133,o),
(352,114,o),
(366,114,cs)
);
}
);
width = 731;
}
);
unicode = 77;
changeCount = 3;
},
{
glyphname = N;
lastChange = "2024-10-04 06:55:24 +0000";
layers = (
{
layerId = "7EBE3D46-E53E-419E-A3EC-596DA2EA1E0D";
name = Regular;
shapes = (
{
closed = 1;
nodes = (
(70,-2,l),
(225,-2,l),
(225,339,l),
(448,36,ls),
(471,4,o),
(511,-17,o),
(538,-9,cs),
(565,-1,o),
(589,23,o),
(589,66,cs),
(589,660,l),
(434,660,l),
(434,319,l),
(218,615,ls),
(197,644,o),
(162,673,o),
(125,668,cs),
(90,663,o),
(72,633,o),
(71,579,c)
);
}
);
width = 659;
},
{
layerId = m002;
name = Regular;
shapes = (
{
closed = 1;
nodes = (
(70,-2,l),
(97,-2,l),
(97,595,l),
(545,22,ls),
(558,6,o),
(565,0,o),
(574,0,cs),
(584,0,o),
(589,10,o),
(589,22,cs),
(589,630,l),
(562,630,l),
(562,46,l),
(127,605,ls),
(115,620,o),
(105,630,o),
(89,630,cs),
(74,630,o),
(70,620,o),
(70,605,cs)
);
}
);
width = 659;
},
{
layerId = m003;
name = Regular;
shapes = (
{
closed = 1;
nodes = (
(70,-2,l),
(135,-2,l),
(135,438,l),
(468,36,ls),
(501,-4,o),
(528,-23,o),
(555,-15,cs),
(582,-7,o),
(589,23,o),
(589,56,cs),
(589,660,l),
(534,660,l),
(534,229,l),
(198,615,l),
(160,658,o),
(136,681,o),
(106,674,cs),
(81,668,o),
(71,643,o),
(71,609,c)
);
}
);
width = 659;
},
{
layerId = m004;
name = Regular;
shapes = (
{
closed = 1;
nodes = (
(70,-2,l),
(97,-2,l),
(97,595,l),
(545,22,ls),
(558,6,o),
(565,0,o),
(574,0,cs),
(584,0,o),
(589,10,o),
(589,22,cs),
(589,630,l),
(562,630,l),
(562,46,l),
(127,605,ls),
(115,620,o),
(108,630,o),
(92,630,cs),
(77,630,o),
(70,620,o),
(70,605,cs)
);
}
);
width = 659;
},
{
layerId = m005;
name = Regular;
shapes = (
{
closed = 1;
nodes = (
(70,-2,l),
(225,-2,l),
(225,289,l),
(338,46,ls),
(361,-3,o),
(385,-9,o),
(412,-9,cs),
(440,-9,o),
(469,23,o),
(469,56,cs),
(469,660,l),
(314,660,l),
(314,376,l),
(198,605,ls),
(173,654,o),
(153,671,o),
(123,671,cs),
(87,671,o),
(71,643,o),
(71,609,c)
);
}
);
width = 500;
},
{
layerId = m006;
name = Regular;
shapes = (
{
closed = 1;
nodes = (
(40,-2,l),
(67,-2,l),
(67,593,l),
(405,22,ls),
(415,5,o),
(422,0,o),
(431,0,cs),
(441,0,o),
(449,10,o),
(449,22,cs),
(449,630,l),
(422,630,l),
(422,46,l),
(97,605,ls),
(88,620,o),
(79,630,o),
(63,630,cs),
(48,630,o),
(40,620,o),
(40,605,cs)
);
}
);
width = 500;
},
{
layerId = m007;
name = Regular;
shapes = (
{
closed = 1;
nodes = (
(70,-2,l),
(97,-2,l),
(97,595,l),
(545,22,ls),
(558,6,o),
(565,0,o),
(574,0,cs),
(584,0,o),
(589,10,o),
(589,22,cs),
(589,630,l),
(562,630,l),
(562,46,l),
(127,605,ls),
(115,620,o),
(105,630,o),
(89,630,cs),
(74,630,o),
(70,620,o),
(70,605,cs)
);
}
);
width = 659;
}
);
unicode = 78;
changeCount = 3;
},
{
glyphname = O;
kernLeft = O;
kernRight = O;
lastChange = "2024-10-04 06:55:24 +0000";
layers = (
{
anchors = (
{
name = tailq;
pos = (458,62);
}
);
layerId = "7EBE3D46-E53E-419E-A3EC-596DA2EA1E0D";
name = Regular;
shapes = (
{
closed = 1;
nodes = (
(38,174,o),
(119,-15,o),
(304,-15,cs),
(474,-15,o),
(575,142,o),
(576,332,c),
(576,519,o),
(479,672,o),
(312,677,c),
(137,678,o),
(41,519,o),
(40,332,cs)
);
},
{
closed = 1;
nodes = (
(165,442,o),
(230,510,o),
(308,512,cs),
(386,510,o),
(451,442,o),
(451,331,cs),
(451,220,o),
(386,152,o),
(308,150,cs),
(230,152,o),
(165,220,o),
(165,331,cs)
);
}
);
width = 616;
},
{
anchors = (
{
name = tailq;
pos = (441,62);
}
);
layerId = m002;
name = Regular;
shapes = (
{
closed = 1;
nodes = (
(53,122,o),
(133,-8,o),
(286,-12,cs),
(453,-12,o),
(530,135,o),
(530,325,cs),
(530,508,o),
(453,642,o),
(286,642,cs),
(133,638,o),
(53,516,o),
(50.105,325.109,c)
);
},
{
closed = 1;
nodes = (
(79,470,o),
(136,600,o),
(290,604,c),
(444,600,o),
(501,470,o),
(503,319,cs),
(501,168,o),
(444,30,o),
(290,26,c),
(136,30,o),
(79,168,o),
(77,319,cs)
);
}
);
width = 580;
},
{
anchors = (
{
name = tailq;
pos = (458,62);
}
);
layerId = m003;
name = Regular;
shapes = (
{
closed = 1;
nodes = (
(37,169,o),
(104,-11,o),
(304,-15,cs),
(485,-15,o),
(575,129,o),
(576,330,c),
(573,573,o),
(510,673,o),
(312,677,cs),
(121,677,o),
(41,529,o),
(40,332,cs)
);
},
{
closed = 1;
nodes = (
(95,473,o),
(180,511,o),
(308,512,cs),
(436,511,o),
(521,473,o),
(521,331,cs),
(521,189,o),
(436,151,o),
(308,150,cs),
(180,151,o),
(95,189,o),
(95,331,cs)
);
}
);
width = 616;
},
{
anchors = (
{
name = tailq;
pos = (441,62);
}
);
layerId = m004;
name = Regular;
shapes = (
{
closed = 1;
nodes = (
(53,122,o),
(133,-8,o),
(286,-12,cs),
(453,-12,o),
(530,135,o),
(530,325,cs),
(530,508,o),
(453,642,o),
(286,642,cs),
(133,638,o),
(53,516,o),
(50.105,325.109,c)
);
},
{
closed = 1;
nodes = (
(79,470,o),
(136,600,o),
(290,604,c),
(444,600,o),
(501,470,o),
(503,319,cs),
(501,168,o),
(444,30,o),
(290,26,c),
(136,30,o),
(79,168,o),
(77,319,cs)
);
}
);
width = 580;
},
{
anchors = (
{
name = tailq;
pos = (398,62);
}
);
layerId = m005;
name = Regular;
shapes = (
{
closed = 1;
nodes = (
(-2,174,o),
(59,-15,o),
(234,-15,cs),
(394,-15,o),
(475,142,o),
(476,332,c),
(476,519,o),
(399,677,o),
(242,677,cs),
(77,677,o),
(1,519,o),
(0,332,cs)
);
},
{
closed = 1;
nodes = (
(125,442,o),
(170,514,o),
(238,512,cs),
(306,510,o),
(351,442,o),
(351,331,cs),
(351,220,o),
(306,153,o),
(238,150,cs),
(170,147,o),
(125,220,o),
(125,331,cs)
);
}
);
width = 500;
},
{
anchors = (
{
name = tailq;
pos = (401,62);
}
);
layerId = m006;
name = Regular;
shapes = (
{
closed = 1;
nodes = (
(3,122,o),
(83,-8,o),
(236,-12,cs),
(403,-12,o),
(480,135,o),
(480,325,cs),
(480,508,o),
(403,642,o),
(236,642,cs),
(83,638,o),
(3,516,o),
(0,325,c)
);
},
{
closed = 1;
nodes = (
(29,470,o),
(86,600,o),
(240,604,c),
(394,600,o),
(451,470,o),
(453,319,cs),
(451,168,o),
(394,30,o),
(240,26,c),
(86,30,o),
(29,168,o),
(27,319,cs)
);
}
);
width = 500;
},
{
anchors = (
{
name = tailq;
pos = (441,62);
}
);
layerId = m007;
name = Regular;
shapes = (
{
closed = 1;
nodes = (
(53,122,o),
(133,-8,o),
(286,-12,cs),
(453,-12,o),
(530,135,o),
(530,325,cs),
(530,508,o),
(453,642,o),
(286,642,cs),
(133,638,o),
(53,516,o),
(50.105,325.109,c)
);
},
{
closed = 1;
nodes = (
(79,470,o),
(136,600,o),
(290,604,c),
(444,600,o),
(501,470,o),
(503,319,cs),
(501,168,o),
(444,30,o),
(290,26,c),
(136,30,o),
(79,168,o),
(77,319,cs)
);
}
);
width = 580;
}
);
unicode = 79;
changeCount = 3;
},
{
glyphname = P;
lastChange = "2024-10-04 06:55:24 +0000";
layers = (
{
layerId = "7EBE3D46-E53E-419E-A3EC-596DA2EA1E0D";
name = Regular;
shapes = (
{
closed = 1;
nodes = (
(70,0,l),
(225,0,l),
(225,201,l),
(244,200,o),
(263,199,o),
(283,200,cs),
(453,208,o),
(522,313,o),
(522,418,cs),
(522,541,o),
(448,675,o),
(254,675,cs),
(157,676,o),
(143,670,o),
(70,661,c)
);
},
{
closed = 1;
nodes = (
(225,521,l),
(235,521,o),
(244,521,o),
(254,521,cs),
(338,521,o),
(398,487,o),
(398,420,cs),
(397,353,o),
(345,322,o),
(254,322,cs),
(244,322,o),
(235,322,o),
(225,322,c)
);
}
);
width = 550;
},
{
layerId = m002;
name = Regular;
shapes = (
{
closed = 1;
nodes = (
(70,0,l),
(97,0,l),
(97,198,l),
(139,196,o),
(201,194,o),
(264,197,cs),
(434,205,o),
(503,302,o),
(503,402,cs),
(503,530,o),
(429,638,o),
(255,638,cs),
(180,639,o),
(109,632,o),
(70,630,c)
);
},
{
closed = 1;
nodes = (
(97,602,l),
(136,606,o),
(204,609,o),
(255,607,cs),
(379,607,o),
(473,527,o),
(473,405,cs),
(473,287,o),
(362,225,o),
(235,225,cs),
(185,223,o),
(131,226,o),
(97,228,c)
);
}
);
width = 542;
},
{
layerId = m003;
name = Regular;
shapes = (
{
closed = 1;
nodes = (
(88,0,l),
(143,0,l),
(143,243,l),
(182,238,o),
(231,237,o),
(281,240,cs),
(441,248,o),
(520,323,o),
(520,428,cs),
(520,551,o),
(446,675,o),
(252,675,cs),
(177,676,o),
(130,663,o),
(90,661,c)
);
},
{
closed = 1;
nodes = (
(143,509,l),
(175,517,o),
(215,522,o),
(252,521,cs),
(336,521,o),
(397,497,o),
(396,430,cs),
(395,353,o),
(333,312,o),
(252,312,cs),
(214,312,o),
(175,310,o),
(143,316,c)
);
}
);
width = 548;
},
{
layerId = m004;
name = Regular;
shapes = (
{
closed = 1;
nodes = (
(70,0,l),
(97,0,l),
(97,198,l),
(139,196,o),
(201,194,o),
(264,197,cs),
(434,205,o),
(503,302,o),
(503,402,cs),
(503,530,o),
(429,638,o),
(255,638,cs),
(180,639,o),
(109,632,o),
(71,630,cs)
);
},
{
closed = 1;
nodes = (
(97,602,l),
(136,606,o),
(204,609,o),
(255,607,cs),
(379,607,o),
(473,527,o),
(473,405,cs),
(473,287,o),
(362,225,o),
(235,225,cs),
(185,223,o),
(131,226,o),
(97,228,c)
);
}
);
width = 542;
},
{
layerId = m005;
name = Regular;
shapes = (
{
closed = 1;
nodes = (
(40,0,l),
(195,0,l),
(195,201,l),
(214,200,o),
(233,199,o),
(253,200,cs),
(383,208,o),
(452,313,o),
(452,418,cs),
(452,541,o),
(378,675,o),
(224,675,cs),
(127,675,o),
(113,670,o),
(40,661,c)
);
},
{
closed = 1;
nodes = (
(195,521,l),
(205,521,o),
(214,521,o),
(224,521,cs),
(268,521,o),
(328,487,o),
(328,420,cs),
(327,353,o),
(275,322,o),
(224,322,cs),
(214,322,o),
(205,322,o),
(195,322,c)
);
}
);
width = 500;
},
{
layerId = m006;
name = Regular;
shapes = (
{
closed = 1;
nodes = (
(100,0,l),
(127,0,l),
(127,198,l),
(169,196,o),
(191,193,o),
(254,197,cs),
(374,205,o),
(443,302,o),
(443,402,cs),
(443,530,o),
(349,633,o),
(225,633,cs),
(150,633,o),
(139,632,o),
(100,630,c)
);
},
{
closed = 1;
nodes = (
(127,602,l),
(166,606,o),
(170,607,o),
(225,605,cs),
(323,602,o),
(413,527,o),
(413,405,cs),
(413,287,o),
(302,225,o),
(225,225,cs),
(175,225,o),
(161,226,o),
(127,228,c)
);
}
);
width = 500;
},
{
layerId = m007;
name = Regular;
shapes = (
{
closed = 1;
nodes = (
(70,0,l),
(97,0,l),
(97,198,l),
(139,196,o),
(201,194,o),
(264,197,cs),
(434,205,o),
(503,302,o),
(503,402,cs),
(503,530,o),
(429,638,o),
(255,638,cs),
(180,639,o),
(109,632,o),
(70,630,c)
);
},
{
closed = 1;
nodes = (
(97,602,l),
(136,606,o),
(204,609,o),
(255,607,cs),
(379,607,o),
(473,527,o),
(473,405,cs),
(473,287,o),
(362,225,o),
(235,225,cs),
(185,223,o),
(131,226,o),
(97,228,c)
);
}
);
width = 542;
}
);
unicode = 80;
changeCount = 3;
},
{
glyphname = Thorn;
lastChange = "2024-10-04 06:55:24 +0000";
layers = (
{
layerId = "7EBE3D46-E53E-419E-A3EC-596DA2EA1E0D";
name = Regular;
shapes = (
{
closed = 1;
nodes = (
(60,-1,l),
(215,-1,l),
(215,122,l),
(265,122,ls),
(450,122,o),
(474,294,o),
(472,358,cs),
(469,471,o),
(399,572,o),
(264,572,cs),
(215,572,l),
(215,659,l),
(60,659,l)
);
},
{
closed = 1;
nodes = (
(215,450,l),
(217,450,ls),
(301,450,o),
(319,410,o),
(319,348,cs),
(319,280,o),
(302,244,o),
(218,244,cs),
(215,244,l)
);
}
);
width = 533;
},
{
layerId = m002;
name = Regular;
shapes = (
{
closed = 1;
nodes = (
(59,-1,l),
(86,-1,l),
(86,196,l),
(315,195,ls),
(365,195,o),
(456,208,o),
(456,328,cs),
(456,411,o),
(409,465,o),
(314,465,cs),
(86,464,l),
(86,629,l),
(59,629,l)
);
},
{
closed = 1;
nodes = (
(86,433,l),
(315,433,ls),
(403,433,o),
(428,404,o),
(428,331,cs),
(428,274,o),
(396,227,o),
(316,227,cs),
(86,227,l)
);
}
);
width = 476;
},
{
layerId = m003;
name = Regular;
shapes = (
{
closed = 1;
nodes = (
(140,-1,l),
(195,-1,l),
(195,123,l),
(335,122,ls),
(475,121,o),
(524,225,o),
(524,345,cs),
(524,472,o),
(471,573,o),
(334,572,cs),
(195,571,l),
(195,659,l),
(140,659,l)
);
},
{
closed = 1;
nodes = (
(195,450,l),
(317,450,ls),
(393,450,o),
(467,426,o),
(467,344,cs),
(467,267,o),
(392,244,o),
(318,244,cs),
(195,244,l)
);
}
);
width = 563;
},
{
layerId = m004;
name = Regular;
shapes = (
{
closed = 1;
nodes = (
(59,-1,l),
(86,-1,l),
(86,196,l),
(315,195,ls),
(365,195,o),
(456,208,o),
(456,328,cs),
(456,411,o),
(409,465,o),
(314,465,cs),
(86,464,l),
(86,629,l),
(59,629,l)
);
},
{
closed = 1;
nodes = (
(86,433,l),
(315,433,ls),
(403,433,o),
(428,404,o),
(428,331,cs),
(428,274,o),
(396,227,o),
(316,227,cs),
(86,227,l)
);
}
);
width = 476;
},
{
layerId = m005;
name = Regular;
shapes = (
{
closed = 1;
nodes = (
(60,-1,l),
(215,-1,l),
(215,122,l),
(265,122,ls),
(405,122,o),
(473,225,o),
(473,345,cs),
(473,460,o),
(410,572,o),
(264,572,cs),
(215,572,l),
(215,659,l),
(60,659,l)
);
},
{
closed = 1;
nodes = (
(215,450,l),
(217,450,ls),
(312,450,o),
(320,411,o),
(320,353,cs),
(320,290,o),
(298,244,o),
(218,244,cs),
(215,244,l)
);
}
);
width = 500;
},
{
layerId = m006;
name = Regular;
shapes = (
{
closed = 1;
nodes = (
(59,-1,l),
(86,-1,l),
(86,196,l),
(315,195,ls),
(365,195,o),
(456,208,o),
(456,328,cs),
(456,411,o),
(409,465,o),
(314,465,cs),
(86,464,l),
(86,629,l),
(59,629,l)
);
},
{
closed = 1;
nodes = (
(86,433,l),
(315,433,ls),
(403,433,o),
(428,404,o),
(428,331,cs),
(428,274,o),
(396,227,o),
(316,227,cs),
(86,227,l)
);
}
);
width = 500;
},
{
layerId = m007;
name = Regular;
shapes = (
{
closed = 1;
nodes = (
(59,-1,l),
(86,-1,l),
(86,196,l),
(315,195,ls),
(365,195,o),
(456,208,o),
(456,328,cs),
(456,411,o),
(409,465,o),
(314,465,cs),
(86,464,l),
(86,629,l),
(59,629,l)
);
},
{
closed = 1;
nodes = (
(86,433,l),
(315,433,ls),
(403,433,o),
(428,404,o),
(428,331,cs),
(428,274,o),
(396,227,o),
(316,227,cs),
(86,227,l)
);
}
);
width = 476;
}
);
unicode = 222;
changeCount = 3;
},
{
glyphname = Q;
lastChange = "2024-10-04 06:55:24 +0000";
layers = (
{
layerId = "7EBE3D46-E53E-419E-A3EC-596DA2EA1E0D";
name = Regular;
shapes = (
{
closed = 1;
nodes = (
(629,-53,l),
(623,119,l),
(300,136,l),
(310,-13,l)
);
},
{
ref = O;
}
);
width = 629;
},
{
layerId = m002;
name = Regular;
shapes = (
{
closed = 1;
nodes = (
(567,-75,l),
(573,-30,l),
(248,14,l),
(244,-8,l)
);
},
{
pos = (-10,0);
ref = O;
}
);
width = 617;
},
{
layerId = m003;
name = Regular;
shapes = (
{
closed = 1;
nodes = (
(629,-53,l),
(623,119,l),
(300,136,l),
(310,-13,l)
);
},
{
ref = O;
}
);
width = 629;
},
{
layerId = m004;
name = Regular;
shapes = (
{
closed = 1;
nodes = (
(567,-75,l),
(573,-30,l),
(248,14,l),
(244,-8,l)
);
},
{
pos = (-10,0);
ref = O;
}
);
width = 617;
},
{
layerId = m005;
name = Regular;
shapes = (
{
closed = 1;
nodes = (
(489,-51,l),
(483,121,l),
(210,138,l),
(220,-11,l)
);
},
{
ref = O;
}
);
width = 500;
},
{
layerId = m006;
name = Regular;
shapes = (
{
closed = 1;
nodes = (
(567,-75,l),
(573,-30,l),
(248,14,l),
(244,-8,l)
);
},
{
pos = (-10,0);
ref = O;
}
);
width = 500;
},
{
layerId = m007;
name = Regular;
shapes = (
{
closed = 1;
nodes = (
(567,-75,l),
(573,-30,l),
(248,14,l),
(244,-8,l)
);
},
{
pos = (-10,0);
ref = O;
}
);
width = 617;
}
);
unicode = 81;
changeCount = 3;
},
{
glyphname = R;
lastChange = "2024-10-04 06:55:24 +0000";
layers = (
{
layerId = "7EBE3D46-E53E-419E-A3EC-596DA2EA1E0D";
name = Regular;
shapes = (
{
closed = 1;
nodes = (
(70,0,l),
(225,0,l),
(225,219.985,l),
(233,220,o),
(241,220,o),
(249,220,c),
(300,118,o),
(331,62,o),
(375,-7,c),
(425,-11,o),
(508,-5,o),
(545,2,c),
(481,88,o),
(438,152,o),
(384,240,c),
(467,274,o),
(522,343,o),
(522,418,cs),
(522,541,o),
(448,675,o),
(254,675,cs),
(176,676,o),
(113,670,o),
(70,661,c)
);
},
{
closed = 1;
nodes = (
(225,521,l),
(231,521,o),
(238,521,o),
(244,521,cs),
(308,521,o),
(368,487,o),
(368,420,cs),
(367,353,o),
(315,322,o),
(244,322,cs),
(238,322,o),
(231,322,o),
(225,322,c)
);
}
);
width = 565;
},
{
layerId = m002;
name = Regular;
shapes = (
{
closed = 1;
nodes = (
(70,0,l),
(97,0,l),
(97,268,l),
(137,266,o),
(197,264,o),
(259,267,c),
(311,196,o),
(456,19,o),
(480,-6,c),
(493,-5,o),
(506,-3,o),
(519,0,c),
(490,29,o),
(339,202,o),
(291,269,c),
(444,282,o),
(507,356,o),
(507,442,cs),
(507,570,o),
(433,638,o),
(259,638,cs),
(194,639,o),
(131,634,o),
(70,631,c)
);
},
{
closed = 1;
nodes = (
(97,601.993,l),
(136,606,o),
(206,609,o),
(259,607,cs),
(383,607,o),
(477,567,o),
(477,445,cs),
(477,337,o),
(366,295,o),
(239,295,cs),
(186,293,o),
(131,296,o),
(97,299,c)
);
}
);
width = 579;
},
{
layerId = m003;
name = Regular;
shapes = (
{
closed = 1;
nodes = (
(78,0,l),
(133,0,l),
(133,244,l),
(162,243,o),
(197,241,o),
(236,240,c),
(275,135,o),
(316,63,o),
(363,-10,c),
(413,-14,o),
(477,-8,o),
(533,10,c),
(448,100,o),
(394,151,o),
(328,243,c),
(424,254,o),
(510,306,o),
(510,443,cs),
(510,583,o),
(406,671,o),
(264,671,cs),
(167,672,o),
(117,664,o),
(77,660,c)
);
},
{
closed = 1;
nodes = (
(133,512,l),
(187,517,o),
(266,522,o),
(310,521,cs),
(394,521,o),
(453,469,o),
(453,402,cs),
(452,335,o),
(381,292,o),
(310,292,cs),
(266,292,o),
(187,291,o),
(133,290,c)
);
}
);
width = 573;
},
{
layerId = m004;
name = Regular;
shapes = (
{
closed = 1;
nodes = (
(70,0,l),
(97,0,l),
(97,268,l),
(137,266,o),
(197,264,o),
(259,267,c),
(311,196,o),
(456,19,o),
(480,-6,c),
(493,-5,o),
(506,-3,o),
(519,0,c),
(490,29,o),
(339,202,o),
(291,269,c),
(444,282,o),
(507,356,o),
(507,442,cs),
(507,570,o),
(433,638,o),
(259,638,cs),
(194,639,o),
(131,634,o),
(70,631,c)
);
},
{
closed = 1;
nodes = (
(97,601.993,l),
(136,606,o),
(206,609,o),
(259,607,cs),
(383,607,o),
(477,567,o),
(477,445,cs),
(477,337,o),
(366,295,o),
(239,295,cs),
(186,293,o),
(131,296,o),
(97,299,c)
);
}
);
width = 579;
},
{
layerId = m005;
name = Regular;
shapes = (
{
closed = 1;
nodes = (
(30,0,l),
(185,0,l),
(185,220.037,l),
(190,220,o),
(194,220,o),
(199,220,c),
(230,118,o),
(261,62,o),
(305,-7,c),
(356,-10,o),
(439,-4,o),
(475,2,c),
(411,88,o),
(368,152,o),
(314,240,c),
(397,274,o),
(452,343,o),
(452,418,cs),
(452,541,o),
(378,675,o),
(204,675,cs),
(129,675,o),
(71,668,o),
(30,661,c)
);
},
{
closed = 1;
nodes = (
(185,521,l),
(194,521,o),
(204,521,o),
(214,521,cs),
(258,521,o),
(308,487,o),
(308,420,cs),
(307,353,o),
(265,322,o),
(214,322,cs),
(203,322,o),
(194,322,o),
(185,322,c)
);
}
);
width = 500;
},
{
layerId = m006;
name = Regular;
shapes = (
{
closed = 1;
nodes = (
(70,0,l),
(97,0,l),
(97,268,l),
(137,266,o),
(197,264,o),
(259,267,c),
(311,196,o),
(456,19,o),
(480,-6,c),
(493,-5,o),
(506,-3,o),
(519,0,c),
(490,29,o),
(339,202,o),
(291,269,c),
(444,282,o),
(507,356,o),
(507,442,cs),
(507,570,o),
(433,638,o),
(259,638,cs),
(194,639,o),
(131,634,o),
(70,631,c)
);
},
{
closed = 1;
nodes = (
(97,601.993,l),
(136,606,o),
(206,609,o),
(259,607,cs),
(383,607,o),
(477,567,o),
(477,445,cs),
(477,337,o),
(366,295,o),
(239,295,cs),
(186,293,o),
(131,296,o),
(97,299,c)
);
}
);
width = 500;
},
{
layerId = m007;
name = Regular;
shapes = (
{
closed = 1;
nodes = (
(70,0,l),
(97,0,l),
(97,268,l),
(137,266,o),
(197,264,o),
(259,267,c),
(311,196,o),
(456,19,o),
(480,-6,c),
(493,-5,o),
(506,-3,o),
(519,0,c),
(490,29,o),
(339,202,o),
(291,269,c),
(444,282,o),
(507,356,o),
(507,442,cs),
(507,570,o),
(433,638,o),
(259,638,cs),
(194,639,o),
(131,634,o),
(70,631,c)
);
},
{
closed = 1;
nodes = (
(97,601.993,l),
(136,606,o),
(206,609,o),
(259,607,cs),
(383,607,o),
(477,567,o),
(477,445,cs),
(477,337,o),
(366,295,o),
(239,295,cs),
(186,293,o),
(131,296,o),
(97,299,c)
);
}
);
width = 579;
}
);
unicode = 82;
changeCount = 3;
},
{
glyphname = S;
lastChange = "2024-10-04 06:55:24 +0000";
layers = (
{
layerId = "7EBE3D46-E53E-419E-A3EC-596DA2EA1E0D";
name = Regular;
shapes = (
{
closed = 1;
nodes = (
(246,410,o),
(221,428,o),
(221,470,c),
(221,505,o),
(259,515,o),
(305,514,cs),
(367,513,o),
(438,489,o),
(484,465,c),
(497,519,o),
(507,574,o),
(511,632,c),
(436,657,o),
(363,670,o),
(292,670,cs),
(130,670,o),
(63,602,o),
(63,501,cs),
(63,361,o),
(153,316,o),
(261,296,cs),
(358,278,o),
(381,246,o),
(381,212,cs),
(381,171,o),
(346,156,o),
(279,156,cs),
(217,156,o),
(136,175,o),
(88,199,c),
(65,141,o),
(54,83,o),
(50,27,c),
(124,2,o),
(243,-10,o),
(314,-10,cs),
(434,-10,o),
(542,62,o),
(542,179,cs),
(542,331,o),
(423,369,o),
(337,389,cs)
);
}
);
width = 592;
},
{
layerId = m002;
name = Regular;
shapes = (
{
closed = 1;
nodes = (
(167,385,o),
(100,412,o),
(100,495,cs),
(100,593,o),
(225,607,o),
(315,597,cs),
(352,593,o),
(403,585,o),
(436,574,c),
(438,587,o),
(440,600,o),
(442,613,c),
(389,627,o),
(329,634,o),
(278,634,cs),
(150,634,o),
(66,593,o),
(66,492,cs),
(66,403,o),
(118,353,o),
(286,312,cs),
(414,281,o),
(444,248,o),
(444,168,cs),
(444,72,o),
(349,31,o),
(266,31,cs),
(200,31,o),
(123,44,o),
(76,66,c),
(73,55,o),
(69,43,o),
(66,32,c),
(140,7,o),
(167,0,o),
(270,0,cs),
(381,0,o),
(481,53,o),
(481,167,cs),
(481,260,o),
(442,316,o),
(290,354,cs)
);
}
);
width = 547;
},
{
layerId = m003;
name = Regular;
shapes = (
{
closed = 1;
nodes = (
(219,378,o),
(171,423,o),
(171,456,c),
(171,499,o),
(219,515,o),
(285,514,cs),
(347,513,o),
(438,489,o),
(484,465,c),
(497,519,o),
(507,574,o),
(511,632,c),
(436,657,o),
(363,670,o),
(292,670,cs),
(130,670,o),
(63,602,o),
(63,501,cs),
(63,391,o),
(164,341,o),
(261,306,cs),
(355,272,o),
(431,257,o),
(431,203,cs),
(431,152,o),
(346,156,o),
(279,156,cs),
(217,156,o),
(136,175,o),
(88,199,c),
(65,141,o),
(54,83,o),
(50,27,c),
(124,2,o),
(243,-10,o),
(314,-10,cs),
(434,-10,o),
(542,42,o),
(542,159,cs),
(542,261,o),
(437,315,o),
(344,342,cs)
);
}
);
width = 592;
},
{
layerId = m004;
name = Regular;
shapes = (
{
closed = 1;
nodes = (
(167,385,o),
(100,412,o),
(100,495,cs),
(100,593,o),
(225,607,o),
(315,597,cs),
(352,593,o),
(403,585,o),
(436,574,c),
(438,587,o),
(440,600,o),
(442,613,c),
(389,627,o),
(329,634,o),
(278,634,cs),
(150,634,o),
(66,593,o),
(66,492,cs),
(66,403,o),
(118,353,o),
(286,312,cs),
(414,281,o),
(444,248,o),
(444,168,cs),
(444,72,o),
(349,31,o),
(266,31,cs),
(200,31,o),
(123,44,o),
(76,66,c),
(73,55,o),
(69,43,o),
(66,32,c),
(140,7,o),
(167,0,o),
(270,0,cs),
(381,0,o),
(481,53,o),
(481,167,cs),
(481,260,o),
(442,316,o),
(290,354,cs)
);
}
);
width = 547;
},
{
layerId = m005;
name = Regular;
shapes = (
{
closed = 1;
nodes = (
(242,398,o),
(211,417,o),
(211,459,c),
(211,494,o),
(229,515,o),
(275,514,cs),
(307,513,o),
(378,489,o),
(424,465,c),
(437,519,o),
(447,574,o),
(451,632,c),
(376,657,o),
(303,670,o),
(262,670,cs),
(120,670,o),
(53,602,o),
(53,501,cs),
(53,361,o),
(148,328,o),
(221,306,cs),
(297,283,o),
(321,260,o),
(321,216,cs),
(321,175,o),
(286,156,o),
(249,156,cs),
(207,156,o),
(126,175,o),
(78,199,c),
(55,141,o),
(44,83,o),
(40,27,c),
(114,2,o),
(183,-10,o),
(254,-10,cs),
(364,-10,o),
(482,62,o),
(482,179,cs),
(482,319,o),
(382,365,o),
(276,390,cs)
);
}
);
width = 500;
},
{
layerId = m006;
name = Regular;
shapes = (
{
closed = 1;
nodes = (
(147,385,o),
(80,412,o),
(80,495,cs),
(80,593,o),
(205,607,o),
(295,597,cs),
(332,593,o),
(383,585,o),
(416,574,c),
(418,587,o),
(420,600,o),
(422,613,c),
(369,627,o),
(309,634,o),
(258,634,cs),
(130,634,o),
(46,593,o),
(46,492,cs),
(46,403,o),
(98,353,o),
(266,312,cs),
(394,281,o),
(424,248,o),
(424,168,cs),
(424,72,o),
(329,31,o),
(246,31,cs),
(180,31,o),
(103,44,o),
(56,66,c),
(53,55,o),
(49,43,o),
(46,32,c),
(120,7,o),
(147,0,o),
(250,0,cs),
(361,0,o),
(461,53,o),
(461,167,cs),
(461,260,o),
(422,316,o),
(270,354,cs)
);
}
);
width = 500;
},
{
layerId = m007;
name = Regular;
shapes = (
{
closed = 1;
nodes = (
(167,385,o),
(100,412,o),
(100,495,cs),
(100,593,o),
(225,607,o),
(315,597,cs),
(352,593,o),
(403,585,o),
(436,574,c),
(438,587,o),
(440,600,o),
(442,613,c),
(389,627,o),
(329,634,o),
(278,634,cs),
(150,634,o),
(66,593,o),
(66,492,cs),
(66,403,o),
(118,353,o),
(286,312,cs),
(414,281,o),
(444,248,o),
(444,168,cs),
(444,72,o),
(349,31,o),
(266,31,cs),
(200,31,o),
(123,44,o),
(76,66,c),
(73,55,o),
(69,43,o),
(66,32,c),
(140,7,o),
(167,0,o),
(270,0,cs),
(381,0,o),
(481,53,o),
(481,167,cs),
(481,260,o),
(442,316,o),
(290,354,cs)
);
}
);
width = 547;
}
);
unicode = 83;
changeCount = 3;
},
{
glyphname = Germandbls;
lastChange = "2024-10-04 06:55:24 +0000";
layers = (
{
layerId = "7EBE3D46-E53E-419E-A3EC-596DA2EA1E0D";
shapes = (
{
closed = 1;
nodes = (
(541,313,o),
(408,307,o),
(408,332,c),
(408,363,o),
(541,350,o),
(541,487,c),
(541,600,o),
(429,677,o),
(295,677,c),
(164,677,o),
(60,585,o),
(60,430,c),
(60,3,l),
(180,3,l),
(180,376,l),
(180,464,o),
(190,508,o),
(287,508,c),
(350,508,o),
(377,469,o),
(377,437,c),
(377,358,o),
(257,404,o),
(257,329,c),
(257,273,o),
(408,274,o),
(408,209,cs),
(408,162,o),
(379,141,o),
(328,138,c),
(295,138,o),
(283,139,o),
(244,145,c),
(243,5,l),
(258,2,o),
(300,-6,o),
(343,-6,c),
(487,-6,o),
(541,95,o),
(541,177,c)
);
}
);
width = 601;
},
{
layerId = m002;
shapes = (
{
closed = 1;
nodes = (
(526,285,o),
(369,287,o),
(369,311,c),
(369,341,o),
(526,332,o),
(526,462,c),
(526,569,o),
(420,642,o),
(293,642,c),
(139,642,o),
(70,535,o),
(70,368,c),
(70,3,l),
(99,3,l),
(99,348,l),
(99,520,o),
(151,615,o),
(297,615,c),
(373,609,o),
(498,579,o),
(498,462,c),
(498,337,o),
(266,354,o),
(266,312,c),
(266,258,o),
(498,297,o),
(498,155,cs),
(498,40,o),
(383,30,o),
(334,28,c),
(303,28,o),
(282,33,o),
(245,38,c),
(243,4,l),
(258,1,o),
(298,-6,o),
(338,-6,c),
(475,-6,o),
(526,65,o),
(526,155,c)
);
}
);
width = 592;
},
{
layerId = m003;
shapes = (
{
closed = 1;
nodes = (
(521,313,o),
(358,302,o),
(308,327,c),
(358,342,o),
(521,350,o),
(521,487,c),
(521,600,o),
(409,677,o),
(275,677,c),
(144,677,o),
(40,585,o),
(40,430,c),
(40,3,l),
(160,3,l),
(160,376,l),
(160,464,o),
(170,508,o),
(267,508,c),
(330,508,o),
(357,469,o),
(357,437,c),
(357,338,o),
(237,354,o),
(237,329,c),
(237,303,o),
(388,294,o),
(388,212,cs),
(388,162,o),
(359,141,o),
(308,138,c),
(275,138,o),
(263,139,o),
(224,145,c),
(223,5,l),
(238,2,o),
(280,-6,o),
(323,-6,c),
(467,-6,o),
(521,95,o),
(521,177,c)
);
}
);
width = 551;
},
{
layerId = m004;
shapes = (
{
closed = 1;
nodes = (
(506,285,o),
(349,287,o),
(349,311,c),
(349,341,o),
(506,332,o),
(506,462,c),
(506,569,o),
(400,642,o),
(273,642,c),
(119,642,o),
(50,535,o),
(50,368,c),
(50,3,l),
(79,3,l),
(79,348,l),
(79,520,o),
(131,615,o),
(277,615,c),
(353,609,o),
(478,579,o),
(478,462,c),
(478,337,o),
(246,354,o),
(246,312,c),
(246,258,o),
(478,297,o),
(478,155,cs),
(478,40,o),
(363,30,o),
(314,28,c),
(283,28,o),
(262,33,o),
(225,38,c),
(223,4,l),
(238,1,o),
(278,-6,o),
(318,-6,c),
(455,-6,o),
(506,65,o),
(506,155,c)
);
}
);
width = 572;
},
{
layerId = m005;
shapes = (
{
closed = 1;
nodes = (
(471,313,o),
(338,307,o),
(338,332,c),
(338,363,o),
(471,350,o),
(471,487,c),
(471,600,o),
(359,677,o),
(245,677,c),
(114,677,o),
(30,585,o),
(30,430,c),
(30,3,l),
(150,3,l),
(150,376,l),
(150,464,o),
(140,508,o),
(237,508,c),
(280,508,o),
(307,469,o),
(307,437,c),
(307,358,o),
(207,404,o),
(207,329,c),
(207,273,o),
(338,274,o),
(338,209,cs),
(338,162,o),
(309,141,o),
(278,138,c),
(245,138,o),
(233,139,o),
(194,145,c),
(193,5,l),
(208,2,o),
(250,-6,o),
(293,-6,c),
(417,-6,o),
(471,95,o),
(471,177,c)
);
}
);
width = 500;
},
{
layerId = m006;
shapes = (
{
closed = 1;
nodes = (
(436,285,o),
(279,287,o),
(279,311,c),
(279,341,o),
(436,332,o),
(436,462,c),
(436,569,o),
(330,642,o),
(233,642,c),
(99,642,o),
(50,535,o),
(50,368,c),
(50,3,l),
(79,3,l),
(79,348,l),
(79,520,o),
(111,615,o),
(237,615,cs),
(283,615,o),
(408,579,o),
(408,462,c),
(408,337,o),
(176,354,o),
(176,312,c),
(176,258,o),
(408,297,o),
(408,155,cs),
(408,40,o),
(293,30,o),
(244,28,c),
(213,28,o),
(222,33,o),
(185,38,c),
(183,4,l),
(198,1,o),
(208,-6,o),
(248,-6,c),
(385,-6,o),
(436,65,o),
(436,155,c)
);
}
);
width = 500;
},
{
layerId = m007;
shapes = (
{
closed = 1;
nodes = (
(526,285,o),
(369,287,o),
(369,311,c),
(369,341,o),
(526,332,o),
(526,462,c),
(526,569,o),
(420,642,o),
(293,642,c),
(139,642,o),
(70,535,o),
(70,368,c),
(70,3,l),
(99,3,l),
(99,348,l),
(99,520,o),
(151,615,o),
(297,615,c),
(373,609,o),
(498,579,o),
(498,462,c),
(498,337,o),
(266,354,o),
(266,312,c),
(266,258,o),
(498,297,o),
(498,155,cs),
(498,40,o),
(383,30,o),
(334,28,c),
(303,28,o),
(282,33,o),
(245,38,c),
(243,4,l),
(258,1,o),
(298,-6,o),
(338,-6,c),
(475,-6,o),
(526,65,o),
(526,155,c)
);
}
);
width = 592;
}
);
metricRight = S;
unicode = 7838;
changeCount = 3;
},
{
glyphname = U;
lastChange = "2024-10-04 06:55:24 +0000";
layers = (
{
layerId = "7EBE3D46-E53E-419E-A3EC-596DA2EA1E0D";
name = Regular;
shapes = (
{
closed = 1;
nodes = (
(461,317,ls),
(461,206,o),
(408,148,o),
(340,146,cs),
(272,148,o),
(226,206,o),
(225,317,c),
(225,661,l),
(70,661,l),
(70,317,l),
(71,130,o),
(179,-14,o),
(336,-19,cs),
(505,-19,o),
(614,136,o),
(614.99,315,c),
(616,661,l),
(461,661,l)
);
}
);
width = 686;
},
{
layerId = m002;
name = Regular;
shapes = (
{
closed = 1;
nodes = (
(523,309,ls),
(523,155,o),
(466,32,o),
(310,29,cs),
(154,32,o),
(97,155,o),
(97,309,cs),
(97,631,l),
(70,631,l),
(70,297,ls),
(73,106,o),
(152,-5,o),
(306,-9,c),
(467,-5,o),
(546,105,o),
(550,295,cs),
(550,631,l),
(523,631,l)
);
}
);
width = 620;
},
{
layerId = m003;
name = Regular;
shapes = (
{
closed = 1;
nodes = (
(491,327,ls),
(491,215,o),
(418,157,o),
(300,156,cs),
(192,157,o),
(125,215,o),
(125,327,cs),
(125,661,l),
(70,661,l),
(70,317,ls),
(73,135,o),
(143,-4,o),
(296,-9,cs),
(452,-9,o),
(541,132,o),
(545,315,c),
(546,661,l),
(491,661,l)
);
}
);
width = 616;
},
{
layerId = m004;
name = Regular;
shapes = (
{
closed = 1;
nodes = (
(523,309,ls),
(523,155,o),
(466,32,o),
(310,29,cs),
(154,32,o),
(97,155,o),
(97,309,cs),
(97,631,l),
(70,631,l),
(70,297,ls),
(73,106,o),
(152,-5,o),
(306,-9,cs),
(469,-9,o),
(546,112,o),
(550,295,cs),
(550,631,l),
(523,631,l)
);
}
);
width = 620;
},
{
layerId = m005;
name = Regular;
shapes = (
{
closed = 1;
nodes = (
(320,297,ls),
(320,206,o),
(315,148,o),
(249,146,cs),
(183,148,o),
(175,206,o),
(175,297,cs),
(175,661,l),
(20,661,l),
(20,297,ls),
(20,110,o),
(89,-15,o),
(245,-19,cs),
(408,-23,o),
(473,109,o),
(473.994,295,c),
(475,661,l),
(320,661,l)
);
}
);
width = 500;
},
{
layerId = m006;
name = Regular;
shapes = (
{
closed = 1;
nodes = (
(443,309,ls),
(443,155,o),
(406,32,o),
(250,29,cs),
(94,32,o),
(57,155,o),
(57,309,cs),
(57,631,l),
(30,631,l),
(30,297,ls),
(32,106,o),
(93,-5,o),
(246,-9,cs),
(409,-9,o),
(467,112,o),
(470,295,cs),
(470,631,l),
(443,631,l)
);
}
);
width = 500;
},
{
layerId = m007;
name = Regular;
shapes = (
{
closed = 1;
nodes = (
(523,309,ls),
(523,155,o),
(466,32,o),
(310,29,cs),
(154,32,o),
(97,155,o),
(97,309,cs),
(97,631,l),
(70,631,l),
(70,297,ls),
(73,106,o),
(152,-5,o),
(306,-9,c),
(467,-5,o),
(546,105,o),
(550,295,cs),
(550,631,l),
(523,631,l)
);
}
);
width = 620;
}
);
unicode = 85;
changeCount = 3;
},
{
glyphname = V;
kernLeft = V;
kernRight = V;
lastChange = "2024-10-04 06:55:24 +0000";
layers = (
{
layerId = "7EBE3D46-E53E-419E-A3EC-596DA2EA1E0D";
name = Regular;
shapes = (
{
closed = 1;
nodes = (
(358,-10,o),
(399,12,o),
(419,73,cs),
(610,653,l),
(554,661,o),
(497,663,o),
(440,663,c),
(334,191,ls),
(331,179,o),
(325,153,o),
(318,125,c),
(311,153,o),
(305,179,o),
(302,191,cs),
(200,663,l),
(143,663,o),
(77,659,o),
(30,653,c),
(214,73,ls),
(233,12,o),
(274,-12,o),
(316,-11,cs)
);
}
);
width = 640;
},
{
layerId = m002;
name = Regular;
shapes = (
{
closed = 1;
nodes = (
(325,-6,o),
(330,4,o),
(334,15,cs),
(580,631,l),
(566,635,o),
(566,638,o),
(549,638,c),
(316,45,ls),
(313,38,o),
(312,33,o),
(310,30,c),
(308,33,o),
(307,38,o),
(304,45,cs),
(71,638,l),
(54,638,o),
(54,635,o),
(40,631,c),
(286,15,ls),
(290,4,o),
(299,-6,o),
(310,-6,c)
);
}
);
width = 620;
},
{
layerId = m003;
name = Regular;
shapes = (
{
closed = 1;
nodes = (
(360,-12,o),
(395,33,o),
(409,75,cs),
(610,660,l),
(595,664,o),
(575,666,o),
(560,665,c),
(389,178,ls),
(382,159,o),
(378,140,o),
(371,112,c),
(364,140,o),
(359,166,o),
(355,178,cs),
(200,665,l),
(143,665,o),
(87,668,o),
(30,655,c),
(231,75,ls),
(246,33,o),
(280,-12,o),
(320,-12,cs)
);
}
);
width = 640;
},
{
layerId = m004;
name = Regular;
shapes = (
{
closed = 1;
nodes = (
(321,-6,o),
(330,4,o),
(334,15,cs),
(580,631,l),
(566,635,o),
(566,638,o),
(549,638,c),
(316,45,ls),
(313,38,o),
(312,33,o),
(310,30,c),
(308,33,o),
(307,38,o),
(304,45,cs),
(71,638,l),
(54,638,o),
(54,635,o),
(40,631,c),
(286,15,ls),
(290,4,o),
(301,-6,o),
(310,-6,cs)
);
}
);
width = 620;
},
{
layerId = m005;
name = Regular;
shapes = (
{
closed = 1;
nodes = (
(292,-11,o),
(318,23,o),
(329,65,cs),
(480,655,l),
(424,663,o),
(367,665,o),
(310,665,c),
(264,311,ls),
(262,299,o),
(257,273,o),
(250,245,c),
(243,273,o),
(238,299,o),
(236,311,cs),
(190,665,l),
(133,665,o),
(67,661,o),
(20,655,c),
(171,65,ls),
(182,23,o),
(200,-11,o),
(250,-11,cs)
);
}
);
width = 500;
},
{
layerId = m006;
name = Regular;
shapes = (
{
closed = 1;
nodes = (
(255,-6,o),
(260,4,o),
(264,15,cs),
(470,631,l),
(456,635,o),
(456,634,o),
(439,634,c),
(246,45,ls),
(244,38,o),
(242,33,o),
(240,30,c),
(238,33,o),
(236,38,o),
(234,45,cs),
(41,634,l),
(24,634,o),
(24,635,o),
(10,631,c),
(216,15,ls),
(220,4,o),
(229,-6,o),
(240,-6,c)
);
}
);
width = 500;
},
{
layerId = m007;
name = Regular;
shapes = (
{
closed = 1;
nodes = (
(325,-6,o),
(330,4,o),
(334,15,cs),
(580,631,l),
(566,635,o),
(566,638,o),
(549,638,c),
(316,45,ls),
(313,38,o),
(312,33,o),
(310,30,c),
(308,33,o),
(307,38,o),
(304,45,cs),
(71,638,l),
(54,638,o),
(54,635,o),
(40,631,c),
(286,15,ls),
(290,4,o),
(299,-6,o),
(310,-6,c)
);
}
);
width = 620;
}
);
unicode = 86;
changeCount = 3;
},
{
glyphname = W;
kernLeft = T;
kernRight = T;
lastChange = "2024-10-04 06:55:24 +0000";
layers = (
{
layerId = "7EBE3D46-E53E-419E-A3EC-596DA2EA1E0D";
name = Regular;
shapes = (
{
closed = 1;
nodes = (
(545,-11,cs),
(581,-11,o),
(610,25,o),
(623,77,cs),
(766,655,l),
(722,660,o),
(657,662,o),
(603,662,c),
(541,238,l),
(471,600,ls),
(463,643,o),
(433,672,o),
(395,672,cs),
(395,672,l),
(357,672,o),
(328,645,o),
(321,604,cs),
(257,241,l),
(194,662,l),
(139,662,o),
(75,660,o),
(30,655,c),
(166,77,ls),
(178,27,o),
(214,-11,o),
(251,-11,cs),
(298,-11,o),
(333,25,o),
(341,75,cs),
(394,394,l),
(455,71,ls),
(464,25,o),
(492,-11,o)
);
}
);
width = 796;
},
{
layerId = m002;
name = Regular;
shapes = (
{
closed = 1;
nodes = (
(565,-1,cs),
(582,-1,o),
(591,20,o),
(596,39,cs),
(748,630,l),
(736,631,o),
(723,633,o),
(711,634,c),
(564,43,l),
(412,586,ls),
(406,607,o),
(398,626,o),
(382,626,cs),
(381,626,l),
(364,626,o),
(356,607,o),
(350,586,cs),
(206,43,l),
(64,634,l),
(53,633,o),
(41,631,o),
(30,630,c),
(173,39,ls),
(178,20,o),
(185,-1,o),
(206,-1,cs),
(222,-1,o),
(232,19,o),
(237,39,cs),
(381,588,l),
(532,39,ls),
(537,20,o),
(546,-1,o)
);
}
);
width = 778;
},
{
layerId = m003;
name = Regular;
shapes = (
{
closed = 1;
nodes = (
(575,-11,cs),
(611,-11,o),
(641,16,o),
(653,77,cs),
(766,655,l),
(752,658,o),
(727,662,o),
(703,659,c),
(599,82,l),
(500,590,ls),
(490,643,o),
(462,672,o),
(424,672,cs),
(424,672,l),
(386,672,o),
(358,645,o),
(350,594,cs),
(275,85,l),
(194,665,l),
(139,665,o),
(85,665,o),
(30,655,c),
(166,77,ls),
(180,18,o),
(204,-11,o),
(241,-11,cs),
(276,-11,o),
(308,17,o),
(317,77,cs),
(394,573,l),
(495,71,ls),
(506,15,o),
(542,-11,o)
);
}
);
width = 796;
},
{
layerId = m004;
name = Regular;
shapes = (
{
closed = 1;
nodes = (
(565,-1,cs),
(582,-1,o),
(591,20,o),
(596,39,cs),
(748,630,l),
(736,631,o),
(723,633,o),
(711,634,c),
(564,43,l),
(412,586,ls),
(406,607,o),
(398,626,o),
(382,626,cs),
(381,626,l),
(364,626,o),
(356,607,o),
(350,586,cs),
(206,43,l),
(64,634,l),
(53,633,o),
(41,631,o),
(30,630,c),
(173,39,ls),
(178,20,o),
(185,-1,o),
(206,-1,cs),
(222,-1,o),
(232,19,o),
(237,39,cs),
(381,588,l),
(532,39,ls),
(537,20,o),
(546,-1,o)
);
}
);
width = 778;
},
{
layerId = m005;
name = Regular;
shapes = (
{
closed = 1;
nodes = (
(345,-11,cs),
(381,-11,o),
(410,6,o),
(417,67,cs),
(486,655,l),
(472,658,o),
(367,662,o),
(343,659,c),
(335,351,l),
(300,590,ls),
(292,643,o),
(282,672,o),
(244,672,cs),
(244,672,l),
(206,672,o),
(199,646,o),
(191,594,cs),
(155,345,l),
(144,665,l),
(109,666,o),
(34,665,o),
(0,655,c),
(86,77,ls),
(95,18,o),
(114,-11,o),
(151,-11,cs),
(186,-11,o),
(210,8,o),
(217,67,cs),
(244,293,l),
(275,71,ls),
(283,15,o),
(312,-11,o)
);
}
);
width = 500;
},
{
layerId = m006;
name = Regular;
shapes = (
{
closed = 1;
nodes = (
(370,-1,cs),
(387,-1,o),
(398,20,o),
(401,39,cs),
(493,630,l),
(481,631,o),
(468,633,o),
(456,634,c),
(369,43,l),
(267,586,ls),
(263,607,o),
(253,626,o),
(237,626,cs),
(236,626,l),
(219,626,o),
(209,607,o),
(205,586,cs),
(111,43,l),
(39,634,l),
(28,633,o),
(16,631,o),
(5,630,c),
(78,39,ls),
(80,20,o),
(90,-1,o),
(111,-1,cs),
(127,-1,o),
(139,19,o),
(142,39,cs),
(236,588,l),
(337,39,ls),
(341,20,o),
(351,-1,o)
);
}
);
width = 500;
},
{
layerId = m007;
name = Regular;
shapes = (
{
closed = 1;
nodes = (
(565,-1,cs),
(582,-1,o),
(591,20,o),
(596,39,cs),
(748,630,l),
(736,631,o),
(723,633,o),
(711,634,c),
(564,43,l),
(412,586,ls),
(406,607,o),
(398,626,o),
(382,626,cs),
(381,626,l),
(364,626,o),
(356,607,o),
(350,586,cs),
(206,43,l),
(64,634,l),
(53,633,o),
(41,631,o),
(30,630,c),
(173,39,ls),
(178,20,o),
(185,-1,o),
(206,-1,cs),
(222,-1,o),
(232,19,o),
(237,39,cs),
(381,588,l),
(532,39,ls),
(537,20,o),
(546,-1,o)
);
}
);
width = 778;
}
);
unicode = 87;
changeCount = 3;
},
{
glyphname = Z;
lastChange = "2024-10-04 06:55:24 +0000";
layers = (
{
layerId = "7EBE3D46-E53E-419E-A3EC-596DA2EA1E0D";
name = Regular;
shapes = (
{
closed = 1;
nodes = (
(366,667,o),
(161,665,o),
(51,657,c),
(49,602,o),
(50,551,o),
(62,499,c),
(151,509,o),
(276,503,o),
(345,511,c),
(225,361,o),
(106,215,o),
(49,122,cs),
(13,63,o),
(55,-1,o),
(107,-7,cs),
(195,-17,o),
(379,-19,o),
(511,-10,c),
(513,45,o),
(512,96,o),
(500,148,c),
(414,145,o),
(271,147,o),
(204,147,c),
(330,297,o),
(452,450,o),
(509,541,cs),
(539,589,o),
(509,656,o),
(459,660,cs)
);
}
);
width = 562;
},
{
layerId = m002;
name = Regular;
shapes = (
{
closed = 1;
nodes = (
(392,642,o),
(200,640,o),
(30,627,c),
(31,618,o),
(33,608,o),
(36,599,c),
(237,612,o),
(368,612,o),
(523,600,c),
(419,484,o),
(145,170,o),
(42,50,cs),
(23,28,o),
(32,8,o),
(65,5,cs),
(194,-10,o),
(384,-11,o),
(554,2,c),
(553,11,o),
(551,21,o),
(548,30,c),
(347,17,o),
(216,24,o),
(61,36,c),
(165,152,o),
(442,462,o),
(545,582,cs),
(564,605,o),
(544,625,o),
(521,627,cs)
);
}
);
width = 584;
},
{
layerId = m003;
name = Regular;
shapes = (
{
closed = 1;
nodes = (
(366,669,o),
(163,663,o),
(44,649,c),
(42,616,o),
(50,524,o),
(55,499,c),
(172,507,o),
(362,517,o),
(429,512,c),
(287,366,o),
(152,217,o),
(64,114,cs),
(23,66,o),
(36,-4,o),
(95,-11,cs),
(182,-22,o),
(385,-16,o),
(504,-2,c),
(506,31,o),
(498,123,o),
(493,148,c),
(376,140,o),
(186,130,o),
(119,135,c),
(261,281,o),
(396,430,o),
(484,533,cs),
(525,581,o),
(512,651,o),
(453,658,cs)
);
}
);
width = 548;
},
{
layerId = m004;
name = Regular;
shapes = (
{
closed = 1;
nodes = (
(392,642,o),
(200,640,o),
(30,627,c),
(31,618,o),
(33,608,o),
(36,599,c),
(237,612,o),
(368,612,o),
(523,600,c),
(419,484,o),
(145,170,o),
(42,50,cs),
(23,28,o),
(32,8,o),
(65,5,cs),
(194,-10,o),
(384,-11,o),
(554,2,c),
(553,11,o),
(551,21,o),
(548,30,c),
(347,17,o),
(216,24,o),
(61,36,c),
(165,152,o),
(442,462,o),
(545,582,cs),
(564,605,o),
(544,625,o),
(521,627,cs)
);
}
);
width = 584;
},
{
layerId = m005;
name = Regular;
shapes = (
{
closed = 1;
nodes = (
(297,669,o),
(141,671,o),
(41,657,c),
(37,622,o),
(46,521,o),
(52,497,c),
(109,502,o),
(206,505,o),
(281,503,c),
(195,365,o),
(84,185,o),
(38,94,cs),
(17,52,o),
(37,-2,o),
(96,-9,cs),
(205,-22,o),
(361,-24,o),
(461,-10,c),
(465,25,o),
(456,126,o),
(450,150,c),
(393,145,o),
(296,142,o),
(221,144,c),
(296,276,o),
(417,458,o),
(464,553,cs),
(485,595,o),
(465,649,o),
(406,656,cs)
);
}
);
width = 500;
},
{
layerId = m006;
name = Regular;
shapes = (
{
closed = 1;
nodes = (
(318,639,o),
(118,636,o),
(20,627,c),
(21,618,o),
(23,608,o),
(26,599,c),
(155,608,o),
(302,611,o),
(456,601,c),
(377,494,o),
(119,156,o),
(26,46,cs),
(10,27,o),
(25,3,o),
(54,0,cs),
(183,-13,o),
(386,-7,o),
(484,2,c),
(483,11,o),
(481,21,o),
(478,30,c),
(349,21,o),
(202,18,o),
(48,28,c),
(137,135,o),
(393,474,o),
(476,584,cs),
(491,604,o),
(476,623,o),
(447,626,cs)
);
}
);
width = 500;
},
{
layerId = m007;
name = Regular;
shapes = (
{
closed = 1;
nodes = (
(392,642,o),
(200,640,o),
(30,627,c),
(31,618,o),
(33,608,o),
(36,599,c),
(237,612,o),
(368,612,o),
(523,600,c),
(419,484,o),
(145,170,o),
(42,50,cs),
(23,28,o),
(32,8,o),
(65,5,cs),
(194,-10,o),
(384,-11,o),
(554,2,c),
(553,11,o),
(551,21,o),
(548,30,c),
(347,17,o),
(216,24,o),
(61,36,c),
(165,152,o),
(442,462,o),
(545,582,cs),
(564,605,o),
(544,625,o),
(521,627,cs)
);
}
);
width = 584;
}
);
unicode = 90;
changeCount = 3;
},
{
glyphname = a;
kernLeft = e;
kernRight = e;
lastChange = "2024-10-04 06:55:24 +0000";
layers = (
{
layerId = "7EBE3D46-E53E-419E-A3EC-596DA2EA1E0D";
name = Regular;
shapes = (
{
closed = 1;
nodes = (
(111,291,o),
(40,245,o),
(40,144,cs),
(40,45,o),
(122,-4,o),
(197,-4,cs),
(256,-4,o),
(305,21,o),
(336,52,c),
(343,-4,l),
(458,-4,l),
(458,305,ls),
(458,430,o),
(369,515,o),
(241,515,cs),
(187,515,o),
(139,510,o),
(81,489,c),
(80,439,o),
(82,381,o),
(91,328,c),
(125,346,o),
(193,350,o),
(242,350,cs),
(303,350,o),
(337,323,o),
(346,297,cs),
(348,291,l),
(211,291,ls)
);
},
{
closed = 1;
nodes = (
(166,197,o),
(194,213,o),
(232,213,cs),
(355,213,l),
(349,188,ls),
(343,161,o),
(302,131,o),
(236,131,cs),
(196,131,o),
(166,144,o),
(166,175,cs)
);
}
);
width = 519;
},
{
layerId = m002;
name = Regular;
shapes = (
{
closed = 1;
nodes = (
(111,286,o),
(40,239,o),
(40,138,cs),
(40,49,o),
(112,-8,o),
(207,-8,cs),
(340,-8,o),
(415,62,o),
(433,115,c),
(435,-1,l),
(458,-1,l),
(458,305,ls),
(458,430,o),
(379,515,o),
(251,515,cs),
(177,515,o),
(151,510,o),
(75,482,c),
(74,473,o),
(76,457,o),
(78,449,c),
(131,472,o),
(182,485,o),
(251,485,cs),
(362,485,o),
(429,404,o),
(429,307,cs),
(429,286,l),
(241,286,ls)
);
},
{
closed = 1;
nodes = (
(63,203,o),
(104,257,o),
(242,257,cs),
(430,257,l),
(431,192,ls),
(433,86,o),
(310,18,o),
(206,18,cs),
(116,18,o),
(63,79,o),
(63,138,cs)
);
}
);
width = 518;
},
{
layerId = m003;
name = Regular;
shapes = (
{
closed = 1;
nodes = (
(121,273,o),
(50,245,o),
(50,158,cs),
(50,45,o),
(122,-4,o),
(227,-4,cs),
(334,-4,o),
(388,49,o),
(412,139,c),
(423,-1,l),
(458,-1,l),
(458,305,ls),
(458,430,o),
(369,515,o),
(241,515,cs),
(187,515,o),
(159,510,o),
(81,479,c),
(80,429,o),
(82,371,o),
(91,318,c),
(145,346,o),
(208,351,o),
(301,350,cs),
(372,349,o),
(416,321,o),
(416,277,cs),
(416,273,l),
(291,273,ls)
);
},
{
closed = 1;
nodes = (
(106,210,o),
(141,225,o),
(239,225,cs),
(417,225,l),
(417,224,ls),
(417,177,o),
(380,131,o),
(246,131,cs),
(146,131,o),
(106,144,o),
(106,179,cs)
);
}
);
width = 518;
},
{
layerId = m004;
name = Regular;
shapes = (
{
closed = 1;
nodes = (
(111,286,o),
(40,239,o),
(40,138,cs),
(40,49,o),
(112,-8,o),
(207,-8,cs),
(340,-8,o),
(415,62,o),
(433,115,c),
(435,-1,l),
(458,-1,l),
(458,305,ls),
(458,430,o),
(379,515,o),
(251,515,cs),
(177,515,o),
(151,510,o),
(75,482,c),
(74,473,o),
(76,457,o),
(78,449,c),
(131,472,o),
(182,485,o),
(251,485,cs),
(362,485,o),
(429,404,o),
(429,307,cs),
(429,286,l),
(241,286,ls)
);
},
{
closed = 1;
nodes = (
(63,203,o),
(104,257,o),
(242,257,cs),
(430,257,l),
(431,192,ls),
(433,86,o),
(310,18,o),
(206,18,cs),
(116,18,o),
(63,79,o),
(63,138,cs)
);
}
);
width = 518;
},
{
layerId = m005;
name = Regular;
shapes = (
{
closed = 1;
nodes = (
(101,291,o),
(30,245,o),
(30,144,cs),
(30,45,o),
(112,-4,o),
(187,-4,cs),
(246,-4,o),
(285,21,o),
(316,52,c),
(323,-4,l),
(438,-4,l),
(438,305,ls),
(438,430,o),
(349,515,o),
(231,515,cs),
(187,515,o),
(119,513,o),
(71,489,c),
(70,439,o),
(72,381,o),
(81,328,c),
(115,346,o),
(183,350,o),
(232,350,cs),
(283,350,o),
(307,323,o),
(316,297,cs),
(318,291,l),
(201,291,ls)
);
},
{
closed = 1;
nodes = (
(156,197,o),
(184,213,o),
(222,213,cs),
(325,213,l),
(319,188,ls),
(313,161,o),
(282,131,o),
(226,131,cs),
(186,131,o),
(156,144,o),
(156,175,cs)
);
}
);
width = 500;
},
{
layerId = m006;
name = Regular;
shapes = (
{
closed = 1;
nodes = (
(111,286,o),
(40,239,o),
(40,138,cs),
(40,49,o),
(112,-8,o),
(207,-8,cs),
(340,-8,o),
(415,62,o),
(433,115,c),
(435,-1,l),
(458,-1,l),
(458,305,ls),
(458,430,o),
(379,515,o),
(251,515,cs),
(177,515,o),
(151,510,o),
(75,482,c),
(74,473,o),
(76,457,o),
(78,449,c),
(131,472,o),
(182,485,o),
(251,485,cs),
(362,485,o),
(429,404,o),
(429,307,cs),
(429,286,l),
(241,286,ls)
);
},
{
closed = 1;
nodes = (
(63,203,o),
(104,257,o),
(242,257,cs),
(430,257,l),
(431,192,ls),
(433,86,o),
(310,18,o),
(206,18,cs),
(116,18,o),
(63,79,o),
(63,138,cs)
);
}
);
width = 500;
},
{
layerId = m007;
name = Regular;
shapes = (
{
closed = 1;
nodes = (
(111,286,o),
(40,239,o),
(40,138,cs),
(40,49,o),
(112,-8,o),
(207,-8,cs),
(340,-8,o),
(415,62,o),
(433,115,c),
(435,-1,l),
(458,-1,l),
(458,305,ls),
(458,430,o),
(379,515,o),
(251,515,cs),
(177,515,o),
(151,510,o),
(75,482,c),
(74,473,o),
(76,457,o),
(78,449,c),
(131,472,o),
(182,485,o),
(251,485,cs),
(362,485,o),
(429,404,o),
(429,307,cs),
(429,286,l),
(241,286,ls)
);
},
{
closed = 1;
nodes = (
(63,203,o),
(104,257,o),
(242,257,cs),
(430,257,l),
(431,192,ls),
(433,86,o),
(310,18,o),
(206,18,cs),
(116,18,o),
(63,79,o),
(63,138,cs)
);
}
);
width = 518;
}
);
unicode = 97;
changeCount = 3;
},
{
glyphname = b;
kernLeft = h;
kernRight = e;
lastChange = "2024-10-04 06:55:24 +0000";
layers = (
{
layerId = "7EBE3D46-E53E-419E-A3EC-596DA2EA1E0D";
name = Regular;
shapes = (
{
closed = 1;
nodes = (
(282,514,o),
(240,483,o),
(215,437,c),
(215,759,l),
(60,759,l),
(60,-1,l),
(195,-1,l),
(205,57,l),
(239,18,o),
(284,-7,o),
(325,-7,cs),
(444,-7,o),
(524,110,o),
(524,256,cs),
(524,405,o),
(446,514,o),
(326,514,cs)
);
},
{
closed = 1;
nodes = (
(185,223,ls),
(192,311,o),
(236,357,o),
(298,357,cs),
(355,357,o),
(392,317,o),
(391,251,cs),
(390,193,o),
(344,151,o),
(290,149,cs),
(253,148,o),
(205,158,o),
(181,170,c)
);
}
);
width = 564;
},
{
layerId = m002;
name = Regular;
shapes = (
{
closed = 1;
nodes = (
(190,510,o),
(119,470,o),
(87,347,c),
(87,733,l),
(60,733,l),
(60,0,l),
(80,0,l),
(87,69,l),
(141,30,o),
(196,0,o),
(267,0,cs),
(406,0,o),
(476,100,o),
(476,256,cs),
(476,395,o),
(418,510,o),
(288,510,cs)
);
},
{
closed = 1;
nodes = (
(85,202,ls),
(90,343,o),
(132,480,o),
(281,480,cs),
(426,480,o),
(444,357,o),
(444,251,cs),
(444,75,o),
(332,31,o),
(268,30,cs),
(171,29,o),
(105,77,o),
(81,89,c)
);
}
);
width = 516;
},
{
layerId = m003;
name = Regular;
shapes = (
{
closed = 1;
nodes = (
(211,514,o),
(141,440,o),
(115,375,c),
(115,760,l),
(60,760,l),
(60,-1,l),
(95,-1,l),
(105,107,l),
(139,48,o),
(214,-7,o),
(325,-7,cs),
(444,-7,o),
(524,80,o),
(524,256,cs),
(524,435,o),
(446,514,o),
(306,514,cs)
);
},
{
closed = 1;
nodes = (
(105,227,ls),
(130,312,o),
(208,357,o),
(310,357,cs),
(417,357,o),
(482,327,o),
(481,251,cs),
(480,173,o),
(406,150,o),
(302,149,cs),
(235,148,o),
(145,162,o),
(91,180,c)
);
}
);
width = 564;
},
{
layerId = m004;
name = Regular;
shapes = (
{
closed = 1;
nodes = (
(190,510,o),
(119,470,o),
(87,347,c),
(87,733,l),
(60,733,l),
(60,0,l),
(80,0,l),
(87,69,l),
(141,30,o),
(196,0,o),
(267,0,cs),
(406,0,o),
(476,100,o),
(476,256,cs),
(476,395,o),
(418,510,o),
(288,510,cs)
);
},
{
closed = 1;
nodes = (
(85,202,ls),
(90,343,o),
(132,480,o),
(281,480,cs),
(426,480,o),
(444,357,o),
(444,251,cs),
(444,75,o),
(332,31,o),
(268,30,cs),
(171,29,o),
(105,77,o),
(81,89,c)
);
}
);
width = 516;
},
{
layerId = m005;
name = Regular;
shapes = (
{
closed = 1;
nodes = (
(273,514,o),
(237,484,o),
(215,441,c),
(215,759,l),
(60,759,l),
(60,-1,l),
(195,-1,l),
(205,57,l),
(229,18,o),
(274,-7,o),
(315,-7,cs),
(424,-7,o),
(504,110,o),
(504,256,cs),
(504,405,o),
(426,514,o),
(316,514,cs)
);
},
{
closed = 1;
nodes = (
(175,223,ls),
(182,311,o),
(226,357,o),
(288,357,cs),
(345,357,o),
(372,317,o),
(371,251,cs),
(370,193,o),
(334,151,o),
(280,149,cs),
(243,148,o),
(195,158,o),
(171,170,c)
);
}
);
width = 500;
},
{
layerId = m006;
name = Regular;
shapes = (
{
closed = 1;
nodes = (
(190,510,o),
(119,470,o),
(87,347,c),
(87,733,l),
(60,733,l),
(60,0,l),
(80,0,l),
(87,69,l),
(141,30,o),
(196,0,o),
(267,0,cs),
(406,0,o),
(476,100,o),
(476,256,cs),
(476,395,o),
(418,510,o),
(288,510,cs)
);
},
{
closed = 1;
nodes = (
(85,202,ls),
(90,343,o),
(132,480,o),
(281,480,cs),
(426,480,o),
(444,357,o),
(444,251,cs),
(444,75,o),
(332,31,o),
(268,30,cs),
(171,29,o),
(105,77,o),
(81,89,c)
);
}
);
width = 500;
},
{
layerId = m007;
name = Regular;
shapes = (
{
closed = 1;
nodes = (
(190,510,o),
(119,470,o),
(87,347,c),
(87,733,l),
(60,733,l),
(60,0,l),
(80,0,l),
(87,69,l),
(141,30,o),
(196,0,o),
(267,0,cs),
(406,0,o),
(476,100,o),
(476,256,cs),
(476,395,o),
(418,510,o),
(288,510,cs)
);
},
{
closed = 1;
nodes = (
(85,202,ls),
(90,343,o),
(132,480,o),
(281,480,cs),
(426,480,o),
(444,357,o),
(444,251,cs),
(444,75,o),
(332,31,o),
(268,30,cs),
(171,29,o),
(105,77,o),
(81,89,c)
);
}
);
width = 516;
}
);
unicode = 98;
changeCount = 3;
},
{
glyphname = c;
kernLeft = e;
kernRight = c;
lastChange = "2024-10-04 06:55:24 +0000";
layers = (
{
layerId = "7EBE3D46-E53E-419E-A3EC-596DA2EA1E0D";
name = Regular;
shapes = (
{
closed = 1;
nodes = (
(40,233,ls),
(40,84,o),
(140,-11,o),
(256,-11,cs),
(318,-10,o),
(356,4,o),
(397,25,c),
(401,65,o),
(393,142,o),
(381,176,c),
(357,163,o),
(315,149,o),
(276,149,cs),
(230,149,o),
(165,176,o),
(164.004,251,cs),
(165,326,o),
(230,353,o),
(276,353,cs),
(315,353,o),
(357,339,o),
(381,326,c),
(393,360,o),
(401,437,o),
(397,477,c),
(356,498,o),
(318,512,o),
(256,513,cs),
(140,513,o),
(40,418,o),
(40,269,cs)
);
}
);
width = 448;
},
{
layerId = m002;
name = Regular;
shapes = (
{
closed = 1;
nodes = (
(40,236,ls),
(40,87,o),
(140,1,o),
(256,1,cs),
(328,2,o),
(368,15,o),
(421,35,c),
(422,46,o),
(421,62,o),
(419,70,c),
(380,53,o),
(328,30,o),
(257,30,cs),
(161,30,o),
(70,90,o),
(70,256,cs),
(70,422,o),
(161,482,o),
(257,482,cs),
(328,482,o),
(380,459,o),
(419,442,c),
(421,450,o),
(422,466,o),
(421,477,c),
(368,497,o),
(328,510,o),
(256,511,cs),
(140,511,o),
(40,425,o),
(40,276,cs)
);
}
);
width = 460;
},
{
layerId = m003;
name = Regular;
shapes = (
{
closed = 1;
nodes = (
(40,233,ls),
(40,84,o),
(140,-11,o),
(256,-11,cs),
(318,-10,o),
(356,4,o),
(397,25,c),
(401,65,o),
(393,142,o),
(381,176,c),
(357,163,o),
(285,149,o),
(236,149,cs),
(160,149,o),
(85,176,o),
(84.004,251,cs),
(85,326,o),
(160,353,o),
(236,353,cs),
(285,353,o),
(357,339,o),
(381,326,c),
(393,360,o),
(401,437,o),
(397,477,c),
(356,498,o),
(318,512,o),
(256,513,cs),
(140,513,o),
(40,418,o),
(40,269,cs)
);
}
);
width = 448;
},
{
layerId = m004;
name = Regular;
shapes = (
{
closed = 1;
nodes = (
(40,236,ls),
(40,87,o),
(140,1,o),
(256,1,cs),
(328,2,o),
(368,15,o),
(421,35,c),
(422,46,o),
(421,62,o),
(419,70,c),
(380,53,o),
(328,30,o),
(257,30,cs),
(161,30,o),
(70,90,o),
(70,256,cs),
(70,422,o),
(161,482,o),
(257,482,cs),
(328,482,o),
(380,459,o),
(419,442,c),
(421,450,o),
(422,466,o),
(421,477,c),
(368,497,o),
(328,510,o),
(256,511,cs),
(140,511,o),
(40,425,o),
(40,276,cs)
);
}
);
width = 460;
},
{
layerId = m005;
name = Regular;
shapes = (
{
closed = 1;
nodes = (
(50,233,ls),
(50,84,o),
(140,-11,o),
(286,-11,cs),
(358,-10,o),
(396,4,o),
(437,25,c),
(441,65,o),
(433,142,o),
(421,176,c),
(397,163,o),
(355,149,o),
(306,149,cs),
(250,149,o),
(175,176,o),
(174.004,251,cs),
(175,326,o),
(250,353,o),
(306,353,cs),
(355,353,o),
(397,339,o),
(421,326,c),
(433,360,o),
(441,437,o),
(437,477,c),
(396,498,o),
(358,512,o),
(286,513,cs),
(140,513,o),
(50,418,o),
(50,269,cs)
);
}
);
width = 500;
},
{
layerId = m006;
name = Regular;
shapes = (
{
closed = 1;
nodes = (
(40,236,ls),
(40,87,o),
(140,1,o),
(256,1,cs),
(328,2,o),
(368,15,o),
(421,35,c),
(422,46,o),
(421,62,o),
(419,70,c),
(380,53,o),
(328,30,o),
(257,30,cs),
(161,30,o),
(70,90,o),
(70,256,cs),
(70,422,o),
(161,482,o),
(257,482,cs),
(328,482,o),
(380,459,o),
(419,442,c),
(421,450,o),
(422,466,o),
(421,477,c),
(368,497,o),
(328,510,o),
(256,511,cs),
(140,511,o),
(40,425,o),
(40,276,cs)
);
}
);
width = 500;
},
{
layerId = m007;
name = Regular;
shapes = (
{
closed = 1;
nodes = (
(40,236,ls),
(40,87,o),
(140,1,o),
(256,1,cs),
(328,2,o),
(368,15,o),
(421,35,c),
(422,46,o),
(421,62,o),
(419,70,c),
(380,53,o),
(328,30,o),
(257,30,cs),
(161,30,o),
(70,90,o),
(70,256,cs),
(70,422,o),
(161,482,o),
(257,482,cs),
(328,482,o),
(380,459,o),
(419,442,c),
(421,450,o),
(422,466,o),
(421,477,c),
(368,497,o),
(328,510,o),
(256,511,cs),
(140,511,o),
(40,425,o),
(40,276,cs)
);
}
);
width = 460;
}
);
unicode = 99;
changeCount = 3;
},
{
glyphname = d;
kernLeft = e;
kernRight = h;
lastChange = "2024-10-04 06:55:24 +0000";
layers = (
{
layerId = "7EBE3D46-E53E-419E-A3EC-596DA2EA1E0D";
name = Regular;
shapes = (
{
closed = 1;
nodes = (
(349,464,l),
(316,497,o),
(276,517,o),
(239,517,cs),
(120,517,o),
(40,400,o),
(40,254,cs),
(40,105,o),
(118,-4,o),
(238,-4,cs),
(285,-4,o),
(330,32,o),
(354,82,c),
(365,0,l),
(504,0,l),
(504,760,l),
(349,760,l)
);
},
{
closed = 1;
nodes = (
(174,317,o),
(220,359,o),
(274,361,cs),
(311,362,o),
(359,352,o),
(383,340,c),
(379,287,ls),
(373,214,o),
(339,153,o),
(266,153,cs),
(209,153,o),
(172,193,o),
(173,259,cs)
);
}
);
width = 544;
},
{
layerId = m002;
name = Regular;
shapes = (
{
closed = 1;
nodes = (
(429,440,l),
(375,479,o),
(320,509,o),
(249,509,cs),
(110,509,o),
(40,409,o),
(40,253,cs),
(40,114,o),
(98,-1,o),
(228,-1,cs),
(326,-1,o),
(396,39,o),
(428,162,c),
(434,-1,l),
(456,-1,l),
(456,729,l),
(429,729,l)
);
},
{
closed = 1;
nodes = (
(72,434,o),
(184,478,o),
(248,479,cs),
(345,480,o),
(411,432,o),
(435,420,c),
(431,307,ls),
(426,166,o),
(384,29,o),
(235,29,cs),
(90,29,o),
(72,152,o),
(72,258,cs)
);
}
);
width = 516;
},
{
layerId = m003;
name = Regular;
shapes = (
{
closed = 1;
nodes = (
(449,419,l),
(411,471,o),
(340,517,o),
(239,517,cs),
(120,517,o),
(40,430,o),
(40,254,cs),
(40,75,o),
(118,-4,o),
(258,-4,cs),
(348,-4,o),
(416,63,o),
(445,125,c),
(455,0,l),
(504,0,l),
(504,760,l),
(449,760,l)
);
},
{
closed = 1;
nodes = (
(84,337,o),
(158,360,o),
(262,361,cs),
(329,362,o),
(419,348,o),
(473,330,c),
(459,283,ls),
(434,198,o),
(356,153,o),
(254,153,cs),
(147,153,o),
(82,183,o),
(83,259,cs)
);
}
);
width = 564;
},
{
layerId = m004;
name = Regular;
shapes = (
{
closed = 1;
nodes = (
(429,440,l),
(375,479,o),
(320,509,o),
(249,509,cs),
(110,509,o),
(40,409,o),
(40,253,cs),
(40,114,o),
(98,-1,o),
(228,-1,cs),
(326,-1,o),
(396,39,o),
(428,162,c),
(434,-1,l),
(456,-1,l),
(456,729,l),
(429,729,l)
);
},
{
closed = 1;
nodes = (
(72,434,o),
(184,478,o),
(248,479,cs),
(345,480,o),
(411,432,o),
(435,420,c),
(431,307,ls),
(426,166,o),
(384,29,o),
(235,29,cs),
(90,29,o),
(72,152,o),
(72,258,cs)
);
}
);
width = 516;
},
{
layerId = m005;
name = Regular;
shapes = (
{
closed = 1;
nodes = (
(309,467,l),
(284,498,o),
(245,517,o),
(209,517,cs),
(100,517,o),
(20,400,o),
(20,254,cs),
(20,105,o),
(98,-4,o),
(208,-4,cs),
(264,-4,o),
(309,47,o),
(325,114,c),
(345,1,l),
(460,0,l),
(464,760,l),
(309,760,l)
);
},
{
closed = 1;
nodes = (
(154,317,o),
(190,359,o),
(244,361,cs),
(281,362,o),
(329,352,o),
(353,340,c),
(349,287,ls),
(342,199,o),
(298,153,o),
(236,153,cs),
(179,153,o),
(152,193,o),
(153,259,cs)
);
}
);
width = 500;
},
{
layerId = m006;
name = Regular;
shapes = (
{
closed = 1;
nodes = (
(429,440,l),
(375,479,o),
(320,509,o),
(249,509,cs),
(110,509,o),
(40,409,o),
(40,253,cs),
(40,114,o),
(98,-1,o),
(228,-1,cs),
(326,-1,o),
(396,39,o),
(428,162,c),
(434,-1,l),
(456,-1,l),
(456,729,l),
(429,729,l)
);
},
{
closed = 1;
nodes = (
(72,434,o),
(184,478,o),
(248,479,cs),
(345,480,o),
(411,432,o),
(435,420,c),
(431,307,ls),
(426,166,o),
(384,29,o),
(235,29,cs),
(90,29,o),
(72,152,o),
(72,258,cs)
);
}
);
width = 500;
},
{
layerId = m007;
name = Regular;
shapes = (
{
closed = 1;
nodes = (
(429,440,l),
(375,479,o),
(320,509,o),
(249,509,cs),
(110,509,o),
(40,409,o),
(40,253,cs),
(40,114,o),
(98,-1,o),
(228,-1,cs),
(326,-1,o),
(396,39,o),
(428,162,c),
(434,-1,l),
(456,-1,l),
(456,729,l),
(429,729,l)
);
},
{
closed = 1;
nodes = (
(72,434,o),
(184,478,o),
(248,479,cs),
(345,480,o),
(411,432,o),
(435,420,c),
(431,307,ls),
(426,166,o),
(384,29,o),
(235,29,cs),
(90,29,o),
(72,152,o),
(72,258,cs)
);
}
);
width = 516;
}
);
unicode = 100;
changeCount = 3;
},
{
glyphname = eth;
lastChange = "2024-10-04 06:55:24 +0000";
layers = (
{
layerId = "7EBE3D46-E53E-419E-A3EC-596DA2EA1E0D";
name = Regular;
shapes = (
{
closed = 1;
nodes = (
(469,683,l),
(356,708,l),
(173,469,l),
(298,449,l)
);
},
{
closed = 1;
nodes = (
(211,146,o),
(164,183,o),
(164,241,cs),
(164,305,o),
(208,342,o),
(267,342,cs),
(338,342,o),
(374,300,o),
(374,244,cs),
(374,184,o),
(338,146,o),
(269,146,cs)
);
},
{
closed = 1;
nodes = (
(488,507,o),
(401,668,o),
(256,668,cs),
(180,668,o),
(129,659,o),
(88,641,c),
(87,590,o),
(97,546,o),
(113,494,c),
(145,509,o),
(194,517,o),
(240,517,cs),
(335,517,o),
(370,452,o),
(377,394,c),
(352,422,o),
(311,441,o),
(245,441,cs),
(119,441,o),
(50,336,o),
(50,218,cs),
(50,125,o),
(98,-11,o),
(259,-11,cs),
(425,-11,o),
(488,128,o),
(488,318,cs)
);
}
);
width = 558;
},
{
layerId = m002;
name = Regular;
shapes = (
{
closed = 1;
nodes = (
(419,713,l),
(396,718,l),
(183,489,l),
(218,489,l)
);
},
{
closed = 1;
nodes = (
(181,23,o),
(80,82,o),
(80,207,cs),
(80,352,o),
(152,417,o),
(256,417,cs),
(381,417,o),
(449,311,o),
(449,233,cs),
(449,154,o),
(400,23,o),
(264,23,cs)
);
},
{
closed = 1;
nodes = (
(486,468,o),
(429,638,o),
(257,638,cs),
(180,638,o),
(144,620,o),
(103,602,c),
(103,591,o),
(104,578,o),
(106,570,c),
(136,587,o),
(192,610,o),
(267,610,cs),
(386,610,o),
(460,480,o),
(460,298,c),
(407,424,o),
(343,441,o),
(254,441,cs),
(113,441,o),
(51,336,o),
(51,208,cs),
(51,132,o),
(89,-4,o),
(270,-4,cs),
(436,-4,o),
(486,146,o),
(486,289,cs)
);
}
);
width = 558;
},
{
layerId = m003;
name = Regular;
shapes = (
{
closed = 1;
nodes = (
(469,683,l),
(356,708,l),
(173,469,l),
(298,449,l)
);
},
{
closed = 1;
nodes = (
(131,126,o),
(84,163,o),
(84,221,cs),
(84,285,o),
(128,322,o),
(257,322,cs),
(388,322,o),
(424,280,o),
(424,224,cs),
(424,164,o),
(388,126,o),
(259,126,cs)
);
},
{
closed = 1;
nodes = (
(478,507,o),
(401,668,o),
(246,668,cs),
(170,668,o),
(119,659,o),
(78,641,c),
(77,590,o),
(87,546,o),
(103,494,c),
(135,509,o),
(214,517,o),
(260,517,cs),
(355,517,o),
(420,432,o),
(427,354,c),
(382,432,o),
(301,441,o),
(235,441,cs),
(109,441,o),
(40,336,o),
(40,218,cs),
(40,125,o),
(88,-11,o),
(249,-11,cs),
(415,-11,o),
(478,128,o),
(478,318,cs)
);
}
);
width = 558;
},
{
layerId = m004;
name = Regular;
shapes = (
{
closed = 1;
nodes = (
(419,713,l),
(396,718,l),
(183,489,l),
(218,489,l)
);
},
{
closed = 1;
nodes = (
(181,23,o),
(80,82,o),
(80,207,cs),
(80,352,o),
(152,417,o),
(256,417,cs),
(381,417,o),
(449,311,o),
(449,233,cs),
(449,154,o),
(400,23,o),
(264,23,cs)
);
},
{
closed = 1;
nodes = (
(486,468,o),
(429,638,o),
(257,638,cs),
(180,638,o),
(144,620,o),
(103,602,c),
(103,591,o),
(104,578,o),
(106,570,c),
(136,587,o),
(192,610,o),
(267,610,cs),
(386,610,o),
(460,480,o),
(460,298,c),
(407,424,o),
(343,441,o),
(254,441,cs),
(113,441,o),
(51,336,o),
(51,208,cs),
(51,132,o),
(89,-4,o),
(270,-4,cs),
(436,-4,o),
(486,146,o),
(486,289,cs)
);
}
);
width = 558;
},
{
layerId = m005;
name = Regular;
shapes = (
{
closed = 1;
nodes = (
(469,683,l),
(356,708,l),
(173,469,l),
(298,449,l)
);
},
{
closed = 1;
nodes = (
(191,146,o),
(144,183,o),
(144,241,cs),
(144,305,o),
(188,342,o),
(247,342,cs),
(318,342,o),
(354,300,o),
(354,244,cs),
(354,184,o),
(318,146,o),
(249,146,cs)
);
},
{
closed = 1;
nodes = (
(468,507,o),
(381,668,o),
(236,668,cs),
(160,668,o),
(109,659,o),
(68,641,c),
(67,590,o),
(77,546,o),
(93,494,c),
(125,509,o),
(174,517,o),
(220,517,cs),
(315,517,o),
(350,452,o),
(357,394,c),
(332,422,o),
(291,441,o),
(225,441,cs),
(99,441,o),
(30,336,o),
(30,218,cs),
(30,125,o),
(78,-11,o),
(239,-11,cs),
(405,-11,o),
(468,128,o),
(468,318,cs)
);
}
);
width = 500;
},
{
layerId = m006;
name = Regular;
shapes = (
{
closed = 1;
nodes = (
(419,713,l),
(396,718,l),
(183,489,l),
(218,489,l)
);
},
{
closed = 1;
nodes = (
(171,23,o),
(70,82,o),
(70,207,cs),
(70,352,o),
(142,417,o),
(246,417,cs),
(371,417,o),
(439,311,o),
(439,233,cs),
(439,154,o),
(390,23,o),
(254,23,cs)
);
},
{
closed = 1;
nodes = (
(476,468,o),
(419,638,o),
(247,638,cs),
(170,638,o),
(134,620,o),
(93,602,c),
(93,591,o),
(94,578,o),
(96,570,c),
(126,587,o),
(182,610,o),
(257,610,cs),
(376,610,o),
(450,480,o),
(450,298,c),
(397,424,o),
(333,441,o),
(244,441,cs),
(103,441,o),
(41,336,o),
(41,208,cs),
(41,132,o),
(79,-4,o),
(260,-4,cs),
(426,-4,o),
(476,146,o),
(476,289,cs)
);
}
);
width = 500;
},
{
layerId = m007;
name = Regular;
shapes = (
{
closed = 1;
nodes = (
(419,713,l),
(396,718,l),
(183,489,l),
(218,489,l)
);
},
{
closed = 1;
nodes = (
(181,23,o),
(80,82,o),
(80,207,cs),
(80,352,o),
(152,417,o),
(256,417,cs),
(381,417,o),
(449,311,o),
(449,233,cs),
(449,154,o),
(400,23,o),
(264,23,cs)
);
},
{
closed = 1;
nodes = (
(486,468,o),
(429,638,o),
(257,638,cs),
(180,638,o),
(144,620,o),
(103,602,c),
(103,591,o),
(104,578,o),
(106,570,c),
(136,587,o),
(192,610,o),
(267,610,cs),
(386,610,o),
(460,480,o),
(460,298,c),
(407,424,o),
(343,441,o),
(254,441,cs),
(113,441,o),
(51,336,o),
(51,208,cs),
(51,132,o),
(89,-4,o),
(270,-4,cs),
(436,-4,o),
(486,146,o),
(486,289,cs)
);
}
);
width = 558;
}
);
unicode = 240;
changeCount = 3;
},
{
glyphname = e;
kernLeft = e;
kernRight = e;
lastChange = "2024-10-04 06:55:24 +0000";
layers = (
{
layerId = "7EBE3D46-E53E-419E-A3EC-596DA2EA1E0D";
name = Regular;
shapes = (
{
closed = 1;
nodes = (
(494,413,o),
(380,519,o),
(259,516.991,cs),
(124,515,o),
(51,454,o),
(40.684,268.622,cs),
(40,87,o),
(140,-8,o),
(256,-8,cs),
(318,-7,o),
(356,7,o),
(397,28,c),
(401,68,o),
(393,145,o),
(381,179,c),
(357,166,o),
(315,152,o),
(276,152,cs),
(239,152,o),
(178,170,o),
(160,217,c),
(464,217,l)
);
},
{
closed = 1;
nodes = (
(167,322,o),
(218,356,o),
(258,356,cs),
(314,356,o),
(349,328,o),
(368,295,c),
(159,295,l)
);
}
);
width = 512;
},
{
layerId = m002;
name = Regular;
shapes = (
{
closed = 1;
nodes = (
(473,402,o),
(402,520,o),
(256.506,516.989,cs),
(94,515,o),
(40,388,o),
(40,236,cs),
(40,87,o),
(140,1,o),
(256,1,cs),
(328,2,o),
(368,15,o),
(421,35,c),
(422,46,o),
(421,62,o),
(419,70,c),
(380,53,o),
(328,30,o),
(257,30,cs),
(167,30,o),
(81,83,o),
(71,226,c),
(457,225,l)
);
},
{
closed = 1;
nodes = (
(71,410,o),
(153,486,o),
(257,487,cs),
(360,486,o),
(438,419,o),
(430,258,c),
(70,258,l)
);
}
);
width = 499;
},
{
layerId = m003;
name = Regular;
shapes = (
{
closed = 1;
nodes = (
(494,413,o),
(382,517,o),
(259,516.991,cs),
(113,517,o),
(40,450,o),
(40,236,cs),
(40,87,o),
(140,-8,o),
(256,-8,cs),
(318,-7,o),
(356,7,o),
(397,28,c),
(401,68,o),
(393,145,o),
(381,179,c),
(357,166,o),
(285,152,o),
(236,152,cs),
(174,152,o),
(113,170,o),
(92,217,c),
(464,217,l)
);
},
{
closed = 1;
nodes = (
(103,338,o),
(177,356,o),
(258,356,cs),
(305,356,o),
(395,337,o),
(405,275,c),
(86,275,l)
);
}
);
width = 510;
},
{
layerId = m004;
name = Regular;
shapes = (
{
closed = 1;
nodes = (
(463,398,o),
(403,520,o),
(256.505,516.989,cs),
(126,515,o),
(40,428,o),
(40,236,cs),
(40,87,o),
(140,1,o),
(256,1,cs),
(328,2,o),
(368,15,o),
(421,35,c),
(422,46,o),
(421,62,o),
(419,70,c),
(380,53,o),
(328,30,o),
(257,30,cs),
(167,30,o),
(81,83,o),
(71,226,c),
(457,225,l)
);
},
{
closed = 1;
nodes = (
(71,410,o),
(153,486,o),
(257,487,cs),
(360,486,o),
(438,419,o),
(430,258,c),
(70,258,l)
);
}
);
width = 497;
},
{
layerId = m005;
name = Regular;
shapes = (
{
closed = 1;
nodes = (
(495,419,o),
(390,517,o),
(257.944,516.998,cs),
(122,517,o),
(40,415,o),
(40,236,cs),
(40,87,o),
(130,-8,o),
(276,-8,cs),
(348,-7,o),
(386,7,o),
(427,28,c),
(431,68,o),
(423,145,o),
(411,179,c),
(387,166,o),
(345,152,o),
(296,152,cs),
(251,152,o),
(192,170,o),
(172,217,c),
(464,217,l)
);
},
{
closed = 1;
nodes = (
(183,342,o),
(218,356,o),
(258,356,cs),
(324,356,o),
(349,328,o),
(368,295,c),
(168.994,295,l)
);
}
);
width = 500;
},
{
layerId = m006;
name = Regular;
shapes = (
{
closed = 1;
nodes = (
(463,398,o),
(402,520,o),
(256.505,516.989,cs),
(126,515,o),
(40,428,o),
(40,236,cs),
(40,87,o),
(140,1,o),
(256,1,cs),
(328,2,o),
(368,15,o),
(421,35,c),
(422,46,o),
(421,62,o),
(419,70,c),
(380,53,o),
(328,30,o),
(257,30,cs),
(167,30,o),
(81,83,o),
(71,226,c),
(457,225,l)
);
},
{
closed = 1;
nodes = (
(71,410,o),
(153,486,o),
(257,487,cs),
(360,486,o),
(438,419,o),
(430,258,c),
(70,258,l)
);
}
);
width = 500;
},
{
layerId = m007;
name = Regular;
shapes = (
{
closed = 1;
nodes = (
(473,402,o),
(402,520,o),
(256.506,516.989,cs),
(94,515,o),
(40,388,o),
(40,236,cs),
(40,87,o),
(140,1,o),
(256,1,cs),
(328,2,o),
(368,15,o),
(421,35,c),
(422,46,o),
(421,62,o),
(419,70,c),
(380,53,o),
(328,30,o),
(257,30,cs),
(167,30,o),
(81,83,o),
(71,226,c),
(457,225,l)
);
},
{
closed = 1;
nodes = (
(71,410,o),
(153,486,o),
(257,487,cs),
(360,486,o),
(438,419,o),
(430,258,c),
(70,258,l)
);
}
);
width = 499;
}
);
unicode = 101;
changeCount = 3;
},
{
glyphname = f;
kernLeft = h;
kernRight = f;
lastChange = "2024-10-04 06:55:24 +0000";
layers = (
{
layerId = "7EBE3D46-E53E-419E-A3EC-596DA2EA1E0D";
name = Regular;
shapes = (
{
closed = 1;
nodes = (
(211,347,l),
(332,347,l),
(332,507,l),
(211,507,l),
(211,516,ls),
(211,576,o),
(231,599,o),
(266,600,cs),
(295,601,o),
(322,589,o),
(362,579,c),
(370,631,o),
(376,690,o),
(375,737,c),
(316,762,o),
(264,766,o),
(222,766,cs),
(133,766,o),
(56,694,o),
(56,568,cs),
(56,507,l),
(40,507,l),
(40,347,l),
(56,347,l),
(56,0,l),
(211,0,l)
);
}
);
width = 395;
},
{
layerId = m002;
name = Regular;
shapes = (
{
closed = 1;
nodes = (
(87,476,l),
(296,476,l),
(296,506,l),
(87,506,l),
(87,528,ls),
(87,633,o),
(104,695,o),
(216,695,cs),
(255,695,o),
(297,684,o),
(345,666,c),
(347,676,o),
(349,694,o),
(349,703,c),
(305,718,o),
(258,731,o),
(216,731,cs),
(127,731,o),
(60,696,o),
(60,560,cs),
(60,506,l),
(34,506,l),
(34,476,l),
(60,476,l),
(60,0,l),
(87,0,l)
);
}
);
width = 349;
},
{
layerId = m003;
name = Regular;
shapes = (
{
closed = 1;
nodes = (
(131,347,l),
(332,347,l),
(332,507,l),
(131,507,l),
(131,516,ls),
(131,576,o),
(171,599,o),
(236,600,cs),
(285,601,o),
(342,589,o),
(382,579,c),
(390,631,o),
(396,690,o),
(395,737,c),
(336,762,o),
(284,766,o),
(242,766,cs),
(153,766,o),
(76,694,o),
(76,568,cs),
(76,507,l),
(40,507,l),
(40,347,l),
(76,347,l),
(76,0,l),
(131,0,l)
);
}
);
width = 397;
},
{
layerId = m004;
name = Regular;
shapes = (
{
closed = 1;
nodes = (
(87,476,l),
(296,476,l),
(296,506,l),
(87,506,l),
(87,528,ls),
(87,633,o),
(104,695,o),
(216,695,cs),
(255,695,o),
(297,684,o),
(345,666,c),
(347,676,o),
(349,694,o),
(349,703,c),
(305,718,o),
(258,731,o),
(216,731,cs),
(127,731,o),
(60,696,o),
(60,560,cs),
(60,506,l),
(34,506,l),
(34,476,l),
(60,476,l),
(60,0,l),
(87,0,l)
);
}
);
width = 349;
},
{
layerId = m005;
name = Regular;
shapes = (
{
closed = 1;
nodes = (
(211,347,l),
(402,347,l),
(402,507,l),
(211,507,l),
(211,516,ls),
(211,576,o),
(231,609,o),
(306,610,cs),
(375,611,o),
(418,589,o),
(458,579,c),
(468,598,o),
(477,710,o),
(476,737,c),
(417,762,o),
(334,776,o),
(262,776,cs),
(173,776,o),
(56,694,o),
(56,568,cs),
(56,507,l),
(40,507,l),
(40,347,l),
(56,347,l),
(56,0,l),
(211,0,l)
);
}
);
width = 500;
},
{
layerId = m006;
name = Regular;
shapes = (
{
closed = 1;
nodes = (
(197,476,l),
(406,476,l),
(406,506,l),
(197,506,l),
(197,528,ls),
(197,633,o),
(214,695,o),
(326,695,cs),
(365,695,o),
(407,684,o),
(455,666,c),
(457,676,o),
(459,694,o),
(459,703,c),
(415,718,o),
(368,731,o),
(326,731,cs),
(237,731,o),
(170,696,o),
(170,560,cs),
(170,506,l),
(144,506,l),
(144,476,l),
(170,476,l),
(170,0,l),
(197,0,l)
);
}
);
width = 500;
},
{
layerId = m007;
name = Regular;
shapes = (
{
closed = 1;
nodes = (
(87,476,l),
(296,476,l),
(296,506,l),
(87,506,l),
(87,528,ls),
(87,633,o),
(104,695,o),
(216,695,cs),
(255,695,o),
(297,684,o),
(345,666,c),
(347,676,o),
(349,694,o),
(349,703,c),
(305,718,o),
(258,731,o),
(216,731,cs),
(127,731,o),
(60,696,o),
(60,560,cs),
(60,506,l),
(34,506,l),
(34,476,l),
(60,476,l),
(60,0,l),
(87,0,l)
);
}
);
width = 349;
}
);
unicode = 102;
changeCount = 3;
},
{
glyphname = g;
kernLeft = e;
lastChange = "2024-10-04 06:55:24 +0000";
layers = (
{
layerId = "7EBE3D46-E53E-419E-A3EC-596DA2EA1E0D";
name = Regular;
shapes = (
{
closed = 1;
nodes = (
(421,-251,o),
(532,-192,o),
(532,-50,cs),
(532,61,o),
(426,140,o),
(277,140,cs),
(179,140,o),
(180,159,o),
(196,182,c),
(218,177,o),
(242,175,o),
(268,175,cs),
(272,175,l),
(277,175,l),
(281,175,ls),
(422,175,o),
(484,215,o),
(484,270,cs),
(484,316,o),
(452,341,o),
(411,354,c),
(500,342,l),
(505,382,o),
(507,463,o),
(498,510,c),
(268,510,ls),
(127,510,o),
(64,433,o),
(64,335,cs),
(64,284,o),
(82,244,o),
(116,217,c),
(85,168,o),
(87,91,o),
(144,71,c),
(79,65,o),
(30,1,o),
(30,-77,cs),
(31,-165,o),
(90,-251,o),
(273,-251,cs),
(299,-251,ls)
);
},
{
closed = 1;
nodes = (
(143,-27,o),
(176,0,o),
(284,0,cs),
(287,0,ls),
(393,0,o),
(419,-26,o),
(419,-59,cs),
(419,-100,o),
(399,-125,o),
(287,-125,cs),
(284,-125,ls),
(172,-125,o),
(143,-100,o),
(143,-60,cs)
);
},
{
closed = 1;
nodes = (
(177,332,o),
(194,350,o),
(269,350,cs),
(280,350,ls),
(355,350,o),
(371,330,o),
(371,314,cs),
(371,294,o),
(355,275,o),
(280,275,cs),
(269,275,ls),
(194,275,o),
(177,294,o),
(177,314,cs)
);
}
);
width = 562;
},
{
layerId = m002;
name = Regular;
shapes = (
{
closed = 1;
nodes = (
(396,-251,o),
(507,-215,o),
(507,-114,cs),
(507,-19,o),
(422,29,o),
(263,29,cs),
(89,29,o),
(102,124,o),
(120,154,c),
(153,129,o),
(197,115,o),
(253,115,cs),
(257,115,l),
(262,115,l),
(266,115,ls),
(397,115,o),
(469,202,o),
(469,303,cs),
(469,434,o),
(384,476,o),
(315,490,c),
(464,479,l),
(463,489,o),
(463,500,o),
(462,510,c),
(253,510,ls),
(112,510,o),
(49,426,o),
(49,313,cs),
(51,252,o),
(69,204,o),
(102,170,c),
(55,119,o),
(108,28,o),
(179,16,c),
(114,10,o),
(25,-20,o),
(25,-118,cs),
(26,-206,o),
(112,-251,o),
(239,-251,cs),
(284,-251,ls)
);
},
{
closed = 1;
nodes = (
(46,-45,o),
(115,0,o),
(258,0,cs),
(264,0,ls),
(403,0,o),
(486,-37,o),
(487,-115,cs),
(486,-180,o),
(414,-224,o),
(264,-224,cs),
(258,-224,ls),
(107,-224,o),
(46,-176,o),
(44,-118,c)
);
},
{
closed = 1;
nodes = (
(71,441,o),
(164,480,o),
(259,480,cs),
(270,480,ls),
(345,480,o),
(448,429,o),
(448,305,cs),
(448,191,o),
(340,148,o),
(265,148,cs),
(254,148,ls),
(179,148,o),
(71,181,o),
(71,312,cs)
);
}
);
width = 520;
},
{
layerId = m003;
name = Regular;
shapes = (
{
closed = 1;
nodes = (
(421,-251,o),
(532,-192,o),
(532,-50,cs),
(532,61,o),
(416,140,o),
(267,140,cs),
(136,140,o),
(131,174,o),
(145,199,c),
(177,183,o),
(218,175,o),
(268,175,cs),
(272,175,l),
(277,175,l),
(281,175,ls),
(422,175,o),
(484,225,o),
(484,280,cs),
(484,308,o),
(472,331,o),
(452,348,c),
(500,342,l),
(505,382,o),
(507,463,o),
(498,510,c),
(268,510,ls),
(127,510,o),
(64,433,o),
(64,336,cs),
(64,284,o),
(82,244,o),
(116,217,c),
(85,168,o),
(87,91,o),
(144,71,c),
(79,65,o),
(30,1,o),
(30,-77,cs),
(31,-165,o),
(90,-251,o),
(273,-251,cs),
(299,-251,ls)
);
},
{
closed = 1;
nodes = (
(73,-27,o),
(136,0,o),
(284,0,cs),
(287,0,ls),
(443,0,o),
(499,-26,o),
(499,-59,cs),
(499,-100,o),
(449,-125,o),
(287,-125,cs),
(284,-125,ls),
(132,-125,o),
(73,-100,o),
(73,-60,cs)
);
},
{
closed = 1;
nodes = (
(117,332,o),
(134,350,o),
(269,350,cs),
(280,350,ls),
(405,350,o),
(431,330,o),
(431,314,cs),
(431,294,o),
(405,265,o),
(280,265,cs),
(269,265,ls),
(134,265,o),
(117,294,o),
(117,314,cs)
);
}
);
width = 562;
},
{
layerId = m004;
name = Regular;
shapes = (
{
closed = 1;
nodes = (
(396,-251,o),
(507,-215,o),
(507,-114,cs),
(507,-19,o),
(422,29,o),
(263,29,cs),
(89,29,o),
(102,124,o),
(120,154,c),
(153,129,o),
(197,115,o),
(253,115,cs),
(257,115,l),
(262,115,l),
(266,115,ls),
(397,115,o),
(469,202,o),
(469,303,cs),
(469,434,o),
(384,476,o),
(316,488,c),
(464,479,l),
(463,489,o),
(463,500,o),
(462,510,c),
(253,510,ls),
(112,510,o),
(49,426,o),
(49,313,cs),
(51,252,o),
(69,204,o),
(102,170,c),
(55,119,o),
(108,28,o),
(179,16,c),
(114,10,o),
(25,-20,o),
(25,-118,cs),
(26,-206,o),
(112,-251,o),
(239,-251,cs),
(284,-251,ls)
);
},
{
closed = 1;
nodes = (
(46,-45,o),
(115,0,o),
(258,0,cs),
(264,0,ls),
(403,0,o),
(486,-37,o),
(487,-115,cs),
(486,-180,o),
(414,-224,o),
(264,-224,cs),
(258,-224,ls),
(107,-224,o),
(46,-176,o),
(44,-118,c)
);
},
{
closed = 1;
nodes = (
(71,441,o),
(164,480,o),
(259,480,cs),
(270,480,ls),
(345,480,o),
(448,429,o),
(448,305,cs),
(448,191,o),
(340,148,o),
(265,148,cs),
(254,148,ls),
(179,148,o),
(71,181,o),
(71,312,cs)
);
}
);
width = 520;
},
{
layerId = m005;
name = Regular;
shapes = (
{
closed = 1;
nodes = (
(381,-251,o),
(492,-192,o),
(492,-50,cs),
(492,61,o),
(386,140,o),
(237,140,cs),
(139,140,o),
(140,159,o),
(156,182,c),
(178,177,o),
(202,175,o),
(228,175,cs),
(232,175,l),
(237,175,l),
(241,175,ls),
(382,175,o),
(444,215,o),
(444,270,cs),
(444,316,o),
(412,341,o),
(371,354,c),
(460,342,l),
(465,382,o),
(467,463,o),
(458,510,c),
(228,510,ls),
(87,510,o),
(24,433,o),
(24,336,cs),
(24,284,o),
(42,244,o),
(76,217,c),
(45,168,o),
(47,91,o),
(104,71,c),
(39,65,o),
(-10,1,o),
(-10,-77,cs),
(-9,-165,o),
(50,-251,o),
(233,-251,cs),
(259,-251,ls)
);
},
{
closed = 1;
nodes = (
(103,-27,o),
(136,0,o),
(244,0,cs),
(247,0,ls),
(353,0,o),
(379,-26,o),
(379,-59,cs),
(379,-100,o),
(359,-125,o),
(247,-125,cs),
(244,-125,ls),
(132,-125,o),
(103,-100,o),
(103,-60,cs)
);
},
{
closed = 1;
nodes = (
(137,332,o),
(154,350,o),
(229,350,cs),
(240,350,ls),
(315,350,o),
(331,330,o),
(331,314,cs),
(331,294,o),
(315,275,o),
(240,275,cs),
(229,275,ls),
(154,275,o),
(137,294,o),
(137,314,cs)
);
}
);
width = 500;
},
{
layerId = m006;
name = Regular;
shapes = (
{
closed = 1;
nodes = (
(396,-251,o),
(507,-215,o),
(507,-114,cs),
(507,-19,o),
(422,29,o),
(263,29,cs),
(89,29,o),
(102,124,o),
(120,154,c),
(153,129,o),
(197,115,o),
(253,115,cs),
(257,115,l),
(262,115,l),
(266,115,ls),
(397,115,o),
(469,202,o),
(469,303,cs),
(469,434,o),
(384,476,o),
(315,490,c),
(464,479,l),
(463,489,o),
(463,500,o),
(462,510,c),
(253,510,ls),
(112,510,o),
(49,426,o),
(49,312,cs),
(51,252,o),
(69,204,o),
(102,170,c),
(55,119,o),
(108,28,o),
(179,16,c),
(114,10,o),
(25,-20,o),
(25,-118,cs),
(26,-206,o),
(112,-251,o),
(239,-251,cs),
(284,-251,ls)
);
},
{
closed = 1;
nodes = (
(46,-45,o),
(115,0,o),
(258,0,cs),
(264,0,ls),
(403,0,o),
(486,-37,o),
(487,-115,cs),
(486,-180,o),
(414,-224,o),
(264,-224,cs),
(258,-224,ls),
(107,-224,o),
(46,-176,o),
(44,-118,c)
);
},
{
closed = 1;
nodes = (
(71,441,o),
(164,480,o),
(259,480,cs),
(270,480,ls),
(345,480,o),
(448,429,o),
(448,305,cs),
(448,191,o),
(340,148,o),
(265,148,cs),
(254,148,ls),
(179,148,o),
(71,181,o),
(71,312,cs)
);
}
);
width = 500;
},
{
layerId = m007;
name = Regular;
shapes = (
{
closed = 1;
nodes = (
(396,-251,o),
(507,-215,o),
(507,-114,cs),
(507,-19,o),
(422,29,o),
(263,29,cs),
(89,29,o),
(102,124,o),
(120,154,c),
(153,129,o),
(197,115,o),
(253,115,cs),
(257,115,l),
(262,115,l),
(266,115,ls),
(397,115,o),
(469,202,o),
(469,303,cs),
(469,434,o),
(384,476,o),
(315,490,c),
(464,479,l),
(463,489,o),
(463,500,o),
(462,510,c),
(253,510,ls),
(112,510,o),
(49,426,o),
(49,313,cs),
(51,252,o),
(69,204,o),
(102,170,c),
(55,119,o),
(108,28,o),
(179,16,c),
(114,10,o),
(25,-20,o),
(25,-118,cs),
(26,-206,o),
(112,-251,o),
(239,-251,cs),
(284,-251,ls)
);
},
{
closed = 1;
nodes = (
(46,-45,o),
(115,0,o),
(258,0,cs),
(264,0,ls),
(403,0,o),
(486,-37,o),
(487,-115,cs),
(486,-180,o),
(414,-224,o),
(264,-224,cs),
(258,-224,ls),
(107,-224,o),
(46,-176,o),
(44,-118,c)
);
},
{
closed = 1;
nodes = (
(71,441,o),
(164,480,o),
(259,480,cs),
(270,480,ls),
(345,480,o),
(448,429,o),
(448,305,cs),
(448,191,o),
(340,148,o),
(265,148,cs),
(254,148,ls),
(179,148,o),
(71,181,o),
(71,312,cs)
);
}
);
width = 520;
}
);
unicode = 103;
changeCount = 3;
},
{
glyphname = jdotless;
lastChange = "2024-10-04 06:55:24 +0000";
layers = (
{
layerId = "7EBE3D46-E53E-419E-A3EC-596DA2EA1E0D";
shapes = (
{
closed = 1;
nodes = (
(-53,-228,o),
(-14,-253,o),
(62,-253,cs),
(160,-253,o),
(273,-197,o),
(273,-53,c),
(273,415,l),
(273,468,o),
(254,508,o),
(193,508,cs),
(125,508,ls),
(105,508,o),
(106,491,o),
(106,462,cs),
(107,375,l),
(108,364,o),
(111,356,o),
(118,352,c),
(118,350,l),
(118,-13,ls),
(118,-65,o),
(84,-86,o),
(48,-86,cs),
(11,-86,o),
(-22,-56,o),
(-55,-39,c),
(-75,-79,o),
(-90,-139,o),
(-95,-200,c)
);
}
);
width = 336;
},
{
layerId = m002;
shapes = (
{
closed = 1;
nodes = (
(-43,-238,o),
(-15,-252,o),
(51,-252,cs),
(139,-252,o),
(214,-187,o),
(214,-63,cs),
(214,495,ls),
(214,504,o),
(211,509,o),
(200,509,cs),
(178,509,ls),
(169,509,o),
(166,505,o),
(168,499,cs),
(175,478,ls),
(179,467,o),
(181,466,o),
(187,466.001,c),
(187,464,l),
(187,-43,ls),
(187,-177,o),
(116,-222,o),
(50,-222,cs),
(-7,-222,o),
(-48,-196,o),
(-81,-170,c),
(-87,-180,o),
(-91,-190,o),
(-95,-200,c)
);
}
);
width = 306;
},
{
layerId = m003;
shapes = (
{
closed = 1;
nodes = (
(27,-228,o),
(66,-253,o),
(122,-253,cs),
(200,-253,o),
(273,-197,o),
(273,-73,cs),
(273,415,ls),
(273,468,o),
(255,506,o),
(193,508,cs),
(87,508,ls),
(67,508,o),
(62,490,o),
(68,462,cs),
(87,375,ls),
(91,359,o),
(95,349,o),
(112,349,cs),
(218,349,l),
(218,-13,ls),
(218,-65,o),
(163,-86,o),
(127,-86,cs),
(80,-86,o),
(48,-58,o),
(25,-39,c),
(5,-79,o),
(-10,-139,o),
(-15,-200,c)
);
}
);
width = 365;
},
{
layerId = m004;
shapes = (
{
closed = 1;
nodes = (
(-43,-238,o),
(-15,-252,o),
(51,-252,cs),
(139,-252,o),
(214,-187,o),
(214,-63,cs),
(214,495,ls),
(214,504,o),
(211,509,o),
(200,509,cs),
(178,509,ls),
(169,509,o),
(166,505,o),
(168,499,cs),
(175,478,ls),
(179,467,o),
(181,466,o),
(187,466.001,c),
(187,464,l),
(187,-43,ls),
(187,-177,o),
(116,-222,o),
(50,-222,cs),
(-7,-222,o),
(-48,-196,o),
(-81,-170,c),
(-87,-180,o),
(-91,-190,o),
(-95,-200,c)
);
}
);
width = 306;
},
{
layerId = m005;
shapes = (
{
closed = 1;
nodes = (
(87,-228,o),
(126,-253,o),
(202,-253,cs),
(300,-253,o),
(413,-197,o),
(413,-53,c),
(414,415,l),
(414,468,o),
(394,508,o),
(333,508,cs),
(115,508,ls),
(95,508,o),
(96,491,o),
(96,462,cs),
(97,375,l),
(98,359,o),
(105,349,o),
(122,349,cs),
(258,349,l),
(258,-13,ls),
(258,-65,o),
(224,-86,o),
(188,-86,cs),
(151,-86,o),
(118,-56,o),
(85,-39,c),
(65,-79,o),
(50,-139,o),
(45,-200,c)
);
}
);
width = 500;
},
{
layerId = m006;
shapes = (
{
closed = 1;
nodes = (
(57,-238,o),
(85,-252,o),
(151,-252,cs),
(239,-252,o),
(314,-187,o),
(314,-63,cs),
(314,495,ls),
(314,504,o),
(311,509,o),
(300,509,cs),
(188,509,ls),
(179,509,o),
(176,505,o),
(178,499,cs),
(185,478,ls),
(189,466,o),
(191,466,o),
(198,466,cs),
(287,466,l),
(287,-43,ls),
(287,-177,o),
(216,-222,o),
(150,-222,cs),
(93,-222,o),
(52,-196,o),
(19,-170,c),
(13,-180,o),
(9,-190,o),
(5,-200,c)
);
}
);
width = 500;
},
{
layerId = m007;
shapes = (
{
closed = 1;
nodes = (
(-43,-238,o),
(-15,-252,o),
(51,-252,cs),
(139,-252,o),
(214,-187,o),
(214,-63,cs),
(214,495,ls),
(214,504,o),
(211,509,o),
(200,509,cs),
(178,509,ls),
(169,509,o),
(166,505,o),
(168,499,cs),
(175,478,ls),
(179,467,o),
(181,466,o),
(187,466.001,c),
(187,464,l),
(187,-43,ls),
(187,-177,o),
(116,-222,o),
(50,-222,cs),
(-7,-222,o),
(-48,-196,o),
(-81,-170,c),
(-87,-180,o),
(-91,-190,o),
(-95,-200,c)
);
}
);
width = 306;
}
);
unicode = 567;
changeCount = 3;
},
{
glyphname = k;
kernLeft = h;
kernRight = v;
lastChange = "2024-10-04 06:55:24 +0000";
layers = (
{
layerId = "7EBE3D46-E53E-419E-A3EC-596DA2EA1E0D";
name = Regular;
shapes = (
{
alignment = -1;
pos = (30,0);
ref = _I_dbh;
},
{
closed = 1;
nodes = (
(422,328,o),
(446,414,o),
(533,510,c),
(486,519,o),
(421,519,o),
(340,510,c),
(233,401,o),
(196,258,o),
(196,234,cs),
(196,211,o),
(276,82,o),
(340,0,c),
(408,-10,o),
(473,-9,o),
(533,0,c),
(444,133,o),
(422,178,o),
(304,256,c)
);
}
);
width = 543;
},
{
layerId = m002;
name = Regular;
shapes = (
{
alignment = -1;
pos = (-58,0);
ref = _I_dbh;
},
{
closed = 1;
nodes = (
(161,282,o),
(290,426,o),
(408,510,c),
(393,511,o),
(373,512,o),
(362,510,c),
(277,449,o),
(160,342,o),
(92,254,c),
(156,189,o),
(284,70,o),
(382,0,c),
(400,-3,o),
(407,-2,o),
(425,0,c),
(316,77,o),
(162,232,o),
(118,256,c)
);
}
);
width = 445;
},
{
layerId = m003;
name = Regular;
shapes = (
{
alignment = -1;
pos = (36,0);
ref = _I_dbh;
},
{
closed = 1;
nodes = (
(277,341,o),
(344,455,o),
(419,510,c),
(392,518,o),
(327,518,o),
(286,510,c),
(228,441,o),
(102,288,o),
(102,264,cs),
(102,241,o),
(162,112,o),
(296,0,c),
(364,-10,o),
(419,-9,o),
(479,0,c),
(335,107,o),
(294,233,o),
(190,286,c)
);
}
);
width = 499;
},
{
layerId = m004;
name = Regular;
shapes = (
{
alignment = -1;
pos = (-58,0);
ref = _I_dbh;
},
{
closed = 1;
nodes = (
(161,282,o),
(290,426,o),
(408,510,c),
(393,511,o),
(373,512,o),
(362,510,c),
(277,449,o),
(160,342,o),
(92,254,c),
(156,189,o),
(284,70,o),
(382,0,c),
(400,-3,o),
(407,-2,o),
(425,0,c),
(316,77,o),
(162,232,o),
(118,256,c)
);
}
);
width = 445;
},
{
layerId = m005;
name = Regular;
shapes = (
{
alignment = -1;
pos = (30,-10);
ref = _I_dbh;
},
{
closed = 1;
nodes = (
(382,338,o),
(406,414,o),
(493,510,c),
(446,519,o),
(381,519,o),
(300,510,c),
(243,441,o),
(170,252,o),
(186,234,cs),
(216,201,o),
(256,102,o),
(310,0,c),
(378,-10,o),
(443,-9,o),
(503,0,c),
(434,103,o),
(382,228,o),
(274,266,c)
);
}
);
width = 500;
},
{
layerId = m006;
name = Regular;
shapes = (
{
alignment = -1;
pos = (-38,0);
ref = _I_dbh;
},
{
closed = 1;
nodes = (
(181,282,o),
(310,426,o),
(428,510,c),
(413,511,o),
(393,512,o),
(382,510,c),
(297,449,o),
(180,342,o),
(112,254,c),
(176,189,o),
(304,70,o),
(402,0,c),
(420,-3,o),
(427,-2,o),
(445,0,c),
(336,77,o),
(182,232,o),
(138,256,c)
);
}
);
width = 500;
},
{
layerId = m007;
name = Regular;
shapes = (
{
alignment = -1;
pos = (-58,0);
ref = _I_dbh;
},
{
closed = 1;
nodes = (
(161,282,o),
(290,426,o),
(408,510,c),
(393,511,o),
(373,512,o),
(362,510,c),
(277,449,o),
(160,342,o),
(92,254,c),
(156,189,o),
(284,70,o),
(382,0,c),
(400,-3,o),
(407,-2,o),
(425,0,c),
(316,77,o),
(162,232,o),
(118,256,c)
);
}
);
width = 445;
}
);
unicode = 107;
changeCount = 3;
},
{
glyphname = l;
kernLeft = h;
kernRight = h;
lastChange = "2024-10-04 06:55:24 +0000";
layers = (
{
layerId = "7EBE3D46-E53E-419E-A3EC-596DA2EA1E0D";
name = Regular;
shapes = (
{
closed = 1;
nodes = (
(93,2,l),
(248,2,l),
(248,669,ls),
(248,722,o),
(228,762,o),
(167,762,cs),
(99,762,ls),
(79,762,o),
(80,745,o),
(80,716,cs),
(79,633,ls),
(79,622,o),
(80,610,o),
(87,605,cs),
(93,601,l)
);
}
);
width = 328;
},
{
layerId = m002;
name = Regular;
shapes = (
{
closed = 1;
nodes = (
(68,2,l),
(95,2,l),
(95,714,ls),
(95,723,o),
(92,728,o),
(81,728,cs),
(50,728,ls),
(41,728,o),
(39,720,o),
(41,714,cs),
(47,697,ls),
(51,685,o),
(53,685,o),
(60,685,cs),
(68,685,l)
);
}
);
width = 167;
},
{
layerId = m003;
name = Regular;
shapes = (
{
closed = 1;
nodes = (
(152,2,l),
(207,2,l),
(207,668,ls),
(207,721,o),
(189,759,o),
(127,761,cs),
(21,761,ls),
(1,761,o),
(-4,743,o),
(2,715,cs),
(21,628,ls),
(25,612,o),
(29,602,o),
(46,602,cs),
(152,602,l)
);
}
);
width = 287;
},
{
layerId = m004;
name = Regular;
shapes = (
{
closed = 1;
nodes = (
(80,2,l),
(107,2,l),
(107,714,ls),
(107,723,o),
(104,728,o),
(93,728,cs),
(21,728,ls),
(12,728,o),
(9,724,o),
(11,718,cs),
(18,697,ls),
(22,685,o),
(24,685,o),
(31,685,cs),
(80,685,l)
);
}
);
width = 197;
},
{
layerId = m005;
name = Regular;
shapes = (
{
closed = 1;
nodes = (
(183,2,l),
(338,2,l),
(338,669,ls),
(338,722,o),
(318,762,o),
(257,762,cs),
(39,762,ls),
(19,762,o),
(20,745,o),
(20,716,cs),
(21,629,l),
(22,613,o),
(29,603,o),
(46,603,cs),
(183,601,l)
);
}
);
width = 500;
},
{
layerId = m006;
name = Regular;
shapes = (
{
closed = 1;
nodes = (
(260,2,l),
(287,2,l),
(287,714,ls),
(287,723,o),
(284,728,o),
(273,728,cs),
(161,728,ls),
(152,728,o),
(149,724,o),
(151,718,cs),
(158,697,ls),
(162,685,o),
(164,685,o),
(171,685,cs),
(260,685,l)
);
}
);
width = 500;
},
{
layerId = m007;
name = Regular;
shapes = (
{
closed = 1;
nodes = (
(68,2,l),
(95,2,l),
(95,714,ls),
(95,723,o),
(92,728,o),
(81,728,cs),
(50,728,ls),
(41,728,o),
(39,720,o),
(41,714,cs),
(47,697,ls),
(51,685,o),
(53,685,o),
(60,685,cs),
(68,685,l)
);
}
);
width = 167;
}
);
unicode = 108;
changeCount = 3;
},
{
glyphname = m;
kernLeft = n;
kernRight = n;
lastChange = "2024-10-04 06:55:24 +0000";
layers = (
{
layerId = "7EBE3D46-E53E-419E-A3EC-596DA2EA1E0D";
name = Regular;
shapes = (
{
closed = 1;
nodes = (
(269,522,o),
(220,494,o),
(184,448,c),
(175,513,l),
(60,513,l),
(60,1,l),
(215,1,l),
(215,349,l),
(234,359,o),
(258,361,o),
(285,361,cs),
(349,361,o),
(353,301,o),
(353,220,cs),
(353,1,l),
(496,1,l),
(496,225,ls),
(496,266,o),
(493,304,o),
(487,338,c),
(508,355,o),
(536,361,o),
(569,361,cs),
(633,361,o),
(637,301,o),
(637,220,cs),
(637,1,l),
(780,1,l),
(780,295,ls),
(778,440,o),
(721,522,o),
(587,522,cs),
(542,522,o),
(484,503,o),
(448,453,c),
(419,498,o),
(375,522,o),
(313,522,cs)
);
}
);
width = 840;
},
{
layerId = m002;
name = Regular;
shapes = (
{
closed = 1;
nodes = (
(145,511,o),
(111,473,o),
(85,416,c),
(82,511,l),
(60,511,l),
(60,1,l),
(87,1,l),
(87,381,l),
(117,442,o),
(156,480,o),
(206,480,cs),
(288,480,o),
(315,406,o),
(315,279,cs),
(315,0,l),
(342,0,l),
(342,290,ls),
(342,314,o),
(340,337,o),
(337,359,c),
(360,410,o),
(404,480,o),
(461,480,cs),
(537,480,o),
(577,441,o),
(577,300,cs),
(577,1,l),
(604,1,l),
(604,301,ls),
(602,466,o),
(563,511,o),
(469,511,cs),
(408,511,o),
(361,465,o),
(328,401,c),
(310,465,o),
(273,511,o),
(205,511,cs)
);
}
);
width = 664;
},
{
layerId = m003;
name = Regular;
shapes = (
{
closed = 1;
nodes = (
(162,513,o),
(123,453,o),
(103,408,c),
(95,513,l),
(60,513,l),
(60,1,l),
(115,1,l),
(115,321,l),
(141,343,o),
(181,361,o),
(236,361,cs),
(330,361,o),
(374,301,o),
(374,220,cs),
(374,1,l),
(417,1,l),
(417,225,ls),
(417,253,o),
(415,280,o),
(411,306,c),
(447,349,o),
(470,361,o),
(540,361,cs),
(634,361,o),
(678,301,o),
(678,220,cs),
(678,1,l),
(721,1,l),
(721,295,ls),
(719,440,o),
(652,513,o),
(548,513,cs),
(449,513,o),
(409,439,o),
(400,367,c),
(376,451,o),
(326,513,o),
(234,513,cs)
);
}
);
width = 781;
},
{
layerId = m004;
name = Regular;
shapes = (
{
closed = 1;
nodes = (
(142,511,o),
(107,469,o),
(85,414,c),
(82,511,l),
(60,511,l),
(60,1,l),
(87,1,l),
(87,381,l),
(108,430,o),
(143,480,o),
(196,480,cs),
(290,480,o),
(315,406,o),
(315,279,cs),
(315,0,l),
(342,0,l),
(342,290,ls),
(342,314,o),
(340,338,o),
(338,361,c),
(355,399,o),
(399,480,o),
(461,480,cs),
(537,480,o),
(577,441,o),
(577,300,cs),
(577,1,l),
(604,1,l),
(604,301,ls),
(602,466,o),
(563,511,o),
(469,511,cs),
(405,511,o),
(355,456,o),
(329,406,c),
(313,468,o),
(279,512,o),
(205,511,cs)
);
}
);
width = 664;
},
{
layerId = m005;
name = Regular;
shapes = (
{
closed = 1;
nodes = (
(209,525,o),
(170,507,o),
(144,463,c),
(135,513,l),
(20,513,l),
(20,1,l),
(175,1,l),
(175,360,l),
(177,361,o),
(180,361,o),
(183,361,cs),
(187,361,o),
(190,357,o),
(190,322,cs),
(190,4,l),
(333,4,l),
(333,228,ls),
(333,279,o),
(331,324,o),
(327,363,c),
(330,364,o),
(336,364,o),
(339,364,cs),
(344,364,o),
(347,352,o),
(347,324,cs),
(347,4,l),
(490,4,l),
(490,298,ls),
(490,443,o),
(471,525,o),
(387,525,cs),
(370,525,o),
(330,517,o),
(298,487,c),
(284,512,o),
(265,525,o),
(240,525,cs)
);
}
);
width = 500;
},
{
layerId = m006;
name = Regular;
shapes = (
{
closed = 1;
nodes = (
(105,511,o),
(77,473,o),
(54,417,c),
(51,511,l),
(29,511,l),
(29,1,l),
(56,1,l),
(56,380,l),
(85,442,o),
(115,480,o),
(166,480,cs),
(208,480,o),
(235,406,o),
(235,279,cs),
(235,0,l),
(262,0,l),
(262,290,ls),
(262,314,o),
(260,338,o),
(257,360,c),
(279,411,o),
(314,480,o),
(371,480,cs),
(407,480,o),
(447,441,o),
(447,300,cs),
(447,1,l),
(474,1,l),
(474,301,ls),
(472,466,o),
(433,511,o),
(379,511,cs),
(319,511,o),
(280,466,o),
(249,404,c),
(234,466,o),
(207,511,o),
(165,511,cs)
);
}
);
width = 500;
},
{
layerId = m007;
name = Regular;
shapes = (
{
closed = 1;
nodes = (
(145,511,o),
(111,473,o),
(85,416,c),
(82,511,l),
(60,511,l),
(60,1,l),
(87,1,l),
(87,381,l),
(117,442,o),
(156,480,o),
(206,480,cs),
(288,480,o),
(315,406,o),
(315,279,cs),
(315,0,l),
(342,0,l),
(342,290,ls),
(342,314,o),
(340,337,o),
(337,359,c),
(360,410,o),
(404,480,o),
(461,480,cs),
(537,480,o),
(577,441,o),
(577,300,cs),
(577,1,l),
(604,1,l),
(604,301,ls),
(602,466,o),
(563,511,o),
(469,511,cs),
(408,511,o),
(361,465,o),
(328,401,c),
(310,465,o),
(273,511,o),
(205,511,cs)
);
}
);
width = 664;
}
);
unicode = 109;
changeCount = 175;
},
{
glyphname = o;
kernLeft = e;
kernRight = e;
lastChange = "2024-10-04 06:55:24 +0000";
layers = (
{
layerId = "7EBE3D46-E53E-419E-A3EC-596DA2EA1E0D";
name = Regular;
shapes = (
{
closed = 1;
nodes = (
(207,145,o),
(163,168,o),
(163.002,253,cs),
(163,338,o),
(207,361,o),
(259,361,cs),
(311,361,o),
(355,338,o),
(354.998,253,cs),
(355,168,o),
(311,145,o),
(259,145,cs)
);
},
{
closed = 1;
nodes = (
(42,95,o),
(116,-16,o),
(259,-16,cs),
(402,-16,o),
(476,95,o),
(478,253,cs),
(476,411,o),
(402,522,o),
(259,522,cs),
(116,522,o),
(42,411,o),
(40,253,cs)
);
}
);
width = 518;
},
{
layerId = m002;
name = Regular;
shapes = (
{
closed = 1;
nodes = (
(153,21,o),
(70,98,o),
(70.001,253,cs),
(70,408,o),
(153,485,o),
(259,485,cs),
(365,485,o),
(448,408,o),
(447.999,253,cs),
(448,98,o),
(365,21,o),
(259,21,cs)
);
},
{
closed = 1;
nodes = (
(42,95,o),
(116,-9,o),
(259,-9,cs),
(402,-9,o),
(476,95,o),
(478,253,cs),
(476,411,o),
(402,515,o),
(259,515,cs),
(116,515,o),
(42,411,o),
(40,253,cs)
);
}
);
width = 517;
},
{
layerId = m003;
name = Regular;
shapes = (
{
closed = 1;
nodes = (
(167,145,o),
(84,168,o),
(83.004,253,cs),
(84,338,o),
(167,361,o),
(259,361,cs),
(351,361,o),
(434,338,o),
(434.996,253,cs),
(434,168,o),
(351,145,o),
(259,145,cs)
);
},
{
closed = 1;
nodes = (
(42,95,o),
(116,-16,o),
(259,-16,cs),
(402,-16,o),
(476,95,o),
(478,253,cs),
(476,411,o),
(402,522,o),
(259,522,cs),
(116,522,o),
(42,411,o),
(40,253,cs)
);
}
);
width = 518;
},
{
layerId = m004;
name = Regular;
shapes = (
{
closed = 1;
nodes = (
(153,21,o),
(70,98,o),
(70.001,253,cs),
(70,408,o),
(153,485,o),
(259,485,cs),
(365,485,o),
(448,408,o),
(447.999,253,cs),
(448,98,o),
(365,21,o),
(259,21,cs)
);
},
{
closed = 1;
nodes = (
(42,95,o),
(116,-9,o),
(259,-9,cs),
(402,-9,o),
(476,95,o),
(478,253,cs),
(476,411,o),
(402,515,o),
(259,515,cs),
(116,515,o),
(42,411,o),
(40,253,cs)
);
}
);
width = 517;
},
{
layerId = m005;
name = Regular;
shapes = (
{
closed = 1;
nodes = (
(207,145,o),
(163,168,o),
(163.002,253,cs),
(163,338,o),
(207,361,o),
(259,361,cs),
(311,361,o),
(355,338,o),
(354.998,253,cs),
(355,168,o),
(311,145,o),
(259,145,cs)
);
},
{
closed = 1;
nodes = (
(42,95,o),
(116,-16,o),
(259,-16,cs),
(402,-16,o),
(476,95,o),
(478,253,cs),
(476,411,o),
(402,522,o),
(259,522,cs),
(116,522,o),
(42,411,o),
(40,253,cs)
);
}
);
width = 500;
},
{
layerId = m006;
name = Regular;
shapes = (
{
closed = 1;
nodes = (
(153,21,o),
(70,98,o),
(70.001,253,cs),
(70,408,o),
(153,485,o),
(259,485,cs),
(365,485,o),
(448,408,o),
(447.999,253,cs),
(448,98,o),
(365,21,o),
(259,21,cs)
);
},
{
closed = 1;
nodes = (
(42,95,o),
(116,-9,o),
(259,-9,cs),
(402,-9,o),
(476,95,o),
(478,253,cs),
(476,411,o),
(402,515,o),
(259,515,cs),
(116,515,o),
(42,411,o),
(40,253,cs)
);
}
);
width = 500;
},
{
layerId = m007;
name = Regular;
shapes = (
{
closed = 1;
nodes = (
(153,21,o),
(70,98,o),
(70.001,253,cs),
(70,408,o),
(153,485,o),
(259,485,cs),
(365,485,o),
(448,408,o),
(447.999,253,cs),
(448,98,o),
(365,21,o),
(259,21,cs)
);
},
{
closed = 1;
nodes = (
(42,95,o),
(116,-9,o),
(259,-9,cs),
(402,-9,o),
(476,95,o),
(478,253,cs),
(476,411,o),
(402,515,o),
(259,515,cs),
(116,515,o),
(42,411,o),
(40,253,cs)
);
}
);
width = 517;
}
);
unicode = 111;
changeCount = 3;
},
{
glyphname = r;
kernLeft = i;
kernRight = f;
lastChange = "2024-10-04 06:55:24 +0000";
layers = (
{
layerId = "7EBE3D46-E53E-419E-A3EC-596DA2EA1E0D";
name = Regular;
shapes = (
{
closed = 1;
nodes = (
(457,376,o),
(460,447,o),
(456,498,c),
(406,518,o),
(335,527,o),
(297,510,cs),
(193,463,o),
(192,373,o),
(181,303,c),
(171,271,l),
(215,165,l),
(215,257,o),
(250,347,o),
(330,358,cs),
(367,363,o),
(426,344,o),
(453,329,c)
);
},
{
ref = "five-glyph";
}
);
width = 488;
},
{
hints = (
{
horizontal = 1;
place = (420, 80);
place = (420, 80);
type = Stem;
}
);
layerId = m002;
name = Regular;
shapes = (
{
closed = 1;
nodes = (
(346,477,o),
(346,492,o),
(345,504,c),
(314,510,o),
(286,515,o),
(260,515,c),
(161,515,o),
(85,450,o),
(74,332,c),
(63,230,l),
(87,278,l),
(87,393,o),
(133,481,o),
(264,481,cs),
(278,481,o),
(311,478,o),
(345,469,c)
);
},
{
ref = "five-glyph";
}
);
width = 376;
},
{
layerId = m003;
name = Regular;
shapes = (
{
closed = 1;
nodes = (
(350,376,o),
(356,457,o),
(356,498,c),
(306,518,o),
(254,532,o),
(207,514,cs),
(130,485,o),
(101,353,o),
(90,283,c),
(91,271,l),
(115,165,l),
(115,257,o),
(140,350,o),
(220,358,cs),
(267,363,o),
(316,344,o),
(343,329,c)
);
},
{
ref = "five-glyph";
}
);
width = 386;
},
{
hints = (
{
horizontal = 1;
place = (420, 80);
place = (420, 80);
type = Stem;
}
);
layerId = m004;
name = Regular;
shapes = (
{
closed = 1;
nodes = (
(346,477,o),
(346,492,o),
(345,504,c),
(314,510,o),
(286,515,o),
(260,515,c),
(161,515,o),
(85,450,o),
(74,332,c),
(63,230,l),
(87,278,l),
(87,393,o),
(133,481,o),
(264,481,cs),
(278,481,o),
(311,478,o),
(345,469,c)
);
},
{
ref = "five-glyph";
}
);
width = 376;
},
{
layerId = m005;
name = Regular;
shapes = (
{
closed = 1;
nodes = (
(457,376,o),
(460,447,o),
(456,498,c),
(406,518,o),
(335,527,o),
(297,510,cs),
(193,463,o),
(192,373,o),
(181,303,c),
(171,271,l),
(215,165,l),
(215,257,o),
(250,347,o),
(330,358,cs),
(367,363,o),
(426,344,o),
(453,329,c)
);
},
{
pos = (11,0);
ref = "five-glyph";
}
);
width = 497;
},
{
hints = (
{
horizontal = 1;
place = (420, 80);
place = (420, 80);
type = Stem;
}
);
layerId = m006;
name = Regular;
shapes = (
{
closed = 1;
nodes = (
(446,477,o),
(446,492,o),
(445,504,c),
(414,510,o),
(386,515,o),
(360,515,c),
(261,515,o),
(145,450,o),
(134,332,c),
(123,230,l),
(147,278,l),
(147,393,o),
(233,481,o),
(364,481,cs),
(378,481,o),
(411,478,o),
(445,469,c)
);
},
{
pos = (61,0);
ref = "five-glyph";
}
);
width = 500;
},
{
hints = (
{
horizontal = 1;
place = (420, 80);
place = (420, 80);
type = Stem;
}
);
layerId = m007;
name = Regular;
shapes = (
{
closed = 1;
nodes = (
(346,477,o),
(346,492,o),
(345,504,c),
(314,510,o),
(286,515,o),
(260,515,c),
(161,515,o),
(85,450,o),
(74,332,c),
(63,230,l),
(87,278,l),
(87,393,o),
(133,481,o),
(264,481,cs),
(278,481,o),
(311,478,o),
(345,469,c)
);
},
{
ref = "five-glyph";
}
);
width = 376;
}
);
unicode = 114;
changeCount = 3;
},
{
glyphname = s;
kernLeft = e;
kernRight = e;
lastChange = "2024-10-04 06:55:24 +0000";
layers = (
{
background = {
shapes = (
{
closed = 1;
nodes = (
(157,82,o),
(123,101,o),
(84,136,c),
(42,58,l),
(80,22,o),
(121,-7,o),
(213,-7,cs),
(325,-7,o),
(396,52,o),
(396,139,cs),
(396,231,o),
(331,267,o),
(228,297,cs),
(174,313,o),
(145,329,o),
(145,367,cs),
(145,405,o),
(179,416,o),
(219,416,cs),
(261,416,o),
(285,506,o),
(216,506,cs),
(118,506,o),
(48,458,o),
(48,376,cs),
(48,257,o),
(150,233,o),
(222,212,cs),
(282,194,o),
(305,176,o),
(305,143,cs),
(305,98,o),
(254,82,o),
(210,82,cs)
);
}
);
};
layerId = "7EBE3D46-E53E-419E-A3EC-596DA2EA1E0D";
name = Regular;
shapes = (
{
closed = 1;
nodes = (
(251,302,ls),
(222,313,o),
(211,318,o),
(211,332,cs),
(211,347,o),
(224,348,o),
(249,348,cs),
(281,348,o),
(343,333,o),
(385,314,c),
(398,360,o),
(415,444,o),
(415,483,c),
(348,503,o),
(302,514,o),
(238,514,cs),
(110,514,o),
(50,452,o),
(50,399,cs),
(50,298,o),
(105,265,o),
(199,227,cs),
(270,198,o),
(275,188,o),
(275,175,cs),
(275,162,o),
(265,158,o),
(230,158,cs),
(194,158,o),
(106,184,o),
(85,196,c),
(71,158,o),
(53,70,o),
(52,35,c),
(119,10,o),
(183,-4,o),
(247,-4,cs),
(355,-4,o),
(436,46,o),
(436,144,cs),
(436,219,o),
(376,256,o),
(300,284,cs)
);
}
);
width = 476;
},
{
background = {
shapes = (
{
closed = 1;
nodes = (
(158,82,o),
(124,101,o),
(85,136,c),
(43,58,l),
(81,22,o),
(122,-7,o),
(214,-7,cs),
(326,-7,o),
(397,52,o),
(397,139,cs),
(397,231,o),
(332,267,o),
(229,297,cs),
(175,313,o),
(146,329,o),
(146,367,cs),
(146,405,o),
(180,416,o),
(220,416,cs),
(262,416,o),
(286,506,o),
(217,506,cs),
(119,506,o),
(49,458,o),
(49,376,cs),
(49,257,o),
(151,233,o),
(223,212,cs),
(283,194,o),
(306,176,o),
(306,143,cs),
(306,98,o),
(255,82,o),
(211,82,cs)
);
}
);
};
layerId = m002;
name = Regular;
shapes = (
{
closed = 1;
nodes = (
(182,291,ls),
(155,299,o),
(84,332,o),
(84,384,cs),
(84,448,o),
(131,480,o),
(232,480,cs),
(293,480,o),
(349,465,o),
(400,440,c),
(403,450,o),
(404,463,o),
(404,475,c),
(355,497,o),
(303,510,o),
(229,510,cs),
(105,510,o),
(51,464,o),
(51,383,cs),
(51,313,o),
(114,276,o),
(224,242,cs),
(302,218,o),
(400,213,o),
(400,132,cs),
(400,63,o),
(327,34,o),
(239,34,cs),
(183,34,o),
(116,51,o),
(62,72,c),
(60,60,o),
(59,47,o),
(60,37,c),
(106,18,o),
(146,0,o),
(250,0,cs),
(338,0,o),
(437,39,o),
(437,134,cs),
(437,224,o),
(346,242,o),
(272,264,cs)
);
}
);
width = 477;
},
{
background = {
shapes = (
{
closed = 1;
nodes = (
(157,82,o),
(123,101,o),
(84,136,c),
(42,58,l),
(80,22,o),
(121,-7,o),
(213,-7,cs),
(325,-7,o),
(396,52,o),
(396,139,cs),
(396,231,o),
(331,267,o),
(228,297,cs),
(174,313,o),
(145,329,o),
(145,367,cs),
(145,405,o),
(179,416,o),
(219,416,cs),
(261,416,o),
(285,506,o),
(216,506,cs),
(118,506,o),
(48,458,o),
(48,376,cs),
(48,257,o),
(150,233,o),
(222,212,cs),
(282,194,o),
(305,176,o),
(305,143,cs),
(305,98,o),
(254,82,o),
(210,82,cs)
);
}
);
};
layerId = m003;
name = Regular;
shapes = (
{
closed = 1;
nodes = (
(201,296,ls),
(173,304,o),
(121,316,o),
(121,340,cs),
(121,353,o),
(134,361,o),
(179,360,cs),
(251,358,o),
(343,333,o),
(385,314,c),
(398,360,o),
(415,444,o),
(415,483,c),
(348,503,o),
(302,514,o),
(238,514,cs),
(110,514,o),
(50,472,o),
(50,372,cs),
(50,288,o),
(141,264,o),
(239,237,cs),
(318,215,o),
(354,204,o),
(355,177,cs),
(356,159,o),
(335,147,o),
(280,148,cs),
(204,149,o),
(106,184,o),
(85,196,c),
(71,158,o),
(53,70,o),
(52,35,c),
(119,10,o),
(183,-4,o),
(247,-4,cs),
(355,-4,o),
(436,46,o),
(436,128,cs),
(436,219,o),
(377,246,o),
(300,268,cs)
);
}
);
width = 476;
},
{
background = {
shapes = (
{
closed = 1;
nodes = (
(158,82,o),
(124,101,o),
(85,136,c),
(43,58,l),
(81,22,o),
(122,-7,o),
(214,-7,cs),
(326,-7,o),
(397,52,o),
(397,139,cs),
(397,231,o),
(332,267,o),
(229,297,cs),
(175,313,o),
(146,329,o),
(146,367,cs),
(146,405,o),
(180,416,o),
(220,416,cs),
(262,416,o),
(286,506,o),
(217,506,cs),
(119,506,o),
(49,458,o),
(49,376,cs),
(49,257,o),
(151,233,o),
(223,212,cs),
(283,194,o),
(306,176,o),
(306,143,cs),
(306,98,o),
(255,82,o),
(211,82,cs)
);
}
);
};
layerId = m004;
name = Regular;
shapes = (
{
closed = 1;
nodes = (
(182,291,ls),
(155,299,o),
(84,332,o),
(84,384,cs),
(84,448,o),
(131,480,o),
(232,480,cs),
(293,480,o),
(349,465,o),
(400,440,c),
(403,450,o),
(404,463,o),
(404,475,c),
(355,497,o),
(303,510,o),
(229,510,cs),
(105,510,o),
(51,464,o),
(51,383,cs),
(51,313,o),
(114,276,o),
(224,242,cs),
(302,218,o),
(400,213,o),
(400,132,cs),
(400,63,o),
(327,34,o),
(239,34,cs),
(183,34,o),
(116,51,o),
(62,72,c),
(60,60,o),
(59,47,o),
(60,37,c),
(106,18,o),
(146,0,o),
(250,0,cs),
(338,0,o),
(437,39,o),
(437,134,cs),
(437,224,o),
(346,242,o),
(272,264,cs)
);
}
);
width = 477;
},
{
background = {
shapes = (
{
closed = 1;
nodes = (
(157,82,o),
(123,101,o),
(84,136,c),
(42,58,l),
(80,22,o),
(121,-7,o),
(213,-7,cs),
(325,-7,o),
(396,52,o),
(396,139,cs),
(396,231,o),
(331,267,o),
(228,297,cs),
(174,313,o),
(145,329,o),
(145,367,cs),
(145,405,o),
(179,416,o),
(219,416,cs),
(261,416,o),
(285,506,o),
(216,506,cs),
(118,506,o),
(48,458,o),
(48,376,cs),
(48,257,o),
(150,233,o),
(222,212,cs),
(282,194,o),
(305,176,o),
(305,143,cs),
(305,98,o),
(254,82,o),
(210,82,cs)
);
}
);
};
layerId = m005;
name = Regular;
shapes = (
{
closed = 1;
nodes = (
(251,302,ls),
(222,313,o),
(211,318,o),
(211,332,cs),
(211,347,o),
(224,348,o),
(249,348,cs),
(281,348,o),
(343,333,o),
(385,314,c),
(398,360,o),
(415,444,o),
(415,483,c),
(348,503,o),
(302,514,o),
(238,514,cs),
(110,514,o),
(50,452,o),
(50,399,cs),
(50,298,o),
(105,265,o),
(199,227,cs),
(270,198,o),
(275,188,o),
(275,175,cs),
(275,162,o),
(265,158,o),
(230,158,cs),
(194,158,o),
(106,184,o),
(85,196,c),
(71,158,o),
(53,70,o),
(52,35,c),
(119,10,o),
(183,-4,o),
(247,-4,cs),
(355,-4,o),
(436,46,o),
(436,144,cs),
(436,219,o),
(376,256,o),
(300,284,cs)
);
}
);
width = 500;
},
{
background = {
shapes = (
{
closed = 1;
nodes = (
(158,82,o),
(124,101,o),
(85,136,c),
(43,58,l),
(81,22,o),
(122,-7,o),
(214,-7,cs),
(326,-7,o),
(397,52,o),
(397,139,cs),
(397,231,o),
(332,267,o),
(229,297,cs),
(175,313,o),
(146,329,o),
(146,367,cs),
(146,405,o),
(180,416,o),
(220,416,cs),
(262,416,o),
(286,506,o),
(217,506,cs),
(119,506,o),
(49,458,o),
(49,376,cs),
(49,257,o),
(151,233,o),
(223,212,cs),
(283,194,o),
(306,176,o),
(306,143,cs),
(306,98,o),
(255,82,o),
(211,82,cs)
);
}
);
};
layerId = m006;
name = Regular;
shapes = (
{
closed = 1;
nodes = (
(192,291,ls),
(165,299,o),
(94,332,o),
(94,384,cs),
(94,448,o),
(141,480,o),
(242,480,cs),
(303,480,o),
(359,465,o),
(410,440,c),
(413,450,o),
(414,463,o),
(414,475,c),
(365,497,o),
(313,510,o),
(239,510,cs),
(115,510,o),
(61,464,o),
(61,383,cs),
(61,313,o),
(124,276,o),
(234,242,cs),
(312,218,o),
(410,213,o),
(410,132,cs),
(410,63,o),
(337,34,o),
(249,34,cs),
(193,34,o),
(126,51,o),
(72,72,c),
(70,60,o),
(69,47,o),
(70,37,c),
(116,18,o),
(156,0,o),
(260,0,cs),
(348,0,o),
(447,39,o),
(447,134,cs),
(447,224,o),
(356,242,o),
(282,264,cs)
);
}
);
width = 499;
},
{
background = {
shapes = (
{
closed = 1;
nodes = (
(158,82,o),
(124,101,o),
(85,136,c),
(43,58,l),
(81,22,o),
(122,-7,o),
(214,-7,cs),
(326,-7,o),
(397,52,o),
(397,139,cs),
(397,231,o),
(332,267,o),
(229,297,cs),
(175,313,o),
(146,329,o),
(146,367,cs),
(146,405,o),
(180,416,o),
(220,416,cs),
(262,416,o),
(286,506,o),
(217,506,cs),
(119,506,o),
(49,458,o),
(49,376,cs),
(49,257,o),
(151,233,o),
(223,212,cs),
(283,194,o),
(306,176,o),
(306,143,cs),
(306,98,o),
(255,82,o),
(211,82,cs)
);
}
);
};
layerId = m007;
name = Regular;
shapes = (
{
closed = 1;
nodes = (
(182,291,ls),
(155,299,o),
(84,332,o),
(84,384,cs),
(84,448,o),
(131,480,o),
(232,480,cs),
(293,480,o),
(349,465,o),
(400,440,c),
(403,450,o),
(404,463,o),
(404,475,c),
(355,497,o),
(303,510,o),
(229,510,cs),
(105,510,o),
(51,464,o),
(51,383,cs),
(51,313,o),
(114,276,o),
(224,242,cs),
(302,218,o),
(400,213,o),
(400,132,cs),
(400,63,o),
(327,34,o),
(239,34,cs),
(183,34,o),
(116,51,o),
(62,72,c),
(60,60,o),
(59,47,o),
(60,37,c),
(106,18,o),
(146,0,o),
(250,0,cs),
(338,0,o),
(437,39,o),
(437,134,cs),
(437,224,o),
(346,242,o),
(272,264,cs)
);
}
);
width = 477;
}
);
unicode = 115;
changeCount = 3;
},
{
glyphname = germandbls;
kernLeft = h;
kernRight = c;
lastChange = "2024-10-04 06:55:24 +0000";
layers = (
{
layerId = "7EBE3D46-E53E-419E-A3EC-596DA2EA1E0D";
name = Regular;
shapes = (
{
closed = 1;
nodes = (
(426,237,o),
(325,232,o),
(325,251,c),
(325,275,o),
(426,265,o),
(426,369,c),
(426,455,o),
(341,514,o),
(239,514,c),
(139,514,o),
(60,444,o),
(60,326,c),
(60,1,l),
(151,1,l),
(151,262,l),
(151,321,o),
(159,355,o),
(233,355,c),
(281,355,o),
(301,325,o),
(301,308,c),
(301,248,o),
(210,283,o),
(210,249,c),
(210,206,o),
(325,238,o),
(325,190,cs),
(325,168,o),
(303,159,o),
(264,157,c),
(239,157,o),
(230,158,o),
(200,162,c),
(199,2,l),
(211,0,o),
(243,-6,o),
(275,-6,c),
(385,-6,o),
(426,71,o),
(426,133,c)
);
}
);
width = 476;
},
{
layerId = m002;
name = Regular;
shapes = (
{
closed = 1;
nodes = (
(426,227,o),
(300,229,o),
(300,248,c),
(300,272,o),
(426,265,o),
(426,369,c),
(426,455,o),
(341,514,o),
(239,514,c),
(115,514,o),
(60,444,o),
(60,326,c),
(60,1,l),
(87,1,l),
(87,262,l),
(87,440,o),
(125,484,o),
(242,484,c),
(303,479,o),
(396,455,o),
(396,369,c),
(396,269,o),
(210,283,o),
(210,249,c),
(210,206,o),
(396,237,o),
(396,123,cs),
(396,31,o),
(303,28,o),
(264,26,c),
(239,26,o),
(230,27,o),
(200,31,c),
(199,2,l),
(211,0,o),
(243,-6,o),
(275,-6,c),
(385,-6,o),
(426,51,o),
(426,123,c)
);
}
);
width = 476;
},
{
layerId = m003;
name = Regular;
shapes = (
{
closed = 1;
nodes = (
(426,237,o),
(325,232,o),
(325,251,c),
(325,275,o),
(426,265,o),
(426,369,c),
(426,455,o),
(341,514,o),
(239,514,c),
(139,514,o),
(60,444,o),
(60,326,c),
(60,1,l),
(151,1,l),
(151,262,l),
(151,321,o),
(159,355,o),
(233,355,c),
(281,355,o),
(301,325,o),
(301,308,c),
(301,248,o),
(210,283,o),
(210,249,c),
(210,206,o),
(325,238,o),
(325,190,cs),
(325,168,o),
(303,159,o),
(264,157,c),
(239,157,o),
(230,158,o),
(200,162,c),
(199,2,l),
(211,0,o),
(243,-6,o),
(275,-6,c),
(385,-6,o),
(426,71,o),
(426,133,c)
);
}
);
width = 476;
},
{
layerId = m004;
name = Regular;
shapes = (
{
closed = 1;
nodes = (
(426,227,o),
(300,229,o),
(300,248,c),
(300,272,o),
(426,265,o),
(426,369,c),
(426,455,o),
(341,514,o),
(239,514,c),
(115,514,o),
(60,444,o),
(60,326,c),
(60,1,l),
(87,1,l),
(87,262,l),
(87,440,o),
(125,484,o),
(242,484,c),
(303,479,o),
(396,455,o),
(396,369,c),
(396,269,o),
(210,283,o),
(210,249,c),
(210,206,o),
(396,237,o),
(396,123,cs),
(396,31,o),
(303,28,o),
(264,26,c),
(239,26,o),
(230,27,o),
(200,31,c),
(199,2,l),
(211,0,o),
(243,-6,o),
(275,-6,c),
(385,-6,o),
(426,51,o),
(426,123,c)
);
}
);
width = 476;
},
{
layerId = m005;
name = Regular;
shapes = (
{
closed = 1;
nodes = (
(426,237,o),
(325,232,o),
(325,251,c),
(325,275,o),
(426,265,o),
(426,369,c),
(426,455,o),
(341,514,o),
(239,514,c),
(139,514,o),
(60,444,o),
(60,326,c),
(60,1,l),
(151,1,l),
(151,262,l),
(151,321,o),
(159,355,o),
(233,355,c),
(281,355,o),
(301,325,o),
(301,308,c),
(301,248,o),
(210,283,o),
(210,249,c),
(210,206,o),
(325,238,o),
(325,190,cs),
(325,168,o),
(303,159,o),
(264,157,c),
(239,157,o),
(230,158,o),
(200,162,c),
(199,2,l),
(211,0,o),
(243,-6,o),
(275,-6,c),
(385,-6,o),
(426,71,o),
(426,133,c)
);
}
);
width = 500;
},
{
layerId = m006;
name = Regular;
shapes = (
{
closed = 1;
nodes = (
(426,227,o),
(300,229,o),
(300,248,c),
(300,272,o),
(426,265,o),
(426,369,c),
(426,455,o),
(341,514,o),
(239,514,c),
(115,514,o),
(60,444,o),
(60,326,c),
(60,1,l),
(87,1,l),
(87,262,l),
(87,440,o),
(125,484,o),
(242,484,c),
(303,479,o),
(396,455,o),
(396,369,c),
(396,269,o),
(210,283,o),
(210,249,c),
(210,206,o),
(396,237,o),
(396,123,cs),
(396,31,o),
(303,28,o),
(264,26,c),
(239,26,o),
(230,27,o),
(200,31,c),
(199,2,l),
(211,0,o),
(243,-6,o),
(275,-6,c),
(385,-6,o),
(426,51,o),
(426,123,c)
);
}
);
width = 500;
},
{
layerId = m007;
name = Regular;
shapes = (
{
closed = 1;
nodes = (
(426,227,o),
(300,229,o),
(300,248,c),
(300,272,o),
(426,265,o),
(426,369,c),
(426,455,o),
(341,514,o),
(239,514,c),
(115,514,o),
(60,444,o),
(60,326,c),
(60,1,l),
(87,1,l),
(87,262,l),
(87,440,o),
(125,484,o),
(242,484,c),
(303,479,o),
(396,455,o),
(396,369,c),
(396,269,o),
(210,283,o),
(210,249,c),
(210,206,o),
(396,237,o),
(396,123,cs),
(396,31,o),
(303,28,o),
(264,26,c),
(239,26,o),
(230,27,o),
(200,31,c),
(199,2,l),
(211,0,o),
(243,-6,o),
(275,-6,c),
(385,-6,o),
(426,51,o),
(426,123,c)
);
}
);
width = 476;
}
);
unicode = 223;
changeCount = 3;
},
{
glyphname = t;
kernLeft = c;
kernRight = c;
lastChange = "2024-10-04 06:55:24 +0000";
layers = (
{
hints = (
{
horizontal = 1;
place = (420, 80);
place = (420, 80);
type = Stem;
}
);
layerId = "7EBE3D46-E53E-419E-A3EC-596DA2EA1E0D";
name = Regular;
shapes = (
{
closed = 1;
nodes = (
(113,350,l),
(113,187,ls),
(113,43,o),
(226,-13,o),
(324,-13,cs),
(400,-13,o),
(439,12,o),
(481,40,c),
(476,101,o),
(461,161,o),
(441,201,c),
(408,184,o),
(375,154,o),
(338,154,cs),
(302,154,o),
(268,175,o),
(268,227,cs),
(268,350,l),
(395,350,l),
(425,511,l),
(268,511,l),
(270,549,o),
(269,604,o),
(266,628,cs),
(262,658,o),
(237,670,o),
(210,640,cs),
(132,554,o),
(75,483,o),
(24,401,cs),
(11,380,o),
(36,350,o),
(60,350,cs)
);
}
);
width = 531;
},
{
hints = (
{
horizontal = 1;
place = (420, 80);
place = (420, 80);
type = Stem;
}
);
layerId = m002;
name = Regular;
shapes = (
{
closed = 1;
nodes = (
(116,480,l),
(116,185,ls),
(116,61,o),
(191,-4,o),
(279,-4,cs),
(345,-4,o),
(373,10,o),
(425,48,c),
(421,58,o),
(417,68,o),
(411,78,c),
(378,52,o),
(337,26,o),
(280,26,cs),
(214,26,o),
(143,71,o),
(143,205,cs),
(143,480,l),
(356,480,l),
(356,511,l),
(143,511,l),
(144,524,o),
(144,655,o),
(142,669,cs),
(139,692,o),
(126,689,o),
(120,672,cs),
(109,640,o),
(79,524,o),
(75,502,cs),
(72,488,o),
(74,480,o),
(90,480,cs)
);
}
);
width = 459;
},
{
hints = (
{
horizontal = 1;
place = (420, 80);
place = (420, 80);
type = Stem;
}
);
layerId = m003;
name = Regular;
shapes = (
{
closed = 1;
nodes = (
(130,350,l),
(131,168,ls),
(131,45,o),
(204,-11,o),
(282,-11,cs),
(338,-11,o),
(377,14,o),
(419,42,c),
(414,103,o),
(399,163,o),
(379,203,c),
(356,184,o),
(324,156,o),
(277,156,cs),
(241,156,o),
(186,177,o),
(186,229,cs),
(186,350,l),
(313,350,l),
(343,511,l),
(186,511,l),
(188,549,o),
(187,604,o),
(184,628,cs),
(180,658,o),
(146,667,o),
(128,630,cs),
(91,554,o),
(60,483,o),
(32,401,cs),
(24,378,o),
(44,350,o),
(68,350,cs)
);
}
);
width = 469;
},
{
hints = (
{
horizontal = 1;
place = (420, 80);
place = (420, 80);
type = Stem;
}
);
layerId = m004;
name = Regular;
shapes = (
{
closed = 1;
nodes = (
(116,480,l),
(116,185,ls),
(116,61,o),
(191,-4,o),
(279,-4,cs),
(345,-4,o),
(373,10,o),
(425,48,c),
(421,58,o),
(417,68,o),
(411,78,c),
(378,52,o),
(337,26,o),
(280,26,cs),
(214,26,o),
(143,71,o),
(143,205,cs),
(143,480,l),
(356,480,l),
(356,511,l),
(143,511,l),
(144,524,o),
(144,655,o),
(142,669,cs),
(139,692,o),
(126,689,o),
(120,672,cs),
(109,640,o),
(79,524,o),
(75,502,cs),
(72,488,o),
(74,480,o),
(90,480,cs)
);
}
);
width = 459;
},
{
hints = (
{
horizontal = 1;
place = (420, 80);
place = (420, 80);
type = Stem;
}
);
layerId = m005;
name = Regular;
shapes = (
{
closed = 1;
nodes = (
(113,350,l),
(113,188,ls),
(113,44,o),
(226,-12,o),
(324,-12,cs),
(400,-12,o),
(439,13,o),
(481,41,c),
(476,102,o),
(461,162,o),
(441,202,c),
(408,185,o),
(375,155,o),
(338,155,cs),
(302,155,o),
(268,176,o),
(268,228,cs),
(268,350,l),
(395,350,l),
(425,511,l),
(268,511,l),
(270,549,o),
(269,604,o),
(266,628,cs),
(262,658,o),
(237,670,o),
(210,640,cs),
(132,554,o),
(75,483,o),
(24,401,cs),
(11,380,o),
(36,350,o),
(60,350,cs)
);
}
);
width = 500;
},
{
hints = (
{
horizontal = 1;
place = (420, 80);
place = (420, 80);
type = Stem;
}
);
layerId = m006;
name = Regular;
shapes = (
{
closed = 1;
nodes = (
(116,480,l),
(116,185,ls),
(116,61,o),
(191,-4,o),
(279,-4,cs),
(345,-4,o),
(373,10,o),
(425,48,c),
(421,58,o),
(417,68,o),
(411,78,c),
(378,52,o),
(337,26,o),
(280,26,cs),
(214,26,o),
(143,71,o),
(143,205,cs),
(143,480,l),
(356,480,l),
(356,511,l),
(143,511,l),
(144,524,o),
(144,655,o),
(142,669,cs),
(139,692,o),
(126,689,o),
(120,672,cs),
(109,640,o),
(79,524,o),
(75,502,cs),
(72,488,o),
(74,480,o),
(90,480,cs)
);
}
);
width = 500;
},
{
hints = (
{
horizontal = 1;
place = (420, 80);
place = (420, 80);
type = Stem;
}
);
layerId = m007;
name = Regular;
shapes = (
{
closed = 1;
nodes = (
(116,480,l),
(116,185,ls),
(116,61,o),
(191,-4,o),
(279,-4,cs),
(345,-4,o),
(373,10,o),
(425,48,c),
(421,58,o),
(417,68,o),
(411,78,c),
(378,52,o),
(337,26,o),
(280,26,cs),
(214,26,o),
(143,71,o),
(143,205,cs),
(143,480,l),
(356,480,l),
(356,511,l),
(143,511,l),
(144,524,o),
(144,655,o),
(142,669,cs),
(139,692,o),
(126,689,o),
(120,672,cs),
(109,640,o),
(79,524,o),
(75,502,cs),
(72,488,o),
(74,480,o),
(90,480,cs)
);
}
);
width = 459;
}
);
unicode = 116;
changeCount = 3;
},
{
glyphname = v;
kernLeft = v;
kernRight = v;
lastChange = "2024-10-04 06:55:24 +0000";
layers = (
{
layerId = "7EBE3D46-E53E-419E-A3EC-596DA2EA1E0D";
name = Regular;
shapes = (
{
closed = 1;
nodes = (
(314,-17,o),
(344,11,o),
(363,62,cs),
(534,506,l),
(484,516,o),
(434,516,o),
(384,516,c),
(276,121,l),
(275,117,o),
(273,112,o),
(272,108,c),
(270,112,o),
(269,116,o),
(268,121,cs),
(170,516,l),
(120,516,o),
(70,516,o),
(20,506,c),
(181,54,ls),
(196,11,o),
(231,-17,o),
(271,-17,cs)
);
}
);
width = 554;
},
{
layerId = m002;
shapes = (
{
closed = 1;
nodes = (
(261,-6,o),
(267,0,o),
(272,11,cs),
(483,510,l),
(472,513,o),
(461,515,o),
(450,515,c),
(267,71,ls),
(258,48,o),
(255,39,o),
(252,27,c),
(248,38,o),
(245,48,o),
(236,71,cs),
(53,515,l),
(42,515,o),
(31,513,o),
(20,510,c),
(231,11,ls),
(237,-3,o),
(244,-6,o),
(252,-6,cs)
);
}
);
width = 503;
},
{
layerId = m003;
name = Regular;
shapes = (
{
closed = 1;
nodes = (
(313,-17,o),
(328,12,o),
(343,54,cs),
(504,511,l),
(494,516,o),
(474,515,o),
(464,515,c),
(322,80,l),
(321,77,o),
(319,68,o),
(318,65,c),
(316,71,o),
(313,81,o),
(311,87,c),
(140,515,l),
(120,515,o),
(40,513,o),
(20,506,c),
(221,54,ls),
(240,12,o),
(251,-17,o),
(282,-17,c)
);
}
);
width = 524;
},
{
layerId = m004;
shapes = (
{
closed = 1;
nodes = (
(261,-6,o),
(267,0,o),
(272,11,cs),
(483,510,l),
(472,513,o),
(461,515,o),
(450,515,c),
(267,71,ls),
(258,48,o),
(255,39,o),
(252,27,c),
(248,38,o),
(245,48,o),
(236,71,cs),
(53,515,l),
(42,515,o),
(31,513,o),
(20,510,c),
(231,11,ls),
(237,-3,o),
(244,-6,o),
(252,-6,cs)
);
}
);
width = 503;
},
{
layerId = m005;
name = Regular;
shapes = (
{
closed = 1;
nodes = (
(300,-17,o),
(312,14,o),
(333,74,cs),
(484,501,l),
(434,511,o),
(384,511,o),
(334,511,c),
(256,191,ls),
(255,186,o),
(253,173,o),
(252,168,c),
(251,172,o),
(249,187,o),
(248,191,c),
(160,511,l),
(110,511,o),
(60,511,o),
(10,501,c),
(171,74,ls),
(187,32,o),
(201,-17,o),
(251,-17,cs)
);
}
);
width = 500;
},
{
layerId = m006;
shapes = (
{
closed = 1;
nodes = (
(261,-6,o),
(267,0,o),
(272,11,cs),
(483,510,l),
(472,513,o),
(461,515,o),
(450,515,c),
(267,71,ls),
(258,48,o),
(255,39,o),
(252,27,c),
(248,38,o),
(245,48,o),
(236,71,cs),
(53,515,l),
(42,515,o),
(31,513,o),
(20,510,c),
(231,11,ls),
(237,-3,o),
(244,-6,o),
(252,-6,cs)
);
}
);
width = 500;
},
{
layerId = m007;
shapes = (
{
closed = 1;
nodes = (
(261,-6,o),
(267,0,o),
(272,11,cs),
(483,510,l),
(472,513,o),
(461,515,o),
(450,515,c),
(267,71,ls),
(258,48,o),
(255,39,o),
(252,27,c),
(248,38,o),
(245,48,o),
(236,71,cs),
(53,515,l),
(42,515,o),
(31,513,o),
(20,510,c),
(231,11,ls),
(237,-3,o),
(244,-6,o),
(252,-6,cs)
);
}
);
width = 503;
}
);
unicode = 118;
changeCount = 3;
},
{
glyphname = w;
kernLeft = v;
kernRight = v;
lastChange = "2024-10-04 06:55:24 +0000";
layers = (
{
layerId = "7EBE3D46-E53E-419E-A3EC-596DA2EA1E0D";
name = Regular;
shapes = (
{
closed = 1;
nodes = (
(249,-10,o),
(275,22,o),
(282,49,cs),
(348,288,l),
(417,51,ls),
(425,23,o),
(449,-10,o),
(486,-10,cs),
(520,-10,o),
(548,27,o),
(555,51,cs),
(693,504,l),
(643,512,o),
(593,514,o),
(543,514,c),
(484,234,l),
(428,441,ls),
(416,487,o),
(385,517,o),
(354,517,c),
(353,517,ls),
(315,517,o),
(288,486,o),
(277,441,cs),
(228,235,l),
(170,514,l),
(120,514,o),
(70,512,o),
(20,504,c),
(150,51,ls),
(157,27,o),
(184,-10,o),
(217,-10,cs)
);
}
);
width = 712;
},
{
layerId = m002;
name = Regular;
shapes = (
{
closed = 1;
nodes = (
(207,0,o),
(215,16,o),
(219,31,c),
(357,470,l),
(496,31,l),
(501,15,o),
(511,0,o),
(522,0,cs),
(539,0,o),
(550,24,o),
(554,39,cs),
(693,510,l),
(683,513,o),
(674,515,o),
(664,515,c),
(524,43,l),
(385,478,l),
(379,493,o),
(374,509,o),
(358,509,c),
(357,509,ls),
(345,509,o),
(337,493,o),
(331,478,c),
(192,41,l),
(49,515,l),
(39,515,o),
(30,513,o),
(20,510,c),
(162,31,ls),
(166,16,o),
(178,0,o),
(191,0,cs)
);
}
);
width = 713;
},
{
layerId = m003;
name = Regular;
shapes = (
{
closed = 1;
nodes = (
(248,-10,o),
(257,22,o),
(271,79,cs),
(338,359,l),
(410,88,ls),
(422,42,o),
(440,-10,o),
(477,-10,cs),
(521,-10,o),
(545,40,o),
(556,91,cs),
(642,507,l),
(631,510,o),
(601,513,o),
(591,512,c),
(513,144,l),
(438,426,ls),
(426,472,o),
(409,517,o),
(368,517,c),
(367,517,ls),
(319,517,o),
(312,469,o),
(302,426,cs),
(234,125,l),
(149,504,l),
(119,511,o),
(59,512,o),
(29,504,c),
(145,73,ls),
(159,22,o),
(163,-10,o),
(206,-10,cs)
);
}
);
width = 673;
},
{
layerId = m004;
name = Regular;
shapes = (
{
closed = 1;
nodes = (
(207,0,o),
(215,16,o),
(219,31,c),
(357,470,l),
(496,31,l),
(501,15,o),
(511,0,o),
(522,0,cs),
(539,0,o),
(550,24,o),
(554,39,cs),
(693,510,l),
(683,513,o),
(674,515,o),
(664,515,c),
(524,43,l),
(385,478,l),
(379,493,o),
(374,509,o),
(358,509,c),
(357,509,ls),
(345,509,o),
(337,493,o),
(331,478,c),
(192,41,l),
(49,515,l),
(39,515,o),
(30,513,o),
(20,510,c),
(162,31,ls),
(166,16,o),
(178,0,o),
(191,0,cs)
);
}
);
width = 713;
},
{
layerId = m005;
name = Regular;
shapes = (
{
closed = 1;
nodes = (
(187,-10,o),
(219,12,o),
(230,69,cs),
(267,258,l),
(289,71,ls),
(296,13,o),
(327,-10,o),
(364,-10,cs),
(398,-10,o),
(426,20,o),
(433,71,cs),
(493,504,l),
(443,512,o),
(403,514,o),
(353,514,c),
(352,274,l),
(330,446,ls),
(324,495,o),
(289,517,o),
(268,517,c),
(267,517,ls),
(239,517,o),
(209,494,o),
(199,446,cs),
(162,275,l),
(150,514,l),
(100,514,o),
(60,512,o),
(10,504,c),
(78,71,ls),
(86,20,o),
(122,-10,o),
(155,-10,cs)
);
}
);
width = 500;
},
{
layerId = m006;
name = Regular;
shapes = (
{
closed = 1;
nodes = (
(149,0,o),
(157,16,o),
(161,31,c),
(249,470,l),
(338,31,l),
(343,15,o),
(353,0,o),
(364,0,cs),
(381,0,o),
(393,24,o),
(396,39,cs),
(485,510,l),
(475,513,o),
(466,515,o),
(456,515,c),
(366,43,l),
(277,478,l),
(271,493,o),
(266,509,o),
(250,509,c),
(249,509,ls),
(237,509,o),
(229,493,o),
(223,478,c),
(134,41,l),
(41,515,l),
(31,515,o),
(22,513,o),
(12,510,c),
(104,31,ls),
(107,16,o),
(120,0,o),
(133,0,cs)
);
}
);
width = 500;
},
{
layerId = m007;
name = Regular;
shapes = (
{
closed = 1;
nodes = (
(207,0,o),
(215,16,o),
(219,31,c),
(357,470,l),
(496,31,l),
(501,15,o),
(511,0,o),
(522,0,cs),
(539,0,o),
(550,24,o),
(554,39,cs),
(693,510,l),
(683,513,o),
(674,515,o),
(664,515,c),
(524,43,l),
(385,478,l),
(379,493,o),
(374,509,o),
(358,509,c),
(357,509,ls),
(345,509,o),
(337,493,o),
(331,478,c),
(192,41,l),
(49,515,l),
(39,515,o),
(30,513,o),
(20,510,c),
(162,31,ls),
(166,16,o),
(178,0,o),
(191,0,cs)
);
}
);
width = 713;
}
);
unicode = 119;
changeCount = 3;
},
{
glyphname = y;
kernLeft = v;
kernRight = v;
lastChange = "2024-10-04 06:55:24 +0000";
layers = (
{
layerId = "7EBE3D46-E53E-419E-A3EC-596DA2EA1E0D";
name = Regular;
shapes = (
{
closed = 1;
nodes = (
(513,513,o),
(464,514,o),
(414,514,c),
(312,204,l),
(190,513,l),
(133,513,o),
(76,512,o),
(20,500,c),
(246,45,l),
(227,-8,ls),
(203,-76,o),
(125,-112,o),
(63,-98,c),
(48,-159,o),
(46,-210,o),
(52,-263,c),
(179,-275,o),
(262,-223,o),
(326,-70,cs),
(564,501,l)
);
}
);
width = 584;
},
{
layerId = m002;
name = Regular;
shapes = (
{
closed = 1;
nodes = (
(493,513,o),
(481,515,o),
(470,515,c),
(281,38,l),
(58,515,l),
(45,515,o),
(33,513,o),
(20,510,c),
(266,0,l),
(242,-56,ls),
(207,-137,o),
(162,-229,o),
(46,-217,c),
(44,-225,o),
(43,-238,o),
(44,-249,c),
(175,-264,o),
(224,-186,o),
(274,-61,cs),
(504,510,l)
);
}
);
width = 524;
},
{
layerId = m003;
name = Regular;
shapes = (
{
closed = 1;
nodes = (
(503,512,o),
(492,512,o),
(472,512,c),
(347,171,l),
(170,513,l),
(113,513,o),
(76,512,o),
(20,500,c),
(291,22,l),
(275,-8,ls),
(214,-123,o),
(105,-112,o),
(43,-98,c),
(28,-159,o),
(26,-210,o),
(32,-263,c),
(159,-275,o),
(247,-225,o),
(306,-70,cs),
(524,507,l)
);
}
);
width = 544;
},
{
layerId = m004;
name = Regular;
shapes = (
{
closed = 1;
nodes = (
(493,513,o),
(481,515,o),
(470,515,c),
(281,38,l),
(58,515,l),
(45,515,o),
(33,513,o),
(20,510,c),
(266,0,l),
(242,-56,ls),
(207,-137,o),
(162,-229,o),
(46,-217,c),
(44,-225,o),
(43,-238,o),
(44,-249,c),
(175,-264,o),
(224,-186,o),
(274,-61,cs),
(504,510,l)
);
}
);
width = 524;
},
{
layerId = m005;
name = Regular;
shapes = (
{
closed = 1;
nodes = (
(433,513,o),
(384,514,o),
(334,514,c),
(262,214,l),
(180,513,l),
(123,513,o),
(66,512,o),
(10,500,c),
(186,45,l),
(167,-8,ls),
(143,-76,o),
(75,-112,o),
(13,-98,c),
(-2,-159,o),
(-4,-210,o),
(2,-263,c),
(129,-275,o),
(207,-225,o),
(266,-70,cs),
(484,501,l)
);
}
);
width = 500;
},
{
layerId = m006;
name = Regular;
shapes = (
{
closed = 1;
nodes = (
(443,513,o),
(431,515,o),
(420,515,c),
(268,40,l),
(58,515,l),
(45,515,o),
(33,513,o),
(20,510,c),
(256,0,l),
(232,-56,ls),
(197,-137,o),
(152,-229,o),
(36,-217,c),
(34,-225,o),
(33,-238,o),
(34,-249,c),
(165,-264,o),
(221,-190,o),
(264,-61,cs),
(454,510,l)
);
}
);
width = 500;
},
{
layerId = m007;
name = Regular;
shapes = (
{
closed = 1;
nodes = (
(493,513,o),
(481,515,o),
(470,515,c),
(281,38,l),
(58,515,l),
(45,515,o),
(33,513,o),
(20,510,c),
(266,0,l),
(242,-56,ls),
(207,-137,o),
(162,-229,o),
(46,-217,c),
(44,-225,o),
(43,-238,o),
(44,-249,c),
(175,-264,o),
(224,-186,o),
(274,-61,cs),
(504,510,l)
);
}
);
width = 524;
}
);
unicode = 121;
changeCount = 3;
},
{
glyphname = z;
kernLeft = c;
kernRight = c;
lastChange = "2024-10-04 06:55:24 +0000";
layers = (
{
layerId = "7EBE3D46-E53E-419E-A3EC-596DA2EA1E0D";
name = Regular;
shapes = (
{
closed = 1;
nodes = (
(313,521,o),
(136,522,o),
(60,510,c),
(66,464,o),
(68,415,o),
(80,352,c),
(141,354,o),
(213,355,o),
(275,357,c),
(201,270,o),
(139,198,o),
(76,91,cs),
(51,49,o),
(80,3,o),
(120,-2,cs),
(197,-12,o),
(374,-13,o),
(450,-1,c),
(444,45,o),
(442,94,o),
(430,157,c),
(369,155,o),
(297,154,o),
(235,152,c),
(309,239,o),
(371,311,o),
(434,418,cs),
(459,460,o),
(430,506,o),
(390,511,cs)
);
}
);
width = 510;
},
{
layerId = m002;
name = Regular;
shapes = (
{
closed = 1;
nodes = (
(335,522,o),
(160,518,o),
(50,510,c),
(51,502,o),
(54,490,o),
(57,482,c),
(255,490,o),
(368,491,o),
(427,482,c),
(140,136,o),
(346,386,o),
(58,43,cs),
(42,24,o),
(52,2,o),
(82,-2,cs),
(156,-12,o),
(359,-9,o),
(460,-1,c),
(459,7,o),
(456,19,o),
(453,27,c),
(252,19,o),
(138,18,o),
(80,26,c),
(205,173,o),
(322,312,o),
(447,459,c),
(463,478,o),
(458,507,o),
(428,511,cs)
);
}
);
width = 510;
},
{
layerId = m003;
name = Regular;
shapes = (
{
closed = 1;
nodes = (
(293,519,o),
(136,522,o),
(60,510,c),
(66,464,o),
(68,415,o),
(80,352,c),
(141,354,o),
(259,355,o),
(323,357,c),
(247,275,o),
(172,193,o),
(96,111,c),
(55,50,o),
(70,-4,o),
(140,-7,cs),
(217,-10,o),
(374,-13,o),
(450,-1,c),
(444,45,o),
(442,94,o),
(430,157,c),
(369,155,o),
(251,154,o),
(187,152,c),
(266,231,o),
(355,310,o),
(414,398,cs),
(455,459,o),
(440,513,o),
(370,516,cs)
);
}
);
width = 510;
},
{
layerId = m004;
name = Regular;
shapes = (
{
closed = 1;
nodes = (
(335,522,o),
(160,518,o),
(50,510,c),
(51,502,o),
(54,490,o),
(57,482,c),
(255,490,o),
(368,491,o),
(427,482,c),
(140,136,o),
(346,386,o),
(58,43,cs),
(42,24,o),
(52,2,o),
(82,-2,cs),
(156,-12,o),
(359,-9,o),
(460,-1,c),
(459,7,o),
(456,19,o),
(453,27,c),
(252,19,o),
(138,18,o),
(80,26,c),
(205,173,o),
(322,312,o),
(447,459,c),
(463,478,o),
(458,507,o),
(428,511,cs)
);
}
);
width = 510;
},
{
layerId = m005;
name = Regular;
shapes = (
{
closed = 1;
nodes = (
(313,521,o),
(136,522,o),
(60,510,c),
(66,464,o),
(68,415,o),
(80,352,c),
(141,354,o),
(213,355,o),
(275,357,c),
(201,270,o),
(139,198,o),
(76,91,cs),
(51,49,o),
(80,3,o),
(120,-2,cs),
(197,-12,o),
(374,-13,o),
(450,-1,c),
(444,45,o),
(442,94,o),
(430,157,c),
(369,155,o),
(297,154,o),
(235,152,c),
(309,239,o),
(371,311,o),
(434,418,cs),
(459,460,o),
(430,506,o),
(390,511,cs)
);
}
);
width = 500;
},
{
layerId = m006;
name = Regular;
shapes = (
{
closed = 1;
nodes = (
(335,522,o),
(160,518,o),
(50,510,c),
(51,502,o),
(54,490,o),
(57,482,c),
(255,490,o),
(368,491,o),
(427,482,c),
(140,136,o),
(346,386,o),
(58,43,cs),
(42,24,o),
(52,2,o),
(82,-2,cs),
(156,-12,o),
(359,-9,o),
(460,-1,c),
(459,7,o),
(456,19,o),
(453,27,c),
(252,19,o),
(138,18,o),
(80,26,c),
(205,173,o),
(322,312,o),
(447,459,c),
(463,478,o),
(458,507,o),
(428,511,cs)
);
}
);
width = 500;
},
{
layerId = m007;
name = Regular;
shapes = (
{
closed = 1;
nodes = (
(335,522,o),
(160,518,o),
(50,510,c),
(51,502,o),
(54,490,o),
(57,482,c),
(255,490,o),
(368,491,o),
(427,482,c),
(140,136,o),
(346,386,o),
(58,43,cs),
(42,24,o),
(52,2,o),
(82,-2,cs),
(156,-12,o),
(359,-9,o),
(460,-1,c),
(459,7,o),
(456,19,o),
(453,27,c),
(252,19,o),
(138,18,o),
(80,26,c),
(205,173,o),
(322,312,o),
(447,459,c),
(463,478,o),
(458,507,o),
(428,511,cs)
);
}
);
width = 510;
}
);
unicode = 122;
changeCount = 3;
},
{
glyphname = h.001;
kernLeft = h;
kernRight = n;
lastChange = "2024-10-04 06:55:24 +0000";
layers = (
{
layerId = "7EBE3D46-E53E-419E-A3EC-596DA2EA1E0D";
name = Regular;
shapes = (
{
alignment = -1;
pos = (51,9);
ref = _hmn;
},
{
closed = 1;
nodes = (
(60,1,l),
(215,1,l),
(215,764,l),
(60,764,l)
);
},
{
pos = (42,4);
ref = _u_r;
}
);
width = 580;
},
{
layerId = m002;
name = Regular;
shapes = (
{
alignment = -1;
pos = (25,9);
ref = _hmn;
},
{
closed = 1;
nodes = (
(71,1,l),
(98,1,l),
(98,730,l),
(71,730,l)
);
},
{
pos = (11,0);
ref = _u_r;
}
);
width = 528;
},
{
layerId = m003;
name = Regular;
shapes = (
{
alignment = -1;
pos = (-49,9);
ref = _hmn;
},
{
closed = 1;
nodes = (
(60,1,l),
(115,1,l),
(115,761,l),
(60,761,l)
);
},
{
pos = (-38,4);
ref = _u_r;
}
);
width = 510;
},
{
layerId = m004;
name = Regular;
shapes = (
{
alignment = -1;
pos = (25,9);
ref = _hmn;
},
{
closed = 1;
nodes = (
(71,1,l),
(98,1,l),
(98,730,l),
(71,730,l)
);
},
{
pos = (11,0);
ref = _u_r;
}
);
width = 529;
},
{
layerId = m005;
name = Regular;
shapes = (
{
alignment = -1;
pos = (11,9);
ref = _hmn;
},
{
closed = 1;
nodes = (
(40,1,l),
(195,1,l),
(195,764,l),
(40,764,l)
);
},
{
pos = (2,4);
ref = _u_r;
}
);
width = 500;
},
{
layerId = m006;
name = Regular;
shapes = (
{
alignment = -1;
pos = (25,9);
ref = _hmn;
},
{
closed = 1;
nodes = (
(71,1,l),
(98,1,l),
(98,730,l),
(71,730,l)
);
},
{
pos = (11,0);
ref = _u_r;
}
);
width = 500;
},
{
layerId = m007;
name = Regular;
shapes = (
{
alignment = -1;
pos = (25,9);
ref = _hmn;
},
{
closed = 1;
nodes = (
(71,1,l),
(98,1,l),
(98,730,l),
(71,730,l)
);
},
{
pos = (11,0);
ref = _u_r;
}
);
width = 528;
}
);
changeCount = 3;
},
{
glyphname = i_chengel;
lastChange = "2024-10-04 06:55:24 +0000";
layers = (
{
layerId = "7EBE3D46-E53E-419E-A3EC-596DA2EA1E0D";
shapes = (
{
closed = 1;
nodes = (
(231,416,ls),
(231,469,o),
(211,509,o),
(150,509,cs),
(105,509,o),
(131,510,o),
(82,509,cs),
(62,509,o),
(63,492,o),
(63,463,cs),
(63,427,o),
(63,392,o),
(64,376,cs),
(65,360,o),
(72,350,o),
(89,350,cs),
(196,350,ls),
(215,350,o),
(231,356,o),
(231,375,cs)
);
}
);
width = 323;
},
{
layerId = m002;
shapes = (
{
closed = 1;
nodes = (
(232,496,ls),
(232,505,o),
(229,510,o),
(218,510,cs),
(213,510,o),
(205,510,o),
(196,510,cs),
(187,510,o),
(184,506,o),
(186,500,cs),
(192,482,o),
(191,485,o),
(193,479,cs),
(197,467,o),
(199,467,o),
(206,467,cs),
(217,467,ls),
(226,467,o),
(232,472,o),
(232,485,cs)
);
}
);
width = 323;
},
{
layerId = m003;
shapes = (
{
closed = 1;
nodes = (
(231,416,ls),
(231,469,o),
(213,507,o),
(151,509,cs),
(106,510,o),
(94,510,o),
(45,509,cs),
(25,509,o),
(20,491,o),
(26,463,cs),
(34,427,o),
(40,394,o),
(45,376,cs),
(49,360,o),
(53,350,o),
(70,350,cs),
(197,350,ls),
(216,350,o),
(231,356,o),
(231,375,cs)
);
}
);
width = 323;
},
{
layerId = m004;
shapes = (
{
closed = 1;
nodes = (
(232,496,ls),
(232,505,o),
(229,509,o),
(218,510,cs),
(193,511,o),
(145,511,o),
(126,510,cs),
(117,509,o),
(114,506,o),
(116,500,cs),
(122,482,o),
(121,485,o),
(123,479,cs),
(127,467,o),
(129,467,o),
(146,467,cs),
(209,467,ls),
(228,467,o),
(232,471,o),
(232,485,cs)
);
}
);
width = 323;
},
{
layerId = m005;
shapes = (
{
closed = 1;
nodes = (
(231,416,ls),
(231,469,o),
(211,509,o),
(150,509,cs),
(-45,509,o),
(-19,510,o),
(-68,509,cs),
(-88,509,o),
(-87,492,o),
(-87,463,cs),
(-87,427,o),
(-87,392,o),
(-86,376,cs),
(-85,360,o),
(-78,350,o),
(-61,350,cs),
(196,350,ls),
(215,350,o),
(231,356,o),
(231,375,cs)
);
}
);
width = 500;
},
{
layerId = m006;
shapes = (
{
closed = 1;
nodes = (
(232,496,ls),
(232,505,o),
(229,510,o),
(218,510,cs),
(213,510,o),
(115,510,o),
(106,510,cs),
(97,510,o),
(94,506,o),
(96,500,cs),
(102,482,o),
(101,485,o),
(103,479,cs),
(107,467,o),
(109,467,o),
(116,467,cs),
(217,467,ls),
(226,467,o),
(232,472,o),
(232,485,cs)
);
}
);
width = 500;
},
{
layerId = m007;
shapes = (
{
closed = 1;
nodes = (
(232,496,ls),
(232,505,o),
(229,510,o),
(218,510,cs),
(213,510,o),
(205,510,o),
(196,510,cs),
(187,510,o),
(184,506,o),
(186,500,cs),
(192,482,o),
(191,485,o),
(193,479,cs),
(197,467,o),
(199,467,o),
(206,467,cs),
(217,467,ls),
(226,467,o),
(232,472,o),
(232,485,cs)
);
}
);
width = 323;
}
);
changeCount = 3;
},
{
glyphname = z___;
lastChange = "2024-10-04 06:55:24 +0000";
layers = (
{
layerId = "7EBE3D46-E53E-419E-A3EC-596DA2EA1E0D";
shapes = (
{
closed = 1;
nodes = (
(310,521,o),
(133,522,o),
(57,510,c),
(63,464,o),
(65,415,o),
(77,352,c),
(139,354,o),
(212,355,o),
(274,357,c),
(177,219,l),
(199,113,l),
(288,219,o),
(359,296,o),
(431,418,cs),
(456,460,o),
(427,506,o),
(387,511,cs)
);
}
);
width = 501;
},
{
layerId = m002;
shapes = (
{
closed = 1;
nodes = (
(420,512,o),
(268,525,o),
(47,510,c),
(48,502,o),
(51,490,o),
(54,482,c),
(255,490,o),
(369,491,o),
(427,483,c),
(63,35,l),
(60,13,l),
(149,119,o),
(346,343,o),
(451,468,cs),
(467,487,o),
(455,506,o),
(425,511,cs)
);
}
);
width = 501;
},
{
layerId = m003;
shapes = (
{
closed = 1;
nodes = (
(290,519,o),
(133,522,o),
(57,510,c),
(63,464,o),
(65,415,o),
(77,352,c),
(139,354,o),
(262,355,o),
(324,357,c),
(89,99,l),
(111,73,l),
(200,179,o),
(332,281,o),
(411,398,cs),
(452,459,o),
(437,513,o),
(367,516,cs)
);
}
);
width = 501;
},
{
layerId = m004;
shapes = (
{
closed = 1;
nodes = (
(420,512,o),
(268,525,o),
(47,510,c),
(48,502,o),
(51,490,o),
(54,482,c),
(255,490,o),
(369,491,o),
(427,483,c),
(63,35,l),
(60,13,l),
(149,119,o),
(346,343,o),
(451,468,cs),
(467,487,o),
(455,506,o),
(425,511,cs)
);
}
);
width = 501;
},
{
layerId = m005;
shapes = (
{
closed = 1;
nodes = (
(310,521,o),
(133,522,o),
(57,510,c),
(63,464,o),
(65,415,o),
(77,352,c),
(139,354,o),
(212,355,o),
(274,357,c),
(177,219,l),
(199,113,l),
(288,219,o),
(359,296,o),
(431,418,cs),
(456,460,o),
(427,506,o),
(387,511,cs)
);
}
);
width = 500;
},
{
layerId = m006;
shapes = (
{
closed = 1;
nodes = (
(420,512,o),
(268,525,o),
(47,510,c),
(48,502,o),
(51,490,o),
(54,482,c),
(255,490,o),
(369,491,o),
(427,483,c),
(63,35,l),
(60,13,l),
(149,119,o),
(346,343,o),
(451,468,cs),
(467,487,o),
(455,506,o),
(425,511,cs)
);
}
);
width = 500;
},
{
layerId = m007;
shapes = (
{
closed = 1;
nodes = (
(420,512,o),
(268,525,o),
(47,510,c),
(48,502,o),
(51,490,o),
(54,482,c),
(255,490,o),
(369,491,o),
(427,483,c),
(63,35,l),
(60,13,l),
(149,119,o),
(346,343,o),
(451,468,cs),
(467,487,o),
(455,506,o),
(425,511,cs)
);
}
);
width = 501;
}
);
changeCount = 3;
},
{
glyphname = "Be-cy";
lastChange = "2024-10-04 06:55:24 +0000";
layers = (
{
layerId = "7EBE3D46-E53E-419E-A3EC-596DA2EA1E0D";
name = Regular;
shapes = (
{
closed = 1;
nodes = (
(143,-10,o),
(157,-16,o),
(254,-15,cs),
(448,-15,o),
(522,109,o),
(522,232,cs),
(522,337,o),
(453,432,o),
(283,440,cs),
(263,441,o),
(244,440,o),
(225,439,c),
(225,500,l),
(463,500,l),
(463,660,l),
(70,660,l),
(70,-1,l)
);
},
{
closed = 1;
nodes = (
(225,318,l),
(235,318,o),
(244,318,o),
(254,318,cs),
(345,318,o),
(397,297,o),
(398,230,cs),
(398,163,o),
(338,139,o),
(254,139,cs),
(244,139,o),
(235,139,o),
(225,139,c)
);
}
);
width = 562;
},
{
layerId = m002;
name = Regular;
shapes = (
{
closed = 1;
nodes = (
(109,-2,o),
(180,-9,o),
(255,-8,cs),
(429,-8,o),
(503,100,o),
(503,228,cs),
(503,328,o),
(434,425,o),
(264,433,cs),
(201,436,o),
(139,434,o),
(97,432,c),
(97,600,l),
(463,600,l),
(463,630,l),
(70,630,l),
(70,0,l)
);
},
{
closed = 1;
nodes = (
(97,402,l),
(131,404,o),
(185,407,o),
(235,405,cs),
(362,405,o),
(473,343,o),
(473,225,cs),
(473,103,o),
(379,23,o),
(255,23,cs),
(204,21,o),
(136,24,o),
(97,28,c)
);
}
);
width = 550;
},
{
layerId = m003;
name = Regular;
shapes = (
{
closed = 1;
nodes = (
(130,0,o),
(177,-16,o),
(252,-15,cs),
(446,-15,o),
(520,99,o),
(520,222,cs),
(520,327,o),
(451,392,o),
(281,400,cs),
(231,403,o),
(182,395,o),
(143,387,c),
(143,500,l),
(483,500,l),
(483,660,l),
(88,660,l),
(90,-1,l)
);
},
{
closed = 1;
nodes = (
(143,324,l),
(175,333,o),
(214,339,o),
(252,338,cs),
(343,338,o),
(395,307,o),
(396,240,cs),
(396,173,o),
(336,139,o),
(252,139,cs),
(215,138,o),
(175,143,o),
(143,151,c)
);
}
);
width = 560;
},
{
layerId = m004;
name = Regular;
shapes = (
{
closed = 1;
nodes = (
(109,-2,o),
(180,-9,o),
(255,-8,cs),
(429,-8,o),
(503,100,o),
(503,228,cs),
(503,328,o),
(434,425,o),
(264,433,cs),
(201,436,o),
(139,434,o),
(97,432,c),
(97,600,l),
(463,600,l),
(463,630,l),
(70,630,l),
(71,0,l)
);
},
{
closed = 1;
nodes = (
(97,402,l),
(131,404,o),
(185,407,o),
(235,405,cs),
(362,405,o),
(473,343,o),
(473,225,cs),
(473,103,o),
(379,23,o),
(255,23,cs),
(204,21,o),
(136,24,o),
(97,28,c)
);
}
);
width = 550;
},
{
layerId = m005;
name = Regular;
shapes = (
{
closed = 1;
nodes = (
(113,-10,o),
(127,-15,o),
(224,-15,cs),
(378,-15,o),
(452,119,o),
(452,242,cs),
(452,347,o),
(383,452,o),
(253,460,cs),
(233,461,o),
(214,460,o),
(195,459,c),
(195,500,l),
(393,500,l),
(393,660,l),
(40,660,l),
(40,-1,l)
);
},
{
closed = 1;
nodes = (
(195,338,l),
(205,338,o),
(214,338,o),
(224,338,cs),
(275,338,o),
(327,307,o),
(328,240,cs),
(328,173,o),
(268,139,o),
(224,139,cs),
(214,139,o),
(205,139,o),
(195,139,c)
);
}
);
width = 500;
},
{
layerId = m006;
name = Regular;
shapes = (
{
closed = 1;
nodes = (
(109,-2,o),
(160,-3,o),
(235,-3,cs),
(359,-3,o),
(453,100,o),
(453,228,cs),
(453,328,o),
(384,425,o),
(264,433,cs),
(201,437,o),
(139,434,o),
(97,432,c),
(97,600,l),
(363,600,l),
(363,630,l),
(70,630,l),
(70,0,l)
);
},
{
closed = 1;
nodes = (
(97,402,l),
(131,404,o),
(185,405,o),
(235,405,cs),
(312,405,o),
(423,343,o),
(423,225,cs),
(423,103,o),
(333,28,o),
(235,25,cs),
(180,23,o),
(136,24,o),
(97,28,c)
);
}
);
width = 500;
},
{
layerId = m007;
name = Regular;
shapes = (
{
closed = 1;
nodes = (
(109,-2,o),
(180,-9,o),
(255,-8,cs),
(429,-8,o),
(503,100,o),
(503,228,cs),
(503,328,o),
(434,425,o),
(264,433,cs),
(201,436,o),
(139,434,o),
(97,432,c),
(97,600,l),
(463,600,l),
(463,630,l),
(70,630,l),
(70,0,l)
);
},
{
closed = 1;
nodes = (
(97,402,l),
(131,404,o),
(185,407,o),
(235,405,cs),
(362,405,o),
(473,343,o),
(473,225,cs),
(473,103,o),
(379,23,o),
(255,23,cs),
(204,21,o),
(136,24,o),
(97,28,c)
);
}
);
width = 550;
}
);
unicode = 1041;
changeCount = 10;
},
{
glyphname = "De-cy";
kernLeft = A;
lastChange = "2024-10-04 06:55:24 +0000";
layers = (
{
background = {
shapes = (
{
closed = 1;
nodes = (
(253,516,l),
(110,516,o),
(36,405,o),
(34,247,c),
(147,246,l),
(147,332,o),
(201,360,o),
(253,360,c)
);
}
);
};
layerId = "7EBE3D46-E53E-419E-A3EC-596DA2EA1E0D";
name = Regular;
shapes = (
{
closed = 1;
nodes = (
(427,159,l),
(248,159,l),
(255,192,o),
(259,229,o),
(259,269,cs),
(259,390,ls),
(259,476,o),
(292,499,o),
(344,499,cs),
(427,499,l)
);
},
{
closed = 1;
nodes = (
(164,-135,l),
(164,-1,l),
(549,-1,l),
(549,-135,l),
(661,-135,l),
(660,161,l),
(582,161,l),
(585,659,l),
(333,659,l),
(200,653,o),
(146,548,o),
(146,397,cs),
(146,272,ls),
(146,195,o),
(119,166,o),
(76,161,c),
(53,161,l),
(52,-135,l)
);
}
);
width = 711;
},
{
background = {
shapes = (
{
closed = 1;
nodes = (
(253,516,l),
(110,516,o),
(36,405,o),
(34,247,c),
(147,246,l),
(147,332,o),
(201,360,o),
(253,360,c)
);
}
);
};
layerId = m002;
name = Regular;
shapes = (
{
closed = 1;
nodes = (
(544,27,l),
(142,27,l),
(178,54,o),
(210,100,o),
(211,159,cs),
(212,390,ls),
(212,476,o),
(220,599,o),
(332,599,cs),
(544,599,l)
);
},
{
closed = 1;
nodes = (
(104,-137,l),
(104,-3,l),
(609,-3,l),
(609,-137,l),
(646,-137,l),
(645,28,l),
(571,27,l),
(571,629,l),
(327,629,ls),
(228,626,o),
(180,548,o),
(177,395,cs),
(176,160,ls),
(176,86,o),
(136,39,o),
(91,28,c),
(68,28,l),
(67,-137,l)
);
}
);
width = 706;
},
{
background = {
shapes = (
{
closed = 1;
nodes = (
(253,516,l),
(110,516,o),
(36,405,o),
(34,247,c),
(147,246,l),
(147,332,o),
(201,360,o),
(253,360,c)
);
}
);
};
layerId = m003;
name = Regular;
shapes = (
{
closed = 1;
nodes = (
(508,161,l),
(239,161,l),
(246,194,o),
(250,231,o),
(250,271,cs),
(250,392,ls),
(250,478,o),
(283,501,o),
(335,501,cs),
(508,501,l)
);
},
{
closed = 1;
nodes = (
(95,-133,l),
(95,1,l),
(600,1,l),
(600,-133,l),
(652,-133,l),
(651,163,l),
(573,163,l),
(576,661,l),
(324,661,l),
(191,655,o),
(137,550,o),
(137,399,cs),
(137,274,ls),
(137,197,o),
(110,168,o),
(67,163,c),
(44,163,l),
(43,-133,l)
);
}
);
width = 711;
},
{
background = {
shapes = (
{
closed = 1;
nodes = (
(253,516,l),
(110,516,o),
(36,405,o),
(34,247,c),
(147,246,l),
(147,332,o),
(201,360,o),
(253,360,c)
);
}
);
};
layerId = m004;
name = Regular;
shapes = (
{
closed = 1;
nodes = (
(544,27,l),
(142,27,l),
(178,54,o),
(210,100,o),
(211,159,cs),
(212,390,ls),
(212,476,o),
(220,599,o),
(332,599,cs),
(544,599,l)
);
},
{
closed = 1;
nodes = (
(104,-137,l),
(104,-3,l),
(609,-3,l),
(609,-137,l),
(646,-137,l),
(645,28,l),
(571,27,l),
(571,629,l),
(327,629,ls),
(228,626,o),
(180,548,o),
(177,395,cs),
(176.004,160,ls),
(176,86,o),
(136,39,o),
(91,28,c),
(68,28,l),
(67,-137,l)
);
}
);
width = 713;
},
{
background = {
shapes = (
{
closed = 1;
nodes = (
(253,516,l),
(110,516,o),
(36,405,o),
(34,247,c),
(147,246,l),
(147,332,o),
(201,360,o),
(253,360,c)
);
}
);
};
layerId = m005;
name = Regular;
shapes = (
{
closed = 1;
nodes = (
(297,159,l),
(188,159,l),
(195,192,o),
(199,229,o),
(199,269,cs),
(199,390,ls),
(199,476,o),
(232,499,o),
(284,499,cs),
(297,499,l)
);
},
{
closed = 1;
nodes = (
(124,-135,l),
(124,-1,l),
(369,-1,l),
(369,-135,l),
(481,-135,l),
(480,161,l),
(452,161,l),
(455,659,l),
(273,659,l),
(140,653,o),
(86,548,o),
(86,397,cs),
(86,272,ls),
(86,195,o),
(59,166,o),
(16,161,c),
(13,161,l),
(12,-135,l)
);
}
);
width = 500;
},
{
background = {
shapes = (
{
closed = 1;
nodes = (
(253,516,l),
(110,516,o),
(36,405,o),
(34,247,c),
(147,246,l),
(147,332,o),
(201,360,o),
(253,360,c)
);
}
);
};
layerId = m006;
name = Regular;
shapes = (
{
closed = 1;
nodes = (
(361,27,l),
(79,27,l),
(115,54,o),
(148,100,o),
(148,159,cs),
(149,390,ls),
(149,476,o),
(157,599,o),
(269,599,cs),
(361,599,l)
);
},
{
closed = 1;
nodes = (
(61,-137,l),
(61,-3,l),
(396,-3,l),
(396,-137,l),
(433,-137,l),
(432,28,l),
(388,27,l),
(388,629,l),
(264,629,ls),
(165,629,o),
(115,548,o),
(114,395,cs),
(113,160,ls),
(113,86,o),
(73,39,o),
(28,28,c),
(25,28,l),
(24,-137,l)
);
}
);
width = 500;
},
{
background = {
shapes = (
{
closed = 1;
nodes = (
(253,516,l),
(110,516,o),
(36,405,o),
(34,247,c),
(147,246,l),
(147,332,o),
(201,360,o),
(253,360,c)
);
}
);
};
layerId = m007;
name = Regular;
shapes = (
{
closed = 1;
nodes = (
(544,27,l),
(142,27,l),
(178,54,o),
(210,100,o),
(211,159,cs),
(212,390,ls),
(212,476,o),
(220,599,o),
(332,599,cs),
(544,599,l)
);
},
{
closed = 1;
nodes = (
(104,-137,l),
(104,-3,l),
(609,-3,l),
(609,-137,l),
(646,-137,l),
(645,28,l),
(571,27,l),
(571,629,l),
(327,629,ls),
(228,626,o),
(180,548,o),
(177,395,cs),
(176,160,ls),
(176,86,o),
(136,39,o),
(91,28,c),
(68,28,l),
(67,-137,l)
);
}
);
width = 706;
}
);
unicode = 1044;
changeCount = 3;
},
{
glyphname = "Zhe-cy";
lastChange = "2024-10-04 06:55:24 +0000";
layers = (
{
layerId = "7EBE3D46-E53E-419E-A3EC-596DA2EA1E0D";
name = Regular;
shapes = (
{
closed = 1;
nodes = (
(99,101,o),
(146,268,o),
(294,336,c),
(126,418,o),
(97,547,o),
(10,653,c),
(55,665,o),
(141,663,o),
(192,661,c),
(259,570,o),
(333,486,o),
(373,404,c),
(373,660,l),
(529,660,l),
(529,404,l),
(569,486,o),
(643,570,o),
(710,661,c),
(761,663,o),
(847,665,o),
(892,653,c),
(805,547,o),
(776,418,o),
(608,336,c),
(756,268,o),
(803,101,o),
(882,8,c),
(848,-4,o),
(734,-5,o),
(699,-6,c),
(638,71,o),
(616,169,o),
(529,264,c),
(529,0,l),
(373,0,l),
(373,264,l),
(286,169,o),
(264,71,o),
(203,-6,c),
(168,-5,o),
(54,-4,o),
(20,8,c)
);
}
);
width = 902;
},
{
layerId = m002;
name = Regular;
shapes = (
{
closed = 1;
nodes = (
(129,149,o),
(212,226,o),
(330,334,c),
(260,422,o),
(138,536,o),
(21,632,c),
(28,633,o),
(51,634,o),
(62,632,c),
(162,554,o),
(281,433,o),
(345,344,c),
(345,630,l),
(373,630,l),
(373,344,l),
(437,433,o),
(556,554,o),
(656,632,c),
(667,634,o),
(690,633,o),
(697,632,c),
(580,536,o),
(458,422,o),
(388,334,c),
(506,226,o),
(589,149,o),
(708,-4,c),
(702,-5,o),
(683,-6,o),
(675,-5,c),
(591,96,o),
(470,223,o),
(373,308,c),
(373,0,l),
(345,0,l),
(345,308,l),
(248,223,o),
(127,96,o),
(43,-5,c),
(35,-6,o),
(16,-5,o),
(10,-4,c)
);
}
);
width = 718;
},
{
layerId = m003;
name = Regular;
shapes = (
{
closed = 1;
nodes = (
(149,141,o),
(186,286,o),
(334,386,c),
(246,449,o),
(138,566,o),
(21,662,c),
(46,672,o),
(101,672,o),
(142,669,c),
(217,605,o),
(369,448,o),
(423,354,c),
(423,660,l),
(479,660,l),
(479,354,l),
(533,448,o),
(685,605,o),
(760,669,c),
(801,672,o),
(856,672,o),
(881,662,c),
(764,566,o),
(656,449,o),
(568,386,c),
(716,286,o),
(753,141,o),
(892,8,c),
(839,-4,o),
(774,-12,o),
(719,-8,c),
(644,85,o),
(595,229,o),
(479,309,c),
(479,0,l),
(423,0,l),
(423,309,l),
(307,229,o),
(258,85,o),
(183,-8,c),
(128,-12,o),
(63,-4,o),
(10,8,c)
);
}
);
width = 902;
},
{
layerId = m004;
name = Regular;
shapes = (
{
closed = 1;
nodes = (
(129,149,o),
(212,226,o),
(330,334,c),
(260,422,o),
(138,536,o),
(21,632,c),
(28,633,o),
(51,634,o),
(62,632,c),
(162,554,o),
(281,433,o),
(345,344,c),
(345,630,l),
(373,630,l),
(373,344,l),
(437,433,o),
(556,554,o),
(656,632,c),
(667,634,o),
(690,633,o),
(697,632,c),
(580,536,o),
(458,422,o),
(388,334,c),
(506,226,o),
(589,149,o),
(708,-4,c),
(702,-5,o),
(683,-6,o),
(675,-5,c),
(591,96,o),
(470,223,o),
(373,308,c),
(373,0,l),
(345,0,l),
(345,308,l),
(248,223,o),
(127,96,o),
(43,-5,c),
(35,-6,o),
(16,-5,o),
(10,-4,c)
);
}
);
width = 718;
},
{
layerId = m005;
name = Regular;
shapes = (
{
closed = 1;
nodes = (
(42,106,o),
(-27,248,o),
(90,336,c),
(-21,428,o),
(41,548,o),
(-14,654,c),
(14,666,o),
(69,664,o),
(131,662,c),
(174,570,o),
(158,476,o),
(177,390,c),
(177,661,l),
(315,661,l),
(315,390,l),
(334,476,o),
(318,570,o),
(361,662,c),
(393,664,o),
(478,666,o),
(506,654,c),
(451,548,o),
(523,428,o),
(412,336,c),
(529,248,o),
(450,106,o),
(500,13,c),
(478,1,o),
(383,0,o),
(360,-1,c),
(321,77,o),
(368,164,o),
(315,258,c),
(315,1,l),
(177,1,l),
(177,258,l),
(124,164,o),
(171,77,o),
(132,-1,c),
(79,0,o),
(14,1,o),
(-8,13,c)
);
}
);
width = 500;
},
{
layerId = m006;
name = Regular;
shapes = (
{
closed = 1;
nodes = (
(82,149,o),
(139,236,o),
(218,344,c),
(171,432,o),
(88,536,o),
(9,632,c),
(14,633,o),
(38,634,o),
(46,632,c),
(114,554,o),
(194,443,o),
(238,354,c),
(238,630,l),
(265,630,l),
(265,354,l),
(309,443,o),
(389,554,o),
(457,632,c),
(464,634,o),
(489,633,o),
(494,632,c),
(415,536,o),
(332,432,o),
(285,344,c),
(364,236,o),
(421,149,o),
(502,-4,c),
(498,-5,o),
(475,-6,o),
(470,-5,c),
(413,96,o),
(331,233,o),
(265,318,c),
(265,0,l),
(238,0,l),
(238,318,l),
(172,233,o),
(90,96,o),
(34,-5,c),
(28,-6,o),
(5,-5,o),
(2,-4,c)
);
}
);
width = 500;
},
{
layerId = m007;
name = Regular;
shapes = (
{
closed = 1;
nodes = (
(129,149,o),
(212,226,o),
(330,334,c),
(260,422,o),
(138,536,o),
(21,632,c),
(28,633,o),
(51,634,o),
(62,632,c),
(162,554,o),
(281,433,o),
(345,344,c),
(345,630,l),
(373,630,l),
(373,344,l),
(437,433,o),
(556,554,o),
(656,632,c),
(667,634,o),
(690,633,o),
(697,632,c),
(580,536,o),
(458,422,o),
(388,334,c),
(506,226,o),
(589,149,o),
(708,-4,c),
(702,-5,o),
(683,-6,o),
(675,-5,c),
(591,96,o),
(470,223,o),
(373,308,c),
(373,0,l),
(345,0,l),
(345,308,l),
(248,223,o),
(127,96,o),
(43,-5,c),
(35,-6,o),
(16,-5,o),
(10,-4,c)
);
}
);
width = 718;
}
);
unicode = 1046;
changeCount = 88;
},
{
glyphname = "Ii-cy";
lastChange = "2024-10-04 06:55:24 +0000";
layers = (
{
layerId = "7EBE3D46-E53E-419E-A3EC-596DA2EA1E0D";
name = Regular;
shapes = (
{
closed = 1;
nodes = (
(587,633,o),
(569,663,o),
(534,668,cs),
(497,673,o),
(462,644,o),
(441,615,cs),
(225,319,l),
(225,660,l),
(70,660,l),
(70,66,ls),
(70,23,o),
(94,-1,o),
(121,-9,cs),
(148,-17,o),
(188,4,o),
(211,36,cs),
(434,339,l),
(434,-2,l),
(589,-2,l),
(588,579,l)
);
}
);
width = 659;
},
{
layerId = m002;
name = Regular;
shapes = (
{
closed = 1;
nodes = (
(589,620,o),
(585,630,o),
(570,630,cs),
(554,630,o),
(544,620,o),
(532,605,cs),
(97,46,l),
(97,630,l),
(70,630,l),
(70,22,ls),
(70,10,o),
(75,0,o),
(85,0,cs),
(94,0,o),
(101,6,o),
(114,22,cs),
(562,595,l),
(562,-2,l),
(589,-2,l),
(589,605,ls)
);
}
);
width = 659;
},
{
layerId = m003;
name = Regular;
shapes = (
{
closed = 1;
nodes = (
(588,643,o),
(578,668,o),
(553,674,cs),
(523,681,o),
(499,658,o),
(461,615,c),
(125,229,l),
(125,660,l),
(70,660,l),
(70,56,ls),
(70,23,o),
(77,-7,o),
(104,-15,cs),
(131,-23,o),
(158,-4,o),
(191,36,cs),
(524,438,l),
(524,-2,l),
(589,-2,l),
(588,609,l)
);
}
);
width = 659;
},
{
layerId = m004;
name = Regular;
shapes = (
{
closed = 1;
nodes = (
(589,620,o),
(582,630,o),
(567,630,cs),
(551,630,o),
(544,620,o),
(532,605,cs),
(97,46,l),
(97,630,l),
(70,630,l),
(70,22,ls),
(70,10,o),
(75,0,o),
(85,0,cs),
(94,0,o),
(101,6,o),
(114,22,cs),
(562,595,l),
(562,-2,l),
(589,-2,l),
(589,605,ls)
);
}
);
width = 659;
},
{
layerId = m005;
name = Regular;
shapes = (
{
closed = 1;
nodes = (
(448,643,o),
(432,671,o),
(396,671,cs),
(366,671,o),
(346,654,o),
(321,605,cs),
(205,376,l),
(205,660,l),
(50,660,l),
(50,56,ls),
(50,23,o),
(79,-9,o),
(107,-9,cs),
(134,-9,o),
(158,-3,o),
(181,46,cs),
(294,289,l),
(294,-2,l),
(449,-2,l),
(448,609,l)
);
}
);
width = 500;
},
{
layerId = m006;
name = Regular;
shapes = (
{
closed = 1;
nodes = (
(449,620,o),
(441,630,o),
(426,630,cs),
(410,630,o),
(401,620,o),
(392,605,cs),
(67,46,l),
(67,630,l),
(40,630,l),
(40,22,ls),
(40,10,o),
(48,0,o),
(58,0,cs),
(67,0,o),
(74,5,o),
(84,22,cs),
(422,593,l),
(422,-2,l),
(449,-2,l),
(449,605,ls)
);
}
);
width = 500;
},
{
layerId = m007;
name = Regular;
shapes = (
{
closed = 1;
nodes = (
(589,620,o),
(585,630,o),
(570,630,cs),
(554,630,o),
(544,620,o),
(532,605,cs),
(97,46,l),
(97,630,l),
(70,630,l),
(70,22,ls),
(70,10,o),
(75,0,o),
(85,0,cs),
(94,0,o),
(101,6,o),
(114,22,cs),
(562,595,l),
(562,-2,l),
(589,-2,l),
(589,605,ls)
);
}
);
width = 659;
}
);
unicode = 1048;
changeCount = 10;
},
{
glyphname = "El-cy";
lastChange = "2024-10-04 06:55:24 +0000";
layers = (
{
layerId = "7EBE3D46-E53E-419E-A3EC-596DA2EA1E0D";
name = Regular;
shapes = (
{
closed = 1;
nodes = (
(274,670,o),
(233,646,o),
(214,585,cs),
(30,5,l),
(77,-1,o),
(143,-5,o),
(200,-5,c),
(302,467,ls),
(305,479,o),
(311,505,o),
(318,533,c),
(325,505,o),
(331,479,o),
(334,467,cs),
(440,-5,l),
(497,-5,o),
(554,-3,o),
(610,5,c),
(419,585,ls),
(399,646,o),
(358,668,o),
(316,669,cs)
);
}
);
width = 640;
},
{
layerId = m002;
name = Regular;
shapes = (
{
closed = 1;
nodes = (
(289,634,o),
(280,624,o),
(276,613,cs),
(30,-3,l),
(44,-7,o),
(44,-10,o),
(61,-10,c),
(294,583,ls),
(297,590,o),
(298,595,o),
(300,598,c),
(302,595,o),
(303,590,o),
(306,583,cs),
(539,-10,l),
(556,-10,o),
(556,-7,o),
(570,-3,c),
(324,613,ls),
(320,624,o),
(315,634,o),
(300,634,c)
);
}
);
width = 600;
},
{
layerId = m003;
name = Regular;
shapes = (
{
closed = 1;
nodes = (
(280,670,o),
(246,625,o),
(231,583,cs),
(30,3,l),
(87,-10,o),
(143,-7,o),
(200,-7,c),
(355,480,ls),
(359,492,o),
(364,518,o),
(371,546,c),
(378,518,o),
(382,499,o),
(389,480,cs),
(560,-7,l),
(575,-8,o),
(595,-6,o),
(610,-2,c),
(409,583,ls),
(395,625,o),
(360,670,o),
(320,670,cs)
);
}
);
width = 640;
},
{
layerId = m004;
name = Regular;
shapes = (
{
closed = 1;
nodes = (
(291,634,o),
(280,624,o),
(276,613,cs),
(30,-3,l),
(44,-7,o),
(44,-10,o),
(61,-10,c),
(294,583,ls),
(297,590,o),
(298,595,o),
(300,598,c),
(302,595,o),
(303,590,o),
(306,583,cs),
(539,-10,l),
(556,-10,o),
(556,-7,o),
(570,-3,c),
(324,613,ls),
(320,624,o),
(311,634,o),
(300,634,cs)
);
}
);
width = 600;
},
{
layerId = m005;
name = Regular;
shapes = (
{
closed = 1;
nodes = (
(200,669,o),
(182,635,o),
(171,593,cs),
(20,3,l),
(67,-3,o),
(133,-7,o),
(190,-7,c),
(236,347,ls),
(238,359,o),
(243,385,o),
(250,413,c),
(257,385,o),
(262,359,o),
(264,347,cs),
(310,-7,l),
(367,-7,o),
(424,-5,o),
(480,3,c),
(329,593,ls),
(318,635,o),
(292,669,o),
(250,669,cs)
);
}
);
width = 500;
},
{
layerId = m006;
name = Regular;
shapes = (
{
closed = 1;
nodes = (
(219,634,o),
(210,624,o),
(206,613,cs),
(0,-3,l),
(14,-7,o),
(14,-6,o),
(31,-6,c),
(224,583,ls),
(226,590,o),
(228,595,o),
(230,598,c),
(232,595,o),
(234,590,o),
(236,583,cs),
(429,-6,l),
(446,-6,o),
(446,-7,o),
(460,-3,c),
(254,613,ls),
(250,624,o),
(245,634,o),
(230,634,c)
);
}
);
width = 500;
},
{
layerId = m007;
name = Regular;
shapes = (
{
closed = 1;
nodes = (
(289,634,o),
(280,624,o),
(276,613,cs),
(30,-3,l),
(44,-7,o),
(44,-10,o),
(61,-10,c),
(294,583,ls),
(297,590,o),
(298,595,o),
(300,598,c),
(302,595,o),
(303,590,o),
(306,583,cs),
(539,-10,l),
(556,-10,o),
(556,-7,o),
(570,-3,c),
(324,613,ls),
(320,624,o),
(315,634,o),
(300,634,c)
);
}
);
width = 600;
}
);
unicode = 1051;
changeCount = 10;
},
{
glyphname = "U-cy";
kernRight = V;
lastChange = "2024-10-04 06:55:24 +0000";
layers = (
{
layerId = "7EBE3D46-E53E-419E-A3EC-596DA2EA1E0D";
name = Regular;
shapes = (
{
closed = 1;
nodes = (
(424,660,l),
(307,385,l),
(190,660,l),
(20,660,l),
(238,242,l),
(219,198,ls),
(206,168,o),
(143,144,o),
(101,158,c),
(105,99,o),
(119,33,o),
(130,-3,c),
(187,-5,o),
(255,2,o),
(318,124,cs),
(594,660,l)
);
}
);
width = 614;
},
{
layerId = m002;
name = Regular;
shapes = (
{
closed = 1;
nodes = (
(494,628,l),
(284,181,l),
(54,628,l),
(20,628,l),
(269,141,l),
(245,97,ls),
(208,29,o),
(134,21,o),
(92,35,c),
(93,15,o),
(92,8,o),
(90,-3,c),
(167,-15,o),
(241,-3,o),
(298,124,cs),
(524,628,l)
);
}
);
width = 544;
},
{
layerId = m003;
name = Regular;
shapes = (
{
closed = 1;
nodes = (
(524,670,l),
(407,395,l),
(210,670,l),
(50,658,l),
(338,252,l),
(325,230,ls),
(296,181,o),
(173,144,o),
(101,158,c),
(105,99,o),
(99,33,o),
(110,-3,c),
(217,-5,o),
(293,78,o),
(368,224,cs),
(594,663,l)
);
}
);
width = 614;
},
{
layerId = m004;
name = Regular;
shapes = (
{
closed = 1;
nodes = (
(494,628,l),
(284,181,l),
(54,628,l),
(20,628,l),
(269,141,l),
(245,97,ls),
(208,29,o),
(134,21,o),
(92,35,c),
(93,15,o),
(92,8,o),
(90,-3,c),
(167,-15,o),
(241,-3,o),
(298,124,cs),
(524,628,l)
);
}
);
width = 544;
},
{
layerId = m005;
name = Regular;
shapes = (
{
closed = 1;
nodes = (
(294,665,l),
(247,395,l),
(180,665,l),
(10,655,l),
(189,222,l),
(179,198,ls),
(166,167,o),
(113,144,o),
(71,158,c),
(66,118,o),
(68,46,o),
(73,-3,c),
(130,-5,o),
(232,-7,o),
(278,124,cs),
(464,655,l)
);
}
);
width = 500;
},
{
layerId = m006;
name = Regular;
shapes = (
{
closed = 1;
nodes = (
(454,628,l),
(284,181,l),
(54,628,l),
(20,628,l),
(269,141,l),
(245,97,ls),
(208,29,o),
(134,21,o),
(92,35,c),
(93,15,o),
(92,8,o),
(90,-3,c),
(167,-15,o),
(250,-7,o),
(298,124,cs),
(484,628,l)
);
}
);
width = 500;
},
{
layerId = m007;
name = Regular;
shapes = (
{
closed = 1;
nodes = (
(494,628,l),
(284,181,l),
(54,628,l),
(20,628,l),
(269,141,l),
(245,97,ls),
(208,29,o),
(134,21,o),
(92,35,c),
(93,15,o),
(92,8,o),
(90,-3,c),
(167,-15,o),
(241,-3,o),
(298,124,cs),
(524,628,l)
);
}
);
width = 544;
}
);
unicode = 1059;
changeCount = 3;
},
{
glyphname = "Ef-cy";
lastChange = "2024-10-04 06:55:24 +0000";
layers = (
{
layerId = "7EBE3D46-E53E-419E-A3EC-596DA2EA1E0D";
name = Regular;
shapes = (
{
closed = 1;
nodes = (
(296,666,l),
(145,651,o),
(43,511,o),
(50,320,cs),
(56,147,o),
(145,7,o),
(296,-8,c),
(296,-64,l),
(418,-64,l),
(418,-7,l),
(564,12,o),
(656,150,o),
(656,329,cs),
(656,508,o),
(564,646,o),
(418,665,c),
(418,723,l),
(296,723,l)
);
},
{
closed = 1;
nodes = (
(178,425,o),
(230,487,o),
(296,500,c),
(296,158,l),
(230,171,o),
(178,233,o),
(175,329,c)
);
},
{
closed = 1;
nodes = (
(418,498,l),
(480,482,o),
(528,421,o),
(531,329,c),
(528,237,o),
(480,176,o),
(418,160,c)
);
}
);
width = 706;
},
{
layerId = m002;
name = Regular;
shapes = (
{
closed = 1;
nodes = (
(294,647,l),
(137,647,o),
(45,519,o),
(50,318,cs),
(55,109,o),
(137,-9,o),
(294,-9,c),
(294,-75,l),
(326,-75,l),
(326,-9,l),
(510,-9,o),
(570,165,o),
(570,328,cs),
(565,519,o),
(483,647,o),
(326,647,c),
(326,712,l),
(294,712,l)
);
},
{
closed = 1;
nodes = (
(80,470,o),
(138,608,o),
(294,609,c),
(294,29,l),
(138,30,o),
(80,168,o),
(77,319,cs)
);
},
{
closed = 1;
nodes = (
(326,609,l),
(482,608,o),
(540,470,o),
(543,319,cs),
(540,168,o),
(482,30,o),
(326,29,c)
);
}
);
width = 620;
},
{
layerId = m003;
name = Regular;
shapes = (
{
closed = 1;
nodes = (
(296,666,l),
(145,651,o),
(43,511,o),
(50,320,cs),
(56,147,o),
(145,7,o),
(296,-8,c),
(296,-64,l),
(418,-64,l),
(418,-7,l),
(564,12,o),
(656,150,o),
(656,329,cs),
(656,508,o),
(564,646,o),
(418,665,c),
(418,723,l),
(296,723,l)
);
},
{
closed = 1;
nodes = (
(178,425,o),
(230,487,o),
(296,500,c),
(296,158,l),
(230,171,o),
(178,233,o),
(175,329,c)
);
},
{
closed = 1;
nodes = (
(418,498,l),
(480,482,o),
(528,421,o),
(531,329,c),
(528,237,o),
(480,176,o),
(418,160,c)
);
}
);
width = 706;
},
{
layerId = m004;
name = Regular;
shapes = (
{
closed = 1;
nodes = (
(294,647,l),
(137,647,o),
(45,519,o),
(50,318,cs),
(55,109,o),
(137,-9,o),
(294,-9,c),
(294,-75,l),
(326,-75,l),
(326,-9,l),
(510,-9,o),
(570,165,o),
(570,328,cs),
(565,519,o),
(483,647,o),
(326,647,c),
(326,712,l),
(294,712,l)
);
},
{
closed = 1;
nodes = (
(80,470,o),
(138,608,o),
(294,609,c),
(294,29,l),
(138,30,o),
(80,168,o),
(77,319,cs)
);
},
{
closed = 1;
nodes = (
(326,609,l),
(482,608,o),
(540,470,o),
(543,319,cs),
(540,168,o),
(482,30,o),
(326,29,c)
);
}
);
width = 620;
},
{
layerId = m005;
name = Regular;
shapes = (
{
closed = 1;
nodes = (
(186,657,l),
(73,622,o),
(12,493,o),
(10,320,cs),
(8,165,o),
(73,36,o),
(186,1,c),
(186,-64,l),
(308,-64,l),
(308,0,l),
(423,35,o),
(486,164,o),
(486,338,cs),
(486,494,o),
(423,623,o),
(308,658,c),
(308,723,l),
(186,723,l)
);
},
{
closed = 1;
nodes = (
(136,397,o),
(155,448,o),
(186,476,c),
(186,182,l),
(155,210,o),
(136,261,o),
(135,329,cs)
);
},
{
closed = 1;
nodes = (
(308,478,l),
(340,450,o),
(360,398,o),
(361,329,cs),
(360,260,o),
(340,208,o),
(308,180,c)
);
}
);
width = 500;
},
{
layerId = m006;
name = Regular;
shapes = (
{
closed = 1;
nodes = (
(244,647,l),
(119,647,o),
(27,519,o),
(32,318,cs),
(37,109,o),
(119,-9,o),
(244,-9,c),
(244,-75,l),
(276,-75,l),
(276,-9,l),
(420,-9,o),
(480,165,o),
(480,328,cs),
(475,519,o),
(393,647,o),
(276,647,c),
(276,712,l),
(244,712,l)
);
},
{
closed = 1;
nodes = (
(62,470,o),
(120,608,o),
(244,609,c),
(244,29,l),
(120,30,o),
(62,168,o),
(59,319,cs)
);
},
{
closed = 1;
nodes = (
(276,609,l),
(392,608,o),
(450,470,o),
(453,319,cs),
(450,168,o),
(392,30,o),
(276,29,c)
);
}
);
width = 500;
},
{
layerId = m007;
name = Regular;
shapes = (
{
closed = 1;
nodes = (
(294,647,l),
(137,647,o),
(45,519,o),
(50,318,cs),
(55,109,o),
(137,-9,o),
(294,-9,c),
(294,-75,l),
(326,-75,l),
(326,-9,l),
(510,-9,o),
(570,165,o),
(570,328,cs),
(565,519,o),
(483,647,o),
(326,647,c),
(326,712,l),
(294,712,l)
);
},
{
closed = 1;
nodes = (
(80,470,o),
(138,608,o),
(294,609,c),
(294,29,l),
(138,30,o),
(80,168,o),
(77,319,cs)
);
},
{
closed = 1;
nodes = (
(326,609,l),
(482,608,o),
(540,470,o),
(543,319,cs),
(540,168,o),
(482,30,o),
(326,29,c)
);
}
);
width = 620;
}
);
unicode = 1060;
changeCount = 3;
},
{
glyphname = "Tse-cy";
lastChange = "2024-10-04 06:55:24 +0000";
layers = (
{
layerId = "7EBE3D46-E53E-419E-A3EC-596DA2EA1E0D";
name = Regular;
shapes = (
{
closed = 1;
nodes = (
(70,2,l),
(450,1,l),
(450,-133,l),
(602,-133,l),
(601,163,l),
(585,163,l),
(585,662,l),
(430,662,l),
(430,162,l),
(225,162,l),
(225,662,l),
(70,662,l)
);
}
);
width = 622;
},
{
layerId = m002;
name = Regular;
shapes = (
{
closed = 1;
nodes = (
(70,-1,l),
(495,-1,l),
(495,-135,l),
(532,-135,l),
(531,30,l),
(457,29,l),
(457,631,l),
(430,631,l),
(430,29,l),
(97,29,l),
(97,631,l),
(70,631,l)
);
}
);
width = 542;
},
{
layerId = m003;
name = Regular;
shapes = (
{
closed = 1;
nodes = (
(70,2,l),
(460,1,l),
(460,-133,l),
(512,-133,l),
(511,163,l),
(485,163,l),
(485,662,l),
(430,662,l),
(430,162,l),
(125,162,l),
(125,662,l),
(70,662,l)
);
}
);
width = 592;
},
{
layerId = m004;
name = Regular;
shapes = (
{
closed = 1;
nodes = (
(70,-1,l),
(495,-1,l),
(495,-135,l),
(532,-135,l),
(531,30,l),
(457,29,l),
(457,631,l),
(430,631,l),
(430,29,l),
(97,29,l),
(97,631,l),
(70,631,l)
);
}
);
width = 542;
},
{
layerId = m005;
name = Regular;
shapes = (
{
closed = 1;
nodes = (
(40,2,l),
(400,2,l),
(400,-132,l),
(512,-132,l),
(511,164,l),
(445,164,l),
(445,662,l),
(290,662,l),
(290,162,l),
(195,162,l),
(195,662,l),
(40,662,l)
);
}
);
width = 500;
},
{
layerId = m006;
name = Regular;
shapes = (
{
closed = 1;
nodes = (
(60,-1,l),
(455,-1,l),
(455,-135,l),
(492,-135,l),
(491,30,l),
(447,29,l),
(447,631,l),
(420,631,l),
(420,29,l),
(87,29,l),
(87,631,l),
(60,631,l)
);
}
);
width = 500;
},
{
layerId = m007;
name = Regular;
shapes = (
{
closed = 1;
nodes = (
(70,-1,l),
(495,-1,l),
(495,-135,l),
(532,-135,l),
(531,30,l),
(457,29,l),
(457,631,l),
(430,631,l),
(430,29,l),
(97,29,l),
(97,631,l),
(70,631,l)
);
}
);
width = 542;
}
);
unicode = 1062;
changeCount = 3;
},
{
glyphname = "Sha-cy";
lastChange = "2024-10-04 06:55:24 +0000";
layers = (
{
layerId = "7EBE3D46-E53E-419E-A3EC-596DA2EA1E0D";
name = Regular;
shapes = (
{
closed = 1;
nodes = (
(70,2,l),
(758,2,l),
(758,662,l),
(603,662,l),
(603,162,l),
(496,162,l),
(496,662,l),
(341,662,l),
(341,162,l),
(225,162,l),
(225,662,l),
(70,662,l)
);
}
);
width = 798;
},
{
layerId = m002;
name = Regular;
shapes = (
{
closed = 1;
nodes = (
(70,1,l),
(630,1,l),
(630,631,l),
(603,631,l),
(603,31,l),
(368,31,l),
(368,631,l),
(341,631,l),
(341,31,l),
(97,31,l),
(97,631,l),
(70,631,l)
);
}
);
width = 700;
},
{
layerId = m003;
name = Regular;
shapes = (
{
closed = 1;
nodes = (
(70,2,l),
(658,2,l),
(658,662,l),
(603,662,l),
(603,162,l),
(396,162,l),
(396,662,l),
(341,662,l),
(341,162,l),
(125,162,l),
(125,662,l),
(70,662,l)
);
}
);
width = 728;
},
{
layerId = m004;
name = Regular;
shapes = (
{
closed = 1;
nodes = (
(70,1,l),
(630,1,l),
(630,631,l),
(603,631,l),
(603,31,l),
(368,31,l),
(368,631,l),
(341,631,l),
(341,31,l),
(97,31,l),
(97,631,l),
(70,631,l)
);
}
);
width = 700;
},
{
layerId = m005;
name = Regular;
shapes = (
{
closed = 1;
nodes = (
(10,2,l),
(508,2,l),
(508,662,l),
(353,662,l),
(353,162,l),
(336,162,l),
(336,662,l),
(181,662,l),
(181,162,l),
(165,162,l),
(165,662,l),
(10,662,l)
);
}
);
width = 500;
},
{
layerId = m006;
name = Regular;
shapes = (
{
closed = 1;
nodes = (
(20,1,l),
(460,1,l),
(460,631,l),
(433,631,l),
(433,31,l),
(248,31,l),
(248,631,l),
(221,631,l),
(221,31,l),
(47,31,l),
(47,631,l),
(20,631,l)
);
}
);
width = 500;
},
{
layerId = m007;
name = Regular;
shapes = (
{
closed = 1;
nodes = (
(70,1,l),
(630,1,l),
(630,631,l),
(603,631,l),
(603,31,l),
(368,31,l),
(368,631,l),
(341,631,l),
(341,31,l),
(97,31,l),
(97,631,l),
(70,631,l)
);
}
);
width = 700;
}
);
unicode = 1064;
changeCount = 20;
},
{
glyphname = "Shcha-cy";
lastChange = "2024-10-04 06:55:24 +0000";
layers = (
{
layerId = "7EBE3D46-E53E-419E-A3EC-596DA2EA1E0D";
name = Regular;
shapes = (
{
closed = 1;
nodes = (
(70,2,l),
(671,1,l),
(671,-133,l),
(783,-133,l),
(782,163,l),
(758,163,l),
(758,662,l),
(603,662,l),
(603,162,l),
(496,162,l),
(496,662,l),
(341,662,l),
(341,162,l),
(225,162,l),
(225,662,l),
(70,662,l)
);
}
);
width = 793;
},
{
layerId = m002;
name = Regular;
shapes = (
{
closed = 1;
nodes = (
(70,2,l),
(676,1,l),
(676,-133,l),
(713,-133,l),
(712,32,l),
(630,31,l),
(630,632,l),
(603,632,l),
(603,31,l),
(368,31,l),
(368,632,l),
(341,632,l),
(341,31,l),
(97,31,l),
(97,632,l),
(70,632,l)
);
}
);
width = 738;
},
{
layerId = m003;
name = Regular;
shapes = (
{
closed = 1;
nodes = (
(70,2,l),
(671,1,l),
(671,-133,l),
(723,-133,l),
(722,163,l),
(658,162,l),
(658,662,l),
(603,662,l),
(603,162,l),
(396,162,l),
(396,662,l),
(341,662,l),
(341,162,l),
(125,162,l),
(125,662,l),
(70,662,l)
);
}
);
width = 793;
},
{
layerId = m004;
name = Regular;
shapes = (
{
closed = 1;
nodes = (
(70,2,l),
(676,1,l),
(676,-133,l),
(713,-133,l),
(712,32,l),
(630,31,l),
(630,632,l),
(603,632,l),
(603,31,l),
(368,31,l),
(368,632,l),
(341,632,l),
(341,31,l),
(97,31,l),
(97,632,l),
(70,632,l)
);
}
);
width = 738;
},
{
layerId = m005;
name = Regular;
shapes = (
{
closed = 1;
nodes = (
(10,2,l),
(391,1,l),
(391,-133,l),
(503,-133,l),
(502,163,l),
(498,163,l),
(498,662,l),
(343,662,l),
(343,162,l),
(336,162,l),
(336,662,l),
(181,662,l),
(181,162,l),
(165,162,l),
(165,662,l),
(10,662,l)
);
}
);
width = 500;
},
{
layerId = m006;
name = Regular;
shapes = (
{
closed = 1;
nodes = (
(40,2,l),
(456,1,l),
(456,-133,l),
(493,-133,l),
(492,32,l),
(450,31,l),
(450,632,l),
(423,632,l),
(423,31,l),
(258,31,l),
(258,632,l),
(231,632,l),
(231,31,l),
(67,31,l),
(67,632,l),
(40,632,l)
);
}
);
width = 500;
},
{
layerId = m007;
name = Regular;
shapes = (
{
closed = 1;
nodes = (
(70,2,l),
(676,1,l),
(676,-133,l),
(713,-133,l),
(712,32,l),
(630,31,l),
(630,632,l),
(603,632,l),
(603,31,l),
(368,31,l),
(368,632,l),
(341,632,l),
(341,31,l),
(97,31,l),
(97,632,l),
(70,632,l)
);
}
);
width = 738;
}
);
unicode = 1065;
changeCount = 3;
},
{
glyphname = "Softsign-cy";
lastChange = "2024-10-04 06:55:24 +0000";
layers = (
{
layerId = "7EBE3D46-E53E-419E-A3EC-596DA2EA1E0D";
name = Regular;
shapes = (
{
closed = 1;
nodes = (
(143,-10,o),
(157,-16,o),
(254,-15,cs),
(448,-15,o),
(522,119,o),
(522,242,cs),
(522,347,o),
(453,452,o),
(283,460,cs),
(263,461,o),
(244,460,o),
(225,459,c),
(225,660,l),
(70,660,l),
(70,-1,l)
);
},
{
closed = 1;
nodes = (
(235,338,o),
(244,338,o),
(254,338,cs),
(345,338,o),
(397,307,o),
(398,240,cs),
(398,173,o),
(338,139,o),
(254,139,cs),
(244,139,o),
(235,139,o),
(225,139,c),
(225,338,l)
);
}
);
width = 550;
},
{
layerId = m002;
name = Regular;
shapes = (
{
closed = 1;
nodes = (
(109,-2,o),
(180,-9,o),
(255,-8,cs),
(429,-8,o),
(503,100,o),
(503,228,cs),
(503,328,o),
(434,425,o),
(264,433,cs),
(201,436,o),
(139,434,o),
(97,432,c),
(97,630,l),
(70,630,l),
(70,0,l)
);
},
{
closed = 1;
nodes = (
(131,404,o),
(185,407,o),
(235,405,cs),
(362,405,o),
(473,343,o),
(473,225,cs),
(473,103,o),
(379,23,o),
(255,23,cs),
(204,21,o),
(136,24,o),
(97,28,c),
(97,402,l)
);
}
);
width = 550;
},
{
layerId = m003;
name = Regular;
shapes = (
{
closed = 1;
nodes = (
(116,-3,o),
(163,-16,o),
(238,-15,cs),
(432,-15,o),
(506,109,o),
(506,232,cs),
(506,337,o),
(427,412,o),
(267,420,cs),
(217,423,o),
(168,422,o),
(129,417,c),
(129,660,l),
(74,660,l),
(76,-1,l)
);
},
{
closed = 1;
nodes = (
(161,350,o),
(200,348,o),
(238,348,cs),
(319,348,o),
(381,307,o),
(382,230,cs),
(383,163,o),
(322,139,o),
(238,139,cs),
(201,138,o),
(161,143,o),
(129,151,c),
(129,344,l)
);
}
);
width = 550;
},
{
layerId = m004;
name = Regular;
shapes = (
{
closed = 1;
nodes = (
(109,-2,o),
(180,-9,o),
(255,-8,cs),
(429,-8,o),
(503,100,o),
(503,228,cs),
(503,328,o),
(434,425,o),
(264,433,cs),
(201,436,o),
(139,434,o),
(97,432,c),
(97,630,l),
(70,630,l),
(71,0,ls)
);
},
{
closed = 1;
nodes = (
(131,404,o),
(185,407,o),
(235,405,cs),
(362,405,o),
(473,343,o),
(473,225,cs),
(473,103,o),
(379,23,o),
(255,23,cs),
(204,21,o),
(136,24,o),
(97,28,c),
(97,402,l)
);
}
);
width = 550;
},
{
layerId = m005;
name = Regular;
shapes = (
{
closed = 1;
nodes = (
(113,-10,o),
(127,-15,o),
(224,-15,cs),
(378,-15,o),
(452,119,o),
(452,242,cs),
(452,347,o),
(383,452,o),
(253,460,cs),
(233,461,o),
(214,460,o),
(195,459,c),
(195,660,l),
(40,660,l),
(40,-1,l)
);
},
{
closed = 1;
nodes = (
(205,338,o),
(214,338,o),
(224,338,cs),
(275,338,o),
(327,307,o),
(328,240,cs),
(328,173,o),
(268,139,o),
(224,139,cs),
(214,139,o),
(205,139,o),
(195,139,c),
(195,338,l)
);
}
);
width = 500;
},
{
layerId = m006;
name = Regular;
shapes = (
{
closed = 1;
nodes = (
(119,-2,o),
(130,-3,o),
(205,-3,cs),
(329,-3,o),
(423,100,o),
(423,228,cs),
(423,328,o),
(354,425,o),
(234,433,cs),
(171,437,o),
(149,434,o),
(107,432,c),
(107,630,l),
(80,630,l),
(80,0,l)
);
},
{
closed = 1;
nodes = (
(141,404,o),
(155,405,o),
(205,405,cs),
(282,405,o),
(393,343,o),
(393,225,cs),
(393,103,o),
(303,28,o),
(205,25,cs),
(150,23,o),
(146,24,o),
(107,28,c),
(107,402,l)
);
}
);
width = 500;
},
{
layerId = m007;
name = Regular;
shapes = (
{
closed = 1;
nodes = (
(109,-2,o),
(180,-9,o),
(255,-8,cs),
(429,-8,o),
(503,100,o),
(503,228,cs),
(503,328,o),
(434,425,o),
(264,433,cs),
(201,436,o),
(139,434,o),
(97,432,c),
(97,630,l),
(70,630,l),
(70,0,l)
);
},
{
closed = 1;
nodes = (
(131,404,o),
(185,407,o),
(235,405,cs),
(362,405,o),
(473,343,o),
(473,225,cs),
(473,103,o),
(379,23,o),
(255,23,cs),
(204,21,o),
(136,24,o),
(97,28,c),
(97,402,l)
);
}
);
width = 550;
}
);
unicode = 1068;
changeCount = 10;
},
{
glyphname = "Hardsign-cy";
lastChange = "2024-10-04 06:55:24 +0000";
layers = (
{
layerId = "7EBE3D46-E53E-419E-A3EC-596DA2EA1E0D";
name = Regular;
shapes = (
{
closed = 1;
nodes = (
(198,-10,o),
(212,-16,o),
(309,-15,cs),
(503,-15,o),
(577,119,o),
(577,242,cs),
(577,347,o),
(508,452,o),
(338,460,cs),
(318,461,o),
(299,460,o),
(280,459,c),
(280,660,l),
(20,660,l),
(20,500,l),
(125,500,l),
(125,-1,l)
);
},
{
closed = 1;
nodes = (
(280,338,l),
(290,338,o),
(299,338,o),
(309,338,cs),
(400,338,o),
(452,307,o),
(453,240,cs),
(453,173,o),
(393,139,o),
(309,139,cs),
(299,139,o),
(290,139,o),
(280,139,c)
);
}
);
width = 627;
},
{
layerId = m002;
name = Regular;
shapes = (
{
closed = 1;
nodes = (
(202,-2,o),
(273,-9,o),
(348,-8,cs),
(522,-8,o),
(596,100,o),
(596,228,cs),
(596,328,o),
(527,425,o),
(357,433,cs),
(294,436,o),
(232,434,o),
(190,432,c),
(190,630,l),
(10,630,l),
(10,600,l),
(163,600,l),
(163,0,l)
);
},
{
closed = 1;
nodes = (
(190,402,l),
(224,404,o),
(278,407,o),
(328,405,cs),
(455,405,o),
(566,343,o),
(566,225,cs),
(566,103,o),
(472,23,o),
(348,23,cs),
(297,21,o),
(229,24,o),
(190,28,c)
);
}
);
width = 644;
},
{
layerId = m003;
name = Regular;
shapes = (
{
closed = 1;
nodes = (
(185,-3,o),
(232,-16,o),
(307,-15,cs),
(501,-15,o),
(575,109,o),
(575,232,cs),
(575,337,o),
(496,412,o),
(336,420,cs),
(286,423,o),
(237,422,o),
(198,417,c),
(198,660,l),
(20,660,l),
(20,500,l),
(143,500,l),
(145,-1,l)
);
},
{
closed = 1;
nodes = (
(198,344,l),
(230,350,o),
(269,348,o),
(307,348,cs),
(388,348,o),
(450,307,o),
(451,230,cs),
(452,163,o),
(391,139,o),
(307,139,cs),
(270,138,o),
(230,143,o),
(198,151,c)
);
}
);
width = 627;
},
{
layerId = m004;
name = Regular;
shapes = (
{
closed = 1;
nodes = (
(223,-4,o),
(293,-9,o),
(368,-8,cs),
(542,-8,o),
(616,100,o),
(616,228,cs),
(616,328,o),
(547,425,o),
(377,433,cs),
(314,436,o),
(252,434,o),
(210,432,c),
(210,630,l),
(20,630,l),
(20,600,l),
(183,600,l),
(184,0,l)
);
},
{
closed = 1;
nodes = (
(210,402,l),
(244,404,o),
(298,407,o),
(348,405,cs),
(475,405,o),
(586,343,o),
(586,225,cs),
(586,103,o),
(492,23,o),
(368,23,cs),
(317,21,o),
(249,24,o),
(210,28,c)
);
}
);
width = 664;
},
{
layerId = m005;
name = Regular;
shapes = (
{
closed = 1;
nodes = (
(148,-10,o),
(162,-15,o),
(259,-15,cs),
(413,-15,o),
(487,119,o),
(487,242,cs),
(487,347,o),
(418,452,o),
(288,460,cs),
(268,461,o),
(249,460,o),
(230,459,c),
(230,660,l),
(10,660,l),
(10,500,l),
(75,500,l),
(75,-1,l)
);
},
{
closed = 1;
nodes = (
(230,338,l),
(240,338,o),
(249,338,o),
(259,338,cs),
(310,338,o),
(362,307,o),
(363,240,cs),
(363,173,o),
(303,139,o),
(259,139,cs),
(249,139,o),
(240,139,o),
(230,139,c)
);
}
);
width = 500;
},
{
layerId = m006;
name = Regular;
shapes = (
{
closed = 1;
nodes = (
(142,-2,o),
(153,-3,o),
(228,-3,cs),
(352,-3,o),
(446,100,o),
(446,228,cs),
(446,328,o),
(377,425,o),
(257,433,cs),
(194,437,o),
(172,434,o),
(130,432,c),
(130,630,l),
(40,630,l),
(40,600,l),
(103,600,l),
(103,0,l)
);
},
{
closed = 1;
nodes = (
(130,402,l),
(164,404,o),
(178,405,o),
(228,405,cs),
(305,405,o),
(416,343,o),
(416,225,cs),
(416,103,o),
(326,28,o),
(228,25,cs),
(173,23,o),
(169,24,o),
(130,28,c)
);
}
);
width = 500;
},
{
layerId = m007;
name = Regular;
shapes = (
{
closed = 1;
nodes = (
(202,-2,o),
(273,-9,o),
(348,-8,cs),
(522,-8,o),
(596,100,o),
(596,228,cs),
(596,328,o),
(527,425,o),
(357,433,cs),
(294,436,o),
(232,434,o),
(190,432,c),
(190,630,l),
(10,630,l),
(10,600,l),
(163,600,l),
(163,0,l)
);
},
{
closed = 1;
nodes = (
(190,402,l),
(224,404,o),
(278,407,o),
(328,405,cs),
(455,405,o),
(566,343,o),
(566,225,cs),
(566,103,o),
(472,23,o),
(348,23,cs),
(297,21,o),
(229,24,o),
(190,28,c)
);
}
);
width = 644;
}
);
unicode = 1066;
changeCount = 119;
},
{
glyphname = "Ereversed-cy";
lastChange = "2024-10-04 06:55:24 +0000";
layers = (
{
layerId = "7EBE3D46-E53E-419E-A3EC-596DA2EA1E0D";
name = Regular;
shapes = (
{
closed = 1;
nodes = (
(515,555,o),
(385,667,o),
(228,667,cs),
(166,667,o),
(122,657,o),
(48,617,c),
(53,561,o),
(68,505,o),
(83,460,c),
(136,493,o),
(179,507,o),
(218,507,cs),
(305,507,o),
(361,462,o),
(381,387,c),
(138,387,l),
(138,266,l),
(381,266,l),
(359,193,o),
(304,149,o),
(218,149,cs),
(179,149,o),
(136,163,o),
(83,196,c),
(68,151,o),
(53,95,o),
(48,39,c),
(122,-1,o),
(166,-11,o),
(228,-11,cs),
(385,-11,o),
(513,101,o),
(514,326,cs)
);
}
);
width = 554;
},
{
layerId = m002;
name = Regular;
shapes = (
{
closed = 1;
nodes = (
(504,540,o),
(396,631,o),
(238,631,cs),
(172,631,o),
(121,608,o),
(83,588,c),
(82,580,o),
(84,563,o),
(88,553,c),
(141,585,o),
(179,599,o),
(248,599,cs),
(336,599,o),
(464,550,o),
(476,344,c),
(98,344,l),
(98,310,l),
(476.992,310,l),
(476,81,o),
(340,27,o),
(248,27,cs),
(179,27,o),
(141,41,o),
(88,73,c),
(84,63,o),
(82,46,o),
(83,38,c),
(121,18,o),
(172,-5,o),
(238,-5,cs),
(396,-5,o),
(504,86,o),
(504,312,cs)
);
}
);
width = 554;
},
{
layerId = m003;
name = Regular;
shapes = (
{
closed = 1;
nodes = (
(525,555,o),
(397,667,o),
(240,667,cs),
(178,667,o),
(134,657,o),
(60,617,c),
(65,561,o),
(80,505,o),
(95,460,c),
(138,485,o),
(194,507,o),
(275,507,cs),
(366,507,o),
(441,483,o),
(464,387,c),
(160,387,l),
(160,266,l),
(464,266,l),
(439,172,o),
(365,149,o),
(275,149,cs),
(194,149,o),
(138,171,o),
(95,196,c),
(80,151,o),
(65,95,o),
(60,39,c),
(134,-1,o),
(178,-11,o),
(240,-11,cs),
(397,-11,o),
(525,101,o),
(526,326,cs)
);
}
);
width = 566;
},
{
layerId = m004;
name = Regular;
shapes = (
{
closed = 1;
nodes = (
(504,540,o),
(396,631,o),
(238,631,cs),
(172,631,o),
(121,608,o),
(83,588,c),
(82,580,o),
(84,563,o),
(88,553,c),
(141,585,o),
(179,599,o),
(248,599,cs),
(336,599,o),
(464,550,o),
(476,344,c),
(98,344,l),
(98,310,l),
(476.992,310,l),
(476,81,o),
(340,27,o),
(248,27,cs),
(179,27,o),
(141,41,o),
(88,73,c),
(84,63,o),
(82,46,o),
(83,38,c),
(121,18,o),
(172,-5,o),
(238,-5,cs),
(396,-5,o),
(504,86,o),
(504,312,cs)
);
}
);
width = 554;
},
{
layerId = m005;
name = Regular;
shapes = (
{
closed = 1;
nodes = (
(533,555,o),
(415,667,o),
(258,667,cs),
(196,667,o),
(152,657,o),
(78,617,c),
(83,561,o),
(98,505,o),
(113,460,c),
(166,493,o),
(209,507,o),
(248,507,cs),
(335,507,o),
(384,462,o),
(402,387,c),
(238,387,l),
(238,266,l),
(402,266,l),
(383,193,o),
(334,149,o),
(248,149,cs),
(209,149,o),
(166,163,o),
(113,196,c),
(98,151,o),
(83,95,o),
(78,39,c),
(152,-1,o),
(196,-11,o),
(258,-11,cs),
(415,-11,o),
(533,101,o),
(534,326,cs)
);
}
);
width = 500;
},
{
layerId = m006;
name = Regular;
shapes = (
{
closed = 1;
nodes = (
(474,540,o),
(376,631,o),
(218,631,cs),
(152,631,o),
(101,608,o),
(63,588,c),
(62,580,o),
(64,563,o),
(68,553,c),
(121,585,o),
(159,599,o),
(228,599,cs),
(316,599,o),
(435,550,o),
(446,344,c),
(138,344,l),
(138,310,l),
(446.993,310,l),
(446,81,o),
(320,27,o),
(228,27,cs),
(159,27,o),
(121,41,o),
(68,73,c),
(64,63,o),
(62,46,o),
(63,38,c),
(101,18,o),
(152,-5,o),
(218,-5,cs),
(376,-5,o),
(474,86,o),
(474,312,cs)
);
}
);
width = 500;
},
{
layerId = m007;
name = Regular;
shapes = (
{
closed = 1;
nodes = (
(504,540,o),
(396,631,o),
(238,631,cs),
(172,631,o),
(121,608,o),
(83,588,c),
(82,580,o),
(84,563,o),
(88,553,c),
(141,585,o),
(179,599,o),
(248,599,cs),
(336,599,o),
(464,550,o),
(476,344,c),
(98,344,l),
(98,310,l),
(476.992,310,l),
(476,81,o),
(340,27,o),
(248,27,cs),
(179,27,o),
(141,41,o),
(88,73,c),
(84,63,o),
(82,46,o),
(83,38,c),
(121,18,o),
(172,-5,o),
(238,-5,cs),
(396,-5,o),
(504,86,o),
(504,312,cs)
);
}
);
width = 554;
}
);
unicode = 1069;
changeCount = 32;
},
